# Blender v2.79 (sub 0) OBJ File: ''
# www.blender.org
mtllib Surgical_periotome_collision.mtl
o Periotome_HP_Cube.001
v 0.311871 -0.003123 2.971498
v 0.327493 -0.018618 3.003234
v 0.088510 -0.097463 2.899796
v 0.136672 0.083935 2.924225
v 0.314476 0.002134 3.027242
v 0.345801 0.005914 3.007607
v 0.076974 0.094698 -1.988024
v 0.048734 0.031176 -1.991370
v -0.026851 0.044615 -1.991481
v -0.090735 0.069840 -1.987586
v 0.100334 -0.070030 -1.988577
v -0.037089 -0.033783 -1.991521
v 0.120963 0.002130 1.985668
v 0.075559 0.095845 1.982450
v -0.019896 0.111004 1.984472
v 0.087677 -0.081987 1.985155
v 0.049627 0.030331 1.988934
v 0.029924 -0.111230 1.983873
v -0.064194 -0.095283 1.984237
v -0.105750 -0.024452 1.983854
v -0.089791 0.069552 1.984446
v -0.027330 0.045018 1.988916
v -0.043170 -0.023787 1.988730
v -0.005914 -0.050510 1.988562
v -0.064832 -0.096249 -1.988200
v 0.039498 -0.042291 -1.991323
v 0.050010 -0.017944 -2.599379
v 0.015819 -0.041727 -2.592870
v -0.458271 0.030980 -3.166076
v -0.433425 0.016297 -3.204089
v -0.443506 -0.025972 -3.197424
v 0.080283 -0.036342 -2.968671
v 0.062879 -0.023956 -2.919270
v -0.005529 -0.022186 -2.979775
v 0.023178 0.021933 -3.022857
v 0.072357 0.035432 -2.974027
v 0.099779 0.008153 -2.970108
v 0.120584 -0.025858 -2.919683
v 0.110414 -0.035806 -2.827962
v -0.024138 -0.031020 -2.593307
v 0.034641 0.022509 -2.956233
v -0.461878 -0.024503 -3.150542
v -0.101378 0.002799 2.677328
v -0.105837 0.027384 2.660511
v -0.127792 0.028704 2.742650
v -0.111235 0.001836 2.767836
v -0.127721 -0.031053 2.763588
v -0.159618 -0.038196 2.771659
v -0.165186 -0.022578 2.664919
v -0.102999 -0.027698 2.658196
v -0.169347 0.022333 2.677628
v -0.191061 -0.007752 2.765073
v -0.171015 0.037630 2.777544
v 0.020251 0.031666 2.461953
v 0.036293 0.006745 2.461737
v -0.026801 0.022219 2.447371
v 0.021930 -0.031949 2.465838
v -0.095461 -0.038081 2.803518
v -0.113242 0.040672 2.794861
v -0.025599 0.099903 2.856956
v 0.087936 -0.109100 1.750618
v 0.135901 -0.027686 1.748751
v -0.037694 -0.096116 2.857414
v -0.146724 -0.050174 2.818699
v -0.158831 0.032625 2.816894
v -0.167314 0.085113 -1.447106
v -0.136241 0.140283 -1.447994
v -0.126417 0.134814 -1.450074
v 0.145596 -0.136653 -1.448059
v 0.082221 -0.180637 -1.449219
v 0.077460 -0.172690 -1.450220
v 0.173619 0.073171 1.453270
v 0.146930 0.140589 1.450799
v 0.137038 0.134469 1.452989
v 0.187590 0.000001 1.452999
v 0.186397 0.075918 1.451766
v 0.146919 -0.140576 1.450786
v 0.173615 -0.073170 1.453272
v 0.137037 -0.134471 1.452989
v 0.186397 -0.075927 1.451759
v -0.162656 -0.073172 1.453270
v -0.135949 -0.140583 1.450776
v -0.126075 -0.134469 1.452989
v -0.176627 -0.000002 1.452999
v -0.175845 -0.074075 1.451903
v -0.136220 0.140197 1.450803
v -0.162651 0.073170 1.453272
v -0.126074 0.134470 1.452989
v -0.175443 0.075897 1.451754
v -0.019206 0.111609 -1.987422
v 0.117093 0.024669 -1.987425
v -0.105822 -0.024568 -1.987587
v -0.124794 0.028047 1.741054
v -0.104479 -0.082644 1.744195
v -0.022124 -0.130424 1.740173
v 0.033244 0.130575 1.739058
v -0.077353 0.110383 1.740444
v 0.044891 -0.037820 1.988976
v 0.134340 -0.032646 -1.761669
v 0.084566 -0.110910 -1.764405
v 0.008403 0.188196 -1.448643
v 0.079754 0.171128 -1.449739
v -0.033682 0.173973 -1.526216
v -0.074691 0.177153 -1.402802
v -0.074574 -0.174258 -1.447848
v -0.131330 -0.139998 -1.447937
v -0.033673 -0.173973 -1.526216
v -0.168489 0.039162 -1.526217
v 0.031236 0.038313 -2.595420
v -0.029472 0.023559 -2.598907
v 0.074836 0.029961 -2.882947
v 0.029349 -0.018229 -3.022720
v 0.123127 0.027336 -2.910422
v 0.058353 -0.017524 -2.832657
v 0.124772 0.016985 -2.829170
v -0.023190 -0.027042 2.462861
v -0.166088 -0.075112 -1.449668
v -0.175352 -0.076215 -1.449161
v -0.183108 -0.008371 -1.445697
v 0.181858 0.076796 -1.448186
v 0.198965 0.000969 -1.449269
v 0.190573 -0.002139 -1.450475
v 0.030903 -0.111322 -1.987416
v 0.114586 0.082021 1.751385
v 0.179838 -0.077133 -1.447165
v -0.123863 0.031884 -1.762101
v -0.103485 -0.080376 -1.776183
v -0.026301 -0.129024 -1.764673
v 0.114278 0.079244 -1.781366
v 0.003002 -0.189652 -1.448588
v -0.070980 0.180736 1.380980
v 0.081687 -0.180714 1.382051
v 0.005487 -0.193757 1.352898
v -0.188279 0.000013 1.352896
v 0.199231 0.000001 1.353371
v -0.022513 0.130191 -1.764943
v -0.090852 0.096525 -1.753953
v 0.058050 0.120812 -1.767132
v 0.142226 0.141674 -1.448646
v 0.076548 0.174304 1.451872
v 0.005481 0.182107 1.452999
v -0.065587 0.174315 1.451872
v -0.065584 -0.174305 1.451872
v 0.005482 -0.182108 1.452999
v 0.076551 -0.174315 1.451872
v 0.005475 0.193753 1.353321
v 0.081954 0.180733 1.381050
v 0.081946 0.180738 -1.377807
v -0.070989 -0.180741 1.380879
vt 0.634029 0.487919
vt 0.649609 0.480769
vt 0.640717 0.539933
vt 0.694669 0.531102
vt 0.668000 0.485499
vt 0.678983 0.474879
vt 0.691321 0.485067
vt 0.661052 0.484190
vt 0.652997 0.473727
vt 0.200525 0.612833
vt 0.193836 0.641999
vt 0.171326 0.657239
vt 0.152850 0.647291
vt 0.158056 0.738782
vt 0.197901 0.737699
vt 0.205761 0.779321
vt 0.160652 0.673581
vt 0.416732 0.752470
vt 0.412236 0.764446
vt 0.382627 0.742091
vt 0.368830 0.641459
vt 0.391769 0.625146
vt 0.392873 0.648326
vt 0.358155 0.655512
vt 0.350619 0.678768
vt 0.352392 0.699340
vt 0.363710 0.723484
vt 0.703168 0.898796
vt 0.694671 0.899999
vt 0.677192 0.899425
vt 0.648454 0.899672
vt 0.641957 0.900467
vt 0.630095 0.899118
vt 0.660064 0.900666
vt 0.493648 0.467100
vt 0.492790 0.468283
vt 0.456376 0.478095
vt 0.430274 0.501043
vt 0.470049 0.655667
vt 0.484085 0.651460
vt 0.495277 0.983296
vt 0.470254 0.978838
vt 0.481730 0.970359
vt 0.480758 0.808749
vt 0.501854 0.793371
vt 0.503022 0.838237
vt 0.457960 0.842012
vt 0.453177 0.808340
vt 0.461863 0.808140
vt 0.474954 0.781991
vt 0.477423 0.739237
vt 0.499527 0.649605
vt 0.511160 0.987220
vt 0.526208 0.816667
vt 0.547604 0.811243
vt 0.528816 0.994609
vt 0.492953 0.970556
vt 0.610314 0.657876
vt 0.599817 0.666083
vt 0.596690 0.634251
vt 0.607356 0.621326
vt 0.625568 0.620911
vt 0.638204 0.621140
vt 0.650329 0.657378
vt 0.625074 0.663225
vt 0.664803 0.653803
vt 0.657070 0.625003
vt 0.674296 0.625255
vt 0.582980 0.896338
vt 0.595338 0.746858
vt 0.603953 0.746439
vt 0.667429 0.747002
vt 0.620090 0.746807
vt 0.619720 0.601611
vt 0.589108 0.614538
vt 0.564389 0.554284
vt 0.303391 0.611220
vt 0.332371 0.578857
vt 0.641176 0.572575
vt 0.649404 0.603310
vt 0.694697 0.578683
vt 0.669971 0.608179
vt 0.692301 0.615282
vt 0.899675 0.146165
vt 0.900036 0.117667
vt 0.900800 0.117667
vt 0.900491 0.345594
vt 0.900428 0.317107
vt 0.900951 0.317107
vt 0.018350 0.431217
vt 0.019296 0.459734
vt 0.018393 0.459734
vt 0.018409 0.402700
vt 0.018952 0.431217
vt 0.019277 0.345662
vt 0.018338 0.374182
vt 0.018433 0.345662
vt 0.018944 0.374182
vt 0.018324 0.203063
vt 0.019270 0.231580
vt 0.018423 0.231580
vt 0.018391 0.174548
vt 0.018865 0.203063
vt 0.019262 0.117525
vt 0.018327 0.146036
vt 0.018431 0.117525
vt 0.018933 0.146036
vt 0.171414 0.630572
vt 0.184764 0.763690
vt 0.137371 0.691185
vt 0.166720 0.713211
vt 0.140280 0.671038
vt 0.375150 0.666676
vt 0.296206 0.733200
vt 0.284236 0.691592
vt 0.291379 0.652615
vt 0.342991 0.804838
vt 0.310561 0.770784
vt 0.706502 0.899582
vt 0.609196 0.898128
vt 0.606469 0.898904
vt 0.114469 0.787590
vt 0.092575 0.755785
vt 0.900314 0.060663
vt 0.900759 0.032157
vt 0.917379 0.076193
vt 0.886328 0.089164
vt 0.899827 0.260130
vt 0.900487 0.231641
vt 0.917370 0.273104
vt 0.917372 0.159141
vt 0.537772 0.651046
vt 0.529245 0.477672
vt 0.552265 0.496354
vt 0.450429 0.480387
vt 0.517064 0.651323
vt 0.451181 0.655058
vt 0.530618 0.772503
vt 0.473916 0.841198
vt 0.454403 0.778955
vt 0.503398 0.742935
vt 0.459279 0.740325
vt 0.553086 0.775484
vt 0.548711 0.842768
vt 0.692043 0.748088
vt 0.688769 0.636510
vt 0.686951 0.665750
vt 0.640857 0.742529
vt 0.584749 0.504553
vt 0.900823 0.203151
vt 0.900407 0.203151
vt 0.899120 0.174659
vt 0.900505 0.431054
vt 0.900470 0.402567
vt 0.900873 0.402567
vt 0.143795 0.718009
vt 0.362603 0.543641
vt 0.417899 0.609841
vt 0.361499 0.834157
vt 0.037656 0.822863
vt 0.051131 0.849117
vt 0.091698 0.636323
vt 0.079066 0.677268
vt 0.083429 0.713166
vt 0.140329 0.828262
vt 0.900445 0.288619
vt 0.549929 0.716924
vt 0.899725 0.374081
vt 0.040470 0.089021
vt 0.040137 0.317140
vt 0.049009 0.288620
vt 0.049009 0.174551
vt 0.048888 0.402694
vt 0.055423 0.534971
vt 0.122058 0.586941
vt 0.099116 0.608864
vt 0.033325 0.573806
vt 0.143915 0.559739
vt 0.082620 0.494470
vt 0.156990 0.539482
vt 0.101452 0.468465
vt 0.065730 0.875180
vt 0.025995 0.796230
vt 0.080929 0.901135
vt 0.008300 0.726303
vt 0.016890 0.769047
vt 0.005675 0.685532
vt 0.018094 0.614008
vt 0.008054 0.657332
vt 0.294313 0.870631
vt 0.314383 0.893940
vt 0.275049 0.846913
vt 0.257255 0.822460
vt 0.263061 0.538874
vt 0.245929 0.564710
vt 0.241810 0.796764
vt 0.282830 0.514392
vt 0.304213 0.490662
vt 0.216261 0.651077
vt 0.213792 0.681194
vt 0.326523 0.467409
vt 0.222554 0.621336
vt 0.232428 0.592383
vt 0.229629 0.769362
vt 0.220860 0.740698
vt 0.215426 0.711207
vt 0.048903 0.060516
vt 0.040458 0.032011
vt 0.878780 0.032153
vt 0.040139 0.003507
vt 0.900498 0.003650
vt 0.882819 0.459544
vt 0.040489 0.260100
vt 0.018385 0.089018
vt 0.018406 0.060512
vt 0.018394 0.032008
vt 0.018451 0.003504
vt 0.018379 0.317142
vt 0.018392 0.288620
vt 0.018373 0.260100
vn 0.6132 -0.0338 -0.7892
vn 0.5501 -0.8261 0.1223
vn 0.1416 -0.9885 -0.0531
vn 0.1233 0.9924 0.0052
vn 0.1451 0.0971 0.9846
vn 0.9531 0.2560 0.1616
vn 0.4243 0.6273 -0.6530
vn 0.3929 0.2801 -0.8759
vn -0.2673 0.3822 -0.8846
vn -0.6185 0.4413 -0.6501
vn 0.6188 -0.4279 -0.6588
vn -0.3734 -0.2774 -0.8852
vn 0.7521 0.0025 0.6590
vn 0.4542 0.6212 0.6386
vn -0.1321 0.7402 0.6593
vn 0.5429 -0.5269 0.6540
vn 0.4053 0.3081 0.8607
vn 0.1097 -0.7377 0.6662
vn -0.4330 -0.6264 0.6481
vn -0.7289 -0.1329 0.6716
vn -0.6319 0.4265 0.6472
vn -0.2595 0.3952 0.8812
vn -0.5370 -0.1961 0.8205
vn -0.1086 -0.6030 0.7903
vn -0.4296 -0.6228 -0.6539
vn 0.2814 -0.3750 -0.8833
vn 0.9275 -0.3310 0.1737
vn 0.1245 -0.9922 -0.0108
vn -0.7027 0.7050 0.0957
vn -0.1594 0.4267 -0.8903
vn -0.3750 -0.6168 -0.6920
vn 0.3646 -0.8608 -0.3551
vn -0.7067 -0.6430 0.2953
vn -0.3478 -0.5393 0.7670
vn 0.3767 0.5366 -0.7551
vn 0.2869 0.9027 -0.3207
vn 0.7730 0.1333 -0.6202
vn 0.8118 -0.5484 -0.2007
vn 0.5361 -0.8400 0.0839
vn -0.7655 -0.6276 -0.1421
vn -0.5027 0.6408 0.5803
vn -0.7676 -0.4925 0.4100
vn 0.9396 0.0861 0.3312
vn 0.8763 -0.0090 0.4818
vn 0.5495 0.8348 -0.0341
vn 0.9761 0.0437 -0.2128
vn 0.5285 -0.8257 -0.1973
vn -0.3758 -0.9170 -0.1338
vn -0.7174 -0.6030 -0.3489
vn 0.4798 -0.8513 0.2125
vn -0.7505 0.5874 -0.3028
vn -0.9787 -0.1715 0.1125
vn -0.6176 0.7858 0.0335
vn 0.4501 0.8751 0.1780
vn 0.9517 0.1443 0.2709
vn -0.7476 0.6437 -0.1634
vn 0.6008 -0.7662 0.2278
vn 0.5025 -0.2802 -0.8179
vn 0.4565 0.4885 -0.7436
vn -0.0402 0.9985 0.0381
vn 0.5826 -0.8008 0.1389
vn 0.9779 -0.1621 0.1319
vn -0.1780 -0.9766 0.1205
vn -0.6193 -0.6126 0.4911
vn -0.6740 0.3795 0.6338
vn -0.9058 0.3956 -0.1514
vn -0.4720 0.6266 -0.6201
vn -0.3986 0.6833 -0.6117
vn 0.7117 -0.6936 -0.1119
vn 0.2793 -0.7302 -0.6235
vn 0.2096 -0.6164 -0.7591
vn 0.6081 0.2309 0.7595
vn 0.6061 0.6675 0.4325
vn 0.5516 0.7013 0.4515
vn 0.9803 0.0050 0.1975
vn 0.7388 0.2494 0.6260
vn 0.6078 -0.6658 0.4328
vn 0.6053 -0.2409 0.7587
vn 0.5685 -0.6886 0.4503
vn 0.7404 -0.2470 0.6251
vn -0.6050 -0.2297 0.7624
vn -0.6064 -0.6681 0.4312
vn -0.5524 -0.7009 0.4512
vn -0.9798 -0.0021 0.1999
vn -0.7389 -0.2388 0.6300
vn -0.6048 0.6640 0.4396
vn -0.6044 0.2397 0.7598
vn -0.5701 0.6911 0.4443
vn -0.7403 0.2449 0.6260
vn -0.1325 0.7339 -0.6662
vn 0.7336 0.1290 -0.6672
vn -0.7259 -0.1297 -0.6755
vn -0.9771 0.1712 0.1266
vn -0.8134 -0.5670 0.1299
vn -0.1783 -0.9748 0.1338
vn 0.1796 0.9746 0.1338
vn -0.5672 0.8127 0.1332
vn 0.3998 -0.3637 0.8414
vn 0.9707 -0.1991 -0.1345
vn 0.5465 -0.8272 -0.1307
vn 0.0477 0.9897 -0.1346
vn 0.3313 0.9281 -0.1697
vn -0.1926 0.9648 -0.1790
vn -0.3487 0.9350 -0.0653
vn -0.3791 -0.9194 -0.1050
vn -0.6925 -0.7120 -0.1159
vn -0.1726 -0.9648 -0.1984
vn -0.9644 0.1833 -0.1907
vn 0.4266 0.9029 0.0531
vn -0.8290 0.5362 -0.1589
vn -0.5480 0.8361 0.0233
vn 0.4227 -0.4382 -0.7933
vn 0.7840 0.6098 -0.1160
vn -0.7917 -0.5742 -0.2087
vn 0.9103 0.3824 0.1584
vn -0.5813 -0.7936 -0.1794
vn -0.5997 -0.2013 -0.7745
vn -0.7173 -0.2550 -0.6484
vn -0.9905 -0.0298 -0.1340
vn 0.9330 0.3430 -0.1087
vn 0.7890 -0.0014 -0.6144
vn 0.6779 -0.0159 -0.7350
vn 0.1385 -0.7326 -0.6664
vn 0.8126 0.5688 0.1269
vn 0.9290 -0.3545 -0.1063
vn -0.9779 0.1687 -0.1235
vn -0.8208 -0.5582 -0.1210
vn -0.1841 -0.9745 -0.1284
vn 0.8343 0.5378 -0.1213
vn 0.0127 -0.9915 -0.1296
vn -0.3259 0.9431 0.0657
vn 0.3271 -0.9426 0.0671
vn -0.0042 -0.9991 0.0417
vn -0.9997 0.0016 0.0232
vn 0.9997 -0.0040 0.0239
vn -0.1803 0.9741 -0.1368
vn -0.6982 0.7037 -0.1316
vn 0.3326 0.9338 -0.1319
vn 0.6869 0.7188 -0.1076
vn 0.2981 0.9374 0.1799
vn -0.0137 0.9890 0.1471
vn -0.3048 0.9354 0.1791
vn -0.2987 -0.9372 0.1798
vn 0.0126 -0.9891 0.1467
vn 0.3034 -0.9358 0.1796
vn -0.0044 0.9991 0.0417
vn 0.3258 0.9431 0.0662
vn 0.3396 0.9399 -0.0346
vn -0.3293 -0.9420 0.0653
usemtl Steel_Stainlessl_Shiny_instruments.002
s 1
f 1/1/1 2/2/2 3/3/3
f 4/4/4 5/5/5 6/6/6
f 6/6/6 1/7/1 4/4/4
f 5/8/5 2/2/2 6/9/6
f 7/10/7 8/11/8 9/12/9
f 7/10/7 9/12/9 10/13/10
f 11/14/11 8/15/8 7/16/7
f 10/13/10 9/12/9 12/17/12
f 13/18/13 14/19/14 15/20/15
f 16/21/16 13/22/13 17/23/17
f 18/24/18 16/21/16 19/25/19
f 20/26/20 19/25/19 21/27/21
f 17/28/17 15/29/15 22/30/22
f 23/31/23 19/32/19 24/33/24
f 22/30/22 21/34/21 23/31/23
f 25/35/25 12/36/12 26/37/26
f 8/38/8 26/37/26 27/39/27
f 28/40/28 27/39/27 26/37/26
f 26/37/26 12/36/12 28/40/28
f 29/41/29 30/42/30 31/43/31
f 32/44/32 33/45/33 34/46/34
f 35/47/35 36/48/36 37/49/37
f 37/49/37 38/50/38 32/44/32
f 39/51/39 33/45/33 32/44/32
f 28/40/28 40/52/40 39/51/39
f 29/53/29 41/54/41 36/55/36
f 36/55/36 30/56/30 29/53/29
f 41/54/41 29/53/29 42/57/42
f 43/58/43 44/59/44 45/60/45
f 45/60/45 46/61/46 43/58/43
f 46/61/46 47/62/47 43/58/43
f 48/63/48 49/64/49 50/65/50
f 51/66/51 49/64/49 52/67/52
f 52/67/52 53/68/53 51/66/51
f 17/69/17 54/70/54 55/71/55
f 22/30/22 23/31/23 56/72/56
f 50/65/50 49/64/49 57/73/57
f 3/3/3 58/74/58 1/1/1
f 58/74/58 59/75/59 1/1/1
f 59/75/59 60/76/60 1/1/1
f 16/21/16 61/77/61 62/78/62 13/22/13
f 63/79/63 5/8/5 64/80/64
f 5/8/5 60/81/60 65/82/65
f 65/82/65 53/68/53 52/67/52
f 65/82/65 52/67/52 64/80/64
f 64/80/64 48/63/48 63/79/63
f 48/63/48 47/62/47 58/74/58
f 58/74/58 47/62/47 46/61/46
f 58/74/58 46/61/46 59/75/59
f 53/68/53 65/82/65 60/81/60
f 60/81/60 59/83/59 53/68/53
f 66/84/66 67/85/67 68/86/68
f 69/87/69 70/88/70 71/89/71
f 72/90/72 73/91/73 74/92/74
f 75/93/75 76/94/76 72/90/72
f 77/95/77 78/96/78 79/97/79
f 80/98/80 75/93/75 78/96/78
f 81/99/81 82/100/82 83/101/83
f 84/102/84 85/103/85 81/99/81
f 86/104/86 87/105/87 88/106/88
f 89/107/89 84/102/84 87/105/87
f 5/8/5 63/79/63 3/3/3
f 3/3/3 2/2/2 5/8/5
f 5/8/5 4/4/4 60/81/60
f 2/2/2 1/1/1 6/9/6
f 90/108/90 7/10/7 10/13/10
f 91/109/91 11/14/11 7/16/7
f 11/14/11 25/110/25 26/111/26
f 92/112/92 10/13/10 25/110/25
f 10/13/10 12/17/12 25/110/25
f 19/25/19 16/21/16 24/113/24
f 20/26/20 93/114/93 94/115/94
f 18/24/18 95/116/95 61/77/61
f 15/20/15 96/117/96 97/118/97
f 17/28/17 13/119/13 15/29/15
f 15/29/15 21/34/21 22/30/22
f 98/120/98 16/121/16 17/69/17
f 24/33/24 16/121/16 98/120/98
f 21/34/21 19/32/19 23/31/23
f 11/14/11 99/122/99 100/123/100
f 101/124/101 102/125/102 103/126/103
f 101/124/101 103/126/103 104/127/104
f 105/128/105 106/129/106 107/130/107
f 66/84/66 68/86/68 108/131/108
f 109/132/109 9/133/9 8/134/8
f 8/38/8 11/135/11 26/37/26
f 110/136/110 9/133/9 109/132/109
f 109/137/109 8/38/8 27/39/27
f 28/40/28 12/36/12 40/52/40
f 12/36/12 110/136/110 40/52/40
f 31/43/31 42/57/42 29/53/29
f 36/55/36 41/54/41 111/138/111
f 33/45/33 111/138/111 41/54/41
f 112/139/112 35/47/35 37/49/37
f 37/49/37 36/48/36 113/140/113
f 112/139/112 37/49/37 32/44/32
f 37/49/37 113/140/113 38/50/38
f 110/136/110 114/141/114 40/52/40
f 39/51/39 32/44/32 38/50/38
f 39/51/39 114/141/114 33/45/33
f 39/51/39 40/52/40 114/141/114
f 27/39/27 115/142/115 109/137/109
f 111/138/111 110/136/110 109/132/109
f 111/138/111 109/132/109 113/143/113
f 31/43/31 32/44/32 42/57/42
f 36/55/36 35/144/35 30/56/30
f 30/42/30 112/139/112 31/43/31
f 22/30/22 54/145/54 17/28/17
f 45/146/45 44/147/44 53/68/53
f 53/68/53 59/83/59 45/146/45
f 43/58/43 47/62/47 50/65/50
f 45/60/45 59/75/59 46/61/46
f 48/63/48 50/65/50 47/62/47
f 48/63/48 52/67/52 49/64/49
f 48/63/48 64/80/64 52/67/52
f 116/148/116 23/31/23 24/33/24
f 24/33/24 98/120/98 57/73/57
f 24/33/24 57/73/57 116/148/116
f 57/73/57 49/64/49 116/148/116
f 1/1/1 60/76/60 4/149/4
f 5/8/5 65/82/65 64/80/64
f 63/79/63 48/63/48 58/74/58
f 58/74/58 3/3/3 63/79/63
f 117/150/117 118/151/118 119/152/119
f 120/153/120 121/154/121 122/155/122
f 94/115/94 19/25/19 20/26/20
f 123/156/123 25/110/25 11/14/11
f 61/77/61 16/21/16 18/24/18
f 21/27/21 97/118/97 93/114/93
f 19/25/19 94/115/94 95/116/95
f 124/157/124 14/158/14 13/22/13
f 97/118/97 21/27/21 15/20/15
f 14/19/14 124/159/124 96/117/96
f 125/160/125 99/122/99 122/161/122
f 126/162/126 10/13/10 92/112/92
f 92/112/92 127/163/127 126/162/126
f 128/164/128 25/110/25 123/156/123
f 123/156/123 100/123/100 128/164/128
f 99/122/99 11/14/11 91/109/91
f 91/109/91 129/165/129 99/122/99
f 41/54/41 34/46/34 33/45/33
f 104/127/104 103/126/103 68/86/68
f 130/166/130 105/128/105 107/130/107
f 130/166/130 107/130/107 71/89/71
f 119/152/119 66/84/66 108/131/108
f 119/152/119 108/131/108 117/150/117
f 110/136/110 12/36/12 9/133/9
f 114/141/114 110/136/110 111/138/111
f 39/51/39 27/39/27 28/40/28
f 27/39/27 39/51/39 115/142/115
f 109/132/109 115/167/115 113/143/113
f 42/57/42 32/44/32 34/46/34
f 42/57/42 34/46/34 41/54/41
f 35/47/35 112/139/112 30/42/30
f 56/72/56 54/145/54 22/30/22
f 116/148/116 49/64/49 56/72/56
f 116/148/116 56/72/56 23/31/23
f 56/72/56 49/64/49 51/66/51
f 54/145/54 53/68/53 44/147/44
f 70/88/70 69/87/69 77/95/77
f 118/151/118 106/129/106 82/100/82
f 67/85/67 66/84/66 89/107/89
f 125/168/125 122/155/122 121/154/121
f 86/104/86 131/169/131 67/85/67
f 77/95/77 132/170/132 70/88/70
f 132/170/132 133/171/133 70/88/70
f 82/100/82 85/103/85 118/151/118
f 85/103/85 134/172/134 118/151/118
f 76/94/76 73/91/73 72/90/72
f 135/173/135 76/94/76 75/93/75
f 77/95/77 80/98/80 78/96/78
f 80/98/80 135/173/135 75/93/75
f 85/103/85 82/100/82 81/99/81
f 134/172/134 85/103/85 84/102/84
f 86/104/86 89/107/89 87/105/87
f 89/107/89 134/172/134 84/102/84
f 93/114/93 20/26/20 21/27/21
f 95/116/95 18/24/18 19/25/19
f 62/78/62 124/157/124 13/22/13
f 103/174/103 136/175/136 137/176/137 68/177/68
f 96/117/96 15/20/15 14/19/14
f 138/178/138 136/175/136 103/174/103 102/179/102
f 129/180/129 138/178/138 102/179/102 139/181/139
f 122/161/122 99/122/99 129/165/129 120/182/120
f 100/123/100 99/122/99 125/160/125 69/183/69
f 129/165/129 139/184/139 120/182/120
f 107/185/107 128/164/128 100/123/100 71/186/71
f 127/163/127 128/164/128 107/185/107 106/187/106
f 100/123/100 69/183/69 71/186/71
f 108/188/108 126/162/126 127/163/127 117/189/117
f 137/176/137 126/162/126 108/188/108 68/177/68
f 127/163/127 106/187/106 117/189/117
f 7/10/7 90/108/90 136/175/136 138/178/138
f 126/162/126 137/176/137 10/13/10
f 127/163/127 92/112/92 25/110/25
f 128/164/128 127/163/127 25/110/25
f 100/123/100 123/156/123 11/14/11
f 129/165/129 91/109/91 7/16/7
f 10/13/10 137/176/137 136/175/136 90/108/90
f 138/178/138 129/180/129 7/10/7
f 140/190/140 96/117/96 124/159/124 74/191/74
f 96/117/96 140/190/140 141/192/141
f 97/118/97 96/117/96 141/192/141 142/193/142
f 78/194/78 62/78/62 61/77/61 79/195/79
f 142/193/142 88/196/88 97/118/97
f 62/78/62 78/194/78 75/197/75
f 124/157/124 62/78/62 75/197/75 72/198/72
f 143/199/143 95/116/95 94/115/94 83/200/83
f 72/198/72 74/201/74 124/157/124
f 95/116/95 143/199/143 144/202/144
f 61/77/61 95/116/95 144/202/144 145/203/145
f 87/204/87 93/114/93 97/118/97 88/196/88
f 145/203/145 79/195/79 61/77/61
f 93/114/93 87/204/87 84/205/84
f 94/115/94 93/114/93 84/205/84 81/206/81
f 38/50/38 113/140/113 115/142/115 39/51/39
f 81/206/81 83/200/83 94/115/94
f 111/138/111 33/45/33 114/141/114
f 55/71/55 57/73/57 98/120/98 17/69/17
f 113/143/113 36/55/36 111/138/111
f 31/43/31 112/139/112 32/44/32
f 57/73/57 55/71/55 43/58/43 50/65/50
f 54/70/54 44/59/44 43/58/43 55/71/55
f 51/66/51 53/68/53 54/145/54 56/72/56
f 101/124/101 104/127/104 131/169/131 146/207/146
f 146/207/146 147/208/147 148/209/148 101/124/101
f 67/85/67 131/169/131 104/127/104
f 147/208/147 73/210/73 139/211/139 148/209/148
f 120/153/120 76/94/76 135/173/135 121/154/121
f 139/212/139 73/91/73 76/94/76 120/153/120
f 135/173/135 80/98/80 125/168/125 121/154/121
f 125/168/125 80/98/80 77/95/77 69/87/69
f 133/171/133 149/213/149 105/128/105 130/166/130
f 70/88/70 133/171/133 130/166/130
f 105/128/105 149/213/149 82/100/82 106/129/106
f 119/152/119 134/172/134 89/107/89 66/84/66
f 118/151/118 134/172/134 119/152/119
f 88/106/88 142/214/142 131/169/131 86/104/86
f 106/129/106 118/151/118 117/150/117
f 71/89/71 70/88/70 130/166/130
f 139/211/139 102/125/102 148/209/148
f 148/209/148 102/125/102 101/124/101
f 68/86/68 67/85/67 104/127/104
f 89/107/89 86/104/86 67/85/67
f 142/214/142 141/215/141 146/207/146 131/169/131
f 147/208/147 140/216/140 74/217/74 73/210/73
f 146/207/146 141/215/141 140/216/140 147/208/147
f 79/97/79 145/218/145 132/170/132 77/95/77
f 145/218/145 144/219/144 133/171/133 132/170/132
f 149/213/149 143/220/143 83/101/83 82/100/82
f 133/171/133 144/219/144 143/220/143 149/213/149
