# Blender v2.79 (sub 0) OBJ File: ''
# www.blender.org
mtllib grasper_shaft.mtl
o Mesh1_Group1_Model
v 2.165060 7.749302 -17.500000
v 2.414810 8.352253 -17.500000
v 2.414810 8.352147 307.000000
v 2.165060 7.749196 307.000000
v -2.165060 7.749302 -17.500000
v -2.414810 8.352253 -17.500000
v -2.500000 8.999301 -17.500000
v -2.414810 9.646348 -17.500000
v -2.165060 10.249302 -17.500000
v 2.165060 10.249302 -17.500000
v 2.414810 9.646348 -17.500000
v 2.500000 8.999301 -17.500000
v 2.165060 7.749303 -23.000000
v -2.165060 7.749303 -23.000000
v 1.767770 7.231426 307.000000
v 1.767770 7.231534 -24.222300
v 1.875000 7.371284 -24.082500
v 2.091290 7.653164 -23.560400
v 1.250000 6.834136 307.000000
v 1.250000 6.834244 -24.746500
v 1.530930 7.049804 -24.530899
v 0.647048 6.584376 307.000000
v 0.647048 6.584484 -25.055401
v 1.082530 6.764874 -24.875000
v -0.000000 6.499196 307.000000
v -0.000000 6.499304 -25.165100
v 0.560360 6.573074 -25.091299
v -0.647048 6.584376 307.000000
v -0.647048 6.584484 -25.055401
v -0.560360 6.573074 -25.091299
v -1.250000 6.834136 307.000000
v -1.250000 6.834244 -24.746500
v -1.082530 6.764874 -24.875000
v -1.767770 7.231426 307.000000
v -1.767770 7.231534 -24.222300
v -1.530930 7.049804 -24.530899
v -2.091290 7.653164 -23.560400
v -1.875000 7.371284 -24.082500
v -2.165060 7.749196 307.000000
v -2.091290 7.749304 -23.560400
v -1.875000 7.749304 -24.082500
v -1.530930 7.749304 -24.530899
v -1.082530 7.749304 -24.875000
v -0.560360 7.749304 -25.091299
v -0.000000 7.749304 -25.165100
v 0.560360 7.749304 -25.091299
v 1.082530 7.749304 -24.875000
v 1.530930 7.749304 -24.530899
v 1.875000 7.749304 -24.082500
v 2.091290 7.749304 -23.560400
v -2.500000 8.999195 307.000000
v -2.414810 8.352147 307.000000
v 2.500000 8.999195 307.000000
v 2.414810 9.646242 307.000000
v 2.165060 10.249196 307.000000
v 1.767770 10.766966 307.000000
v 1.250000 11.164256 307.000000
v 0.647048 11.414006 307.000000
v -0.000000 11.499196 307.000000
v -0.647048 11.414006 307.000000
v -1.250000 11.164256 307.000000
v -1.767770 10.766966 307.000000
v -2.165060 10.249196 307.000000
v -2.414810 9.646242 307.000000
v -1.767770 10.767074 -24.222300
v -1.875000 10.627324 -24.082500
v -2.091290 10.345444 -23.560400
v -2.165060 10.249304 -23.000000
v -1.250000 11.164364 -24.746500
v -1.530930 10.948804 -24.530899
v -0.647048 11.414114 -25.055401
v -1.082530 11.233734 -24.875000
v -0.000000 11.499304 -25.165100
v -0.560360 11.425534 -25.091299
v 0.647048 11.414114 -25.055401
v 0.560360 11.425534 -25.091299
v 1.250000 11.164364 -24.746500
v 1.082530 11.233734 -24.875000
v 1.767770 10.767074 -24.222300
v 1.530930 10.948804 -24.530899
v 2.165060 10.249304 -23.000000
v 2.091290 10.345444 -23.560400
v 1.875000 10.627324 -24.082500
v 2.091290 10.249304 -23.560400
v -2.091290 10.249304 -23.560400
v -1.875000 10.249304 -24.082500
v -1.530930 10.249304 -24.530899
v -1.082530 10.249304 -24.875000
v -0.560360 10.249304 -25.091299
v -0.000000 10.249304 -25.165100
v 0.560360 10.249304 -25.091299
v 1.082530 10.249304 -24.875000
v 1.530930 10.249304 -24.530899
v 1.875000 10.249304 -24.082500
vt 11.575200 30.177401
vt 14.144600 30.177401
vt 14.144600 1307.739990
vt 11.575200 1307.739990
vt -19.349701 7.295090
vt -18.366400 4.921260
vt -1.318650 4.921260
vt -0.335376 7.295090
vt 0.000000 9.842520
vt -0.335376 12.390000
vt -1.318650 14.763800
vt -18.366400 14.763800
vt -19.349701 12.390000
vt -19.684999 9.842520
vt -18.366400 30.177401
vt -18.366400 8.523870
vt -1.318650 8.523870
vt -1.318650 30.177401
vt 12.515600 1307.739990
vt 12.515600 3.711740
vt 13.209100 4.261940
vt 14.607900 6.317730
vt 15.085000 8.523870
vt 15.085000 30.177401
vt 15.085000 1307.739990
vt 12.515600 1307.739990
vt 12.515600 1.647900
vt 13.909800 2.496580
vt 15.085000 3.711740
vt 15.085000 1307.739990
vt 11.575200 1307.739990
vt 11.575200 0.431811
vt 13.430900 1.141980
vt 14.144600 1.647900
vt 14.144600 1307.739990
vt 9.758320 1307.739990
vt 9.758320 0.000000
vt 11.983500 0.290444
vt 12.327700 0.431811
vt 12.327700 1307.739990
vt 7.188900 1307.739990
vt 7.188900 0.431811
vt 7.533140 0.290444
vt 4.042030 1307.739990
vt 4.042030 1.647900
vt 4.755670 1.141980
vt 6.611440 0.431811
vt 6.611440 1307.739990
vt 0.532143 1307.739990
vt 0.532143 3.711740
vt 1.707440 2.496580
vt 3.101560 1.647900
vt 3.101560 1307.739990
vt -3.101560 30.177401
vt -3.101560 8.523870
vt -2.624450 6.317730
vt -1.225650 4.261940
vt -0.532143 3.711740
vt -0.532143 1307.739990
vt -3.101560 1307.739990
vt -4.921260 6.053650
vt -4.542750 6.053650
vt -4.921260 8.278830
vt -4.921260 2.995870
vt -3.433000 2.995870
vt -4.542750 5.221050
vt -4.921260 5.221050
vt -4.921260 -0.341893
vt -2.167330 -0.341893
vt -2.882810 1.189780
vt -3.433000 1.883280
vt -4.921260 1.883280
vt -4.921260 -3.732180
vt -1.045550 -3.732180
vt -1.318650 -2.901120
vt -2.167330 -1.507000
vt -4.921260 -1.507000
vt -4.921260 -6.943950
vt -0.290444 -6.943950
vt -0.335376 -6.574540
vt -1.045550 -4.718770
vt -4.921260 -4.718770
vt -4.921260 -9.758320
vt 0.000000 -9.758320
vt -0.290444 -7.533140
vt -4.921260 -7.533140
vt 4.921260 11.983500
vt 0.290444 11.983500
vt 0.000000 9.758320
vt 4.921260 9.758320
vt 4.921260 13.467800
vt 1.045550 13.467800
vt 0.335376 11.612100
vt 0.290444 11.242700
vt 4.921260 11.242700
vt 4.921260 14.110200
vt 2.167330 14.110200
vt 1.318650 12.716100
vt 1.045550 11.885000
vt 4.921260 11.885000
vt 4.921260 13.866800
vt 3.433000 13.866800
vt 2.882810 13.173300
vt 2.167330 11.641600
vt 4.921260 11.641600
vt 4.921260 12.754200
vt 4.542750 12.754200
vt 3.433000 10.529000
vt 4.921260 10.529000
vt 4.921260 8.623070
vt 4.921260 10.848200
vt 4.542750 8.623070
vt -1.609090 6.317730
vt -18.075899 6.317730
vt -17.224400 4.261940
vt -15.869800 2.496580
vt -14.104500 1.141980
vt -12.048700 0.290444
vt -9.842520 0.000000
vt -7.636380 0.290444
vt -5.580580 1.141980
vt -3.815230 2.496580
vt -2.460630 4.261940
vt 0.000000 9.842520
vt 0.335376 7.295090
vt 1.318650 4.921260
vt 2.882810 2.882810
vt 4.921260 1.318650
vt 7.295090 0.335376
vt 9.842520 0.000000
vt 12.390000 0.335376
vt 14.763800 1.318650
vt 16.802200 2.882810
vt 18.366400 4.921260
vt 19.349701 7.295090
vt 19.684999 9.842520
vt 19.349701 12.390000
vt 18.366400 14.763800
vt 16.802200 16.802200
vt 14.763800 18.366400
vt 12.390000 19.349701
vt 9.842520 19.684999
vt 7.295090 19.349701
vt 4.921260 18.366400
vt 2.882810 16.802200
vt 1.318650 14.763800
vt 0.335376 12.390000
vt -9.758320 30.177401
vt -7.188900 30.177401
vt -7.188900 1307.739990
vt -9.758320 1307.739990
vt -6.611440 30.177401
vt -4.042030 30.177401
vt -4.042030 1307.739990
vt -6.611440 1307.739990
vt -12.327700 30.177401
vt -12.327700 1307.739990
vt -14.144600 30.177401
vt -11.575200 30.177401
vt -11.575200 1307.739990
vt -14.144600 1307.739990
vt -15.085000 1307.739990
vt -15.085000 3.711740
vt -14.391500 4.261940
vt -12.992700 6.317730
vt -12.515600 8.523870
vt -12.515600 30.177401
vt -12.515600 1307.739990
vt -15.085000 1307.739990
vt -15.085000 1.647900
vt -13.690900 2.496580
vt -12.515600 3.711740
vt -12.515600 1307.739990
vt -14.144600 1307.739990
vt -14.144600 0.431811
vt -12.288800 1.141980
vt -11.575200 1.647900
vt -11.575200 1307.739990
vt -12.327700 1307.739990
vt -12.327700 -0.000000
vt -10.102600 0.290444
vt -9.758320 0.431811
vt -9.758320 1307.739990
vt -9.758320 1307.739990
vt -9.758320 0.431811
vt -9.414080 0.290444
vt -7.188900 -0.000000
vt -7.188900 1307.739990
vt -6.611440 1307.739990
vt -6.611440 1.647900
vt -5.897790 1.141980
vt -4.042030 0.431811
vt -4.042030 1307.739990
vt -3.101560 1307.739990
vt -3.101560 3.711740
vt -1.926260 2.496580
vt -0.532143 1.647900
vt -0.532143 1307.739990
vt 0.532143 30.177401
vt 0.532143 8.523870
vt 1.009250 6.317730
vt 2.408050 4.261940
vt 3.101560 3.711740
vt 3.101560 1307.739990
vt 0.532143 1307.739990
vt 1.318650 30.177401
vt 1.318650 8.523870
vt 18.366400 8.523870
vt 18.366400 30.177401
vt 18.075899 6.317730
vt 1.609090 6.317730
vt 2.460630 4.261940
vt 3.815230 2.496580
vt 5.580580 1.141980
vt 7.636380 0.290444
vt 9.842520 -0.000000
vt 12.048700 0.290444
vt 14.104500 1.141980
vt 15.869800 2.496580
vt 17.224400 4.261940
vt 14.763800 8.623070
vt 15.142300 8.623070
vt 14.763800 10.848200
vt 14.763800 10.529000
vt 16.252001 10.529000
vt 15.142300 12.754200
vt 14.763800 12.754200
vt 14.763800 11.641600
vt 17.517700 11.641600
vt 16.802200 13.173300
vt 16.252001 13.866800
vt 14.763800 13.866800
vt 14.763800 11.885000
vt 18.639500 11.885000
vt 18.366400 12.716100
vt 17.517700 14.110200
vt 14.763800 14.110200
vt 14.763800 11.242700
vt 19.394600 11.242700
vt 19.349701 11.612100
vt 18.639500 13.467800
vt 14.763800 13.467800
vt 14.763800 9.758320
vt 19.684999 9.758320
vt 19.394600 11.983500
vt 14.763800 11.983500
vt -14.763800 -7.533140
vt -19.394600 -7.533140
vt -19.684999 -9.758320
vt -14.763800 -9.758320
vt -14.763800 -4.718770
vt -18.639500 -4.718770
vt -19.349701 -6.574540
vt -19.394600 -6.943950
vt -14.763800 -6.943950
vt -14.763800 -1.507000
vt -17.517700 -1.507000
vt -18.366400 -2.901120
vt -18.639500 -3.732180
vt -14.763800 -3.732180
vt -14.763800 1.883280
vt -16.252001 1.883280
vt -16.802200 1.189780
vt -17.517700 -0.341893
vt -14.763800 -0.341893
vt -14.763800 5.221050
vt -15.142300 5.221050
vt -16.252001 2.995870
vt -14.763800 2.995870
vt -14.763800 6.053650
vt -14.763800 8.278830
vt -15.142300 6.053650
vt 4.042030 30.177401
vt 6.611440 30.177401
vt 6.611440 1307.739990
vt 4.042030 1307.739990
vt 7.188900 30.177401
vt 9.758320 30.177401
vt 9.758320 1307.739990
vt 7.188900 1307.739990
vt 9.758320 30.177401
vt 12.327700 30.177401
vt 12.327700 1307.739990
vt 9.758320 1307.739990
vn 0.8660 -0.5000 -0.0000
vn 0.9659 -0.2588 -0.0000
vn -0.0000 0.0000 -1.0000
vn 0.0000 1.0000 0.0000
vn 0.7071 -0.7071 -0.0000
vn 0.7934 -0.6088 -0.0000
vn 0.5000 -0.8660 -0.0000
vn 0.6088 -0.7934 -0.0000
vn 0.2588 -0.9659 -0.0000
vn 0.3827 -0.9239 -0.0000
vn 0.0000 -1.0000 -0.0000
vn 0.1305 -0.9914 -0.0000
vn -0.2588 -0.9659 -0.0000
vn -0.1305 -0.9914 -0.0000
vn -0.5000 -0.8660 -0.0000
vn -0.3827 -0.9239 -0.0000
vn -0.7071 -0.7071 -0.0000
vn -0.6088 -0.7934 -0.0000
vn -0.8660 -0.5000 -0.0000
vn -0.7934 -0.6088 -0.0000
vn -0.9659 0.0000 -0.2588
vn -0.9914 0.0000 -0.1305
vn -0.8660 0.0000 -0.5000
vn -0.7071 0.0000 -0.7071
vn -0.7933 0.0000 -0.6088
vn -0.5000 0.0000 -0.8660
vn -0.6088 0.0000 -0.7933
vn -0.2588 0.0000 -0.9659
vn -0.3827 0.0000 -0.9239
vn 0.2588 0.0000 -0.9659
vn 0.5000 0.0000 -0.8660
vn 0.3827 0.0000 -0.9239
vn 0.7071 0.0000 -0.7071
vn 0.6088 0.0000 -0.7933
vn 0.8660 0.0000 -0.5000
vn 0.7933 0.0000 -0.6088
vn 0.9659 0.0000 -0.2588
vn 0.9914 0.0000 -0.1305
vn 0.0000 0.0000 1.0000
vn -1.0000 0.0000 0.0000
vn -0.9659 -0.2588 -0.0000
vn -0.9659 0.2588 0.0000
vn -0.8660 0.5000 0.0000
vn -0.7071 0.7071 0.0000
vn -0.7934 0.6088 0.0000
vn -0.5000 0.8660 0.0000
vn -0.6088 0.7934 0.0000
vn -0.2588 0.9659 0.0000
vn -0.3827 0.9239 0.0000
vn -0.1305 0.9914 0.0000
vn 0.2588 0.9659 0.0000
vn 0.1305 0.9914 0.0000
vn 0.5000 0.8660 0.0000
vn 0.3827 0.9239 0.0000
vn 0.7071 0.7071 0.0000
vn 0.6088 0.7934 0.0000
vn 0.8660 0.5000 0.0000
vn 0.7934 0.6088 0.0000
vn 0.9659 0.2588 0.0000
vn 1.0000 0.0000 0.0000
usemtl FrontColor
s 1
f 1/1/1 2/2/2 3/3/2 4/4/1
f 2/5/3 1/6/3 5/7/3 6/8/3 7/9/3 8/10/3 9/11/3 10/12/3 11/13/3 12/14/3
f 1/15/4 13/16/4 14/17/4 5/18/4
f 15/19/5 16/20/5 17/21/6 18/22/6 13/23/6 1/24/1 4/25/1
f 19/26/7 20/27/7 21/28/8 16/29/5 15/30/5
f 22/31/9 23/32/9 24/33/10 20/34/7 19/35/7
f 25/36/11 26/37/11 27/38/12 23/39/9 22/40/9
f 28/41/13 29/42/13 30/43/14 26/37/11 25/36/11
f 31/44/15 32/45/15 33/46/16 29/47/13 28/48/13
f 34/49/17 35/50/17 36/51/18 32/52/15 31/53/15
f 5/54/19 14/55/20 37/56/20 38/57/20 35/58/17 34/59/17 39/60/19
f 40/61/21 37/62/21 14/63/22
f 41/64/23 38/65/23 37/66/21 40/67/21
f 42/68/24 36/69/24 35/70/25 38/71/23 41/72/23
f 43/73/26 33/74/26 32/75/27 36/76/24 42/77/24
f 44/78/28 30/79/28 29/80/29 33/81/26 43/82/26
f 45/83/3 26/84/3 30/85/28 44/86/28
f 46/87/30 27/88/30 26/89/3 45/90/3
f 47/91/31 24/92/31 23/93/32 27/94/30 46/95/30
f 48/96/33 21/97/33 20/98/34 24/99/31 47/100/31
f 49/101/35 17/102/35 16/103/36 21/104/33 48/105/33
f 50/106/37 18/107/37 17/108/35 49/109/35
f 50/110/37 13/111/38 18/112/37
f 40/113/4 14/17/4 13/16/4 50/114/4 49/115/4 48/116/4 47/117/4 46/118/4 45/119/4 44/120/4 43/121/4 42/122/4 41/123/4
f 51/124/39 52/125/39 39/126/39 34/127/39 31/128/39 28/129/39 25/130/39 22/131/39 19/132/39 15/133/39 4/134/39 3/135/39 53/136/39 54/137/39 55/138/39 56/139/39 57/140/39 58/141/39 59/142/39 60/143/39 61/144/39 62/145/39 63/146/39 64/147/39
f 7/148/40 6/149/41 52/150/41 51/151/40
f 6/152/41 5/153/19 39/154/19 52/155/41
f 8/156/42 7/148/40 51/151/40 64/157/42
f 9/158/43 8/159/42 64/160/42 63/161/43
f 62/162/44 65/163/44 66/164/45 67/165/45 68/166/45 9/167/43 63/168/43
f 61/169/46 69/170/46 70/171/47 65/172/44 62/173/44
f 60/174/48 71/175/48 72/176/49 69/177/46 61/178/46
f 59/179/4 73/180/4 74/181/50 71/182/48 60/183/48
f 58/184/51 75/185/51 76/186/52 73/187/4 59/188/4
f 57/189/53 77/190/53 78/191/54 75/192/51 58/193/51
f 56/194/55 79/195/55 80/196/56 77/197/53 57/198/53
f 10/199/57 81/200/58 82/201/58 83/202/58 79/203/55 56/204/55 55/205/57
f 9/206/11 68/207/11 81/208/11 10/209/11
f 84/210/11 81/208/11 68/207/11 85/211/11 86/212/11 87/213/11 88/214/11 89/215/11 90/216/11 91/217/11 92/218/11 93/219/11 94/220/11
f 84/221/37 82/222/37 81/223/38
f 94/224/35 83/225/35 82/226/37 84/227/37
f 93/228/33 80/229/33 79/230/36 83/231/35 94/232/35
f 92/233/31 78/234/31 77/235/34 80/236/33 93/237/33
f 91/238/30 76/239/30 75/240/32 78/241/31 92/242/31
f 90/243/3 73/244/3 76/245/30 91/246/30
f 89/247/28 74/248/28 73/249/3 90/250/3
f 88/251/26 72/252/26 71/253/29 74/254/28 89/255/28
f 87/256/24 70/257/24 69/258/27 72/259/26 88/260/26
f 86/261/23 66/262/23 65/263/25 70/264/24 87/265/24
f 85/266/21 67/267/21 66/268/23 86/269/23
f 85/270/21 68/271/22 67/272/21
f 11/273/59 10/274/57 55/275/57 54/276/59
f 12/277/60 11/278/59 54/279/59 53/280/60
f 2/281/2 12/282/60 53/283/60 3/284/2
o Mesh2_Group2_Model
v 0.724444 11.599303 -23.194099
v 0.649519 11.599303 -23.375000
v 0.530330 11.599303 -23.530300
v 0.375000 11.599304 -23.649500
v 0.194114 11.599304 -23.724400
v -0.000000 11.599304 -23.750000
v -0.194114 11.599304 -23.724400
v -0.375000 11.599304 -23.649500
v -0.530330 11.599303 -23.530300
v -0.649519 11.599303 -23.375000
v -0.724444 11.599303 -23.194099
v -0.750000 11.599303 -23.000000
v -0.724444 11.599303 -22.805901
v -0.649519 11.599303 -22.625000
v -0.530330 11.599303 -22.469700
v -0.375000 11.599303 -22.350500
v -0.194114 11.599303 -22.275600
v -0.000000 11.599303 -22.250000
v 0.194114 11.599303 -22.275600
v 0.375000 11.599303 -22.350500
v 0.530330 11.599303 -22.469700
v 0.649519 11.599303 -22.625000
v 0.724444 11.599303 -22.805901
v 0.750000 11.599303 -23.000000
v 0.724444 6.399303 -23.194099
v 0.649519 6.399303 -23.375000
v 0.750000 6.399303 -23.000000
v 0.724444 6.399303 -22.805901
v 0.649519 6.399303 -22.625000
v 0.530330 6.399303 -22.469700
v 0.375000 6.399303 -22.350500
v 0.194114 6.399303 -22.275600
v -0.000000 6.399303 -22.250000
v -0.194114 6.399303 -22.275600
v -0.375000 6.399303 -22.350500
v -0.530330 6.399303 -22.469700
v -0.649519 6.399303 -22.625000
v -0.724444 6.399303 -22.805901
v -0.750000 6.399303 -23.000000
v -0.724444 6.399303 -23.194099
v -0.649519 6.399303 -23.375000
v -0.530330 6.399303 -23.530300
v -0.375000 6.399304 -23.649500
v -0.194114 6.399304 -23.724400
v -0.000000 6.399304 -23.750000
v 0.194114 6.399304 -23.724400
v 0.375000 6.399304 -23.649500
v 0.530330 6.399303 -23.530300
vt -4.820650 1.204270
vt -4.525670 0.492126
vt -4.056420 -0.119410
vt -3.444880 -0.588658
vt -2.732730 -0.883639
vt -1.968500 -0.984252
vt -1.204270 -0.883639
vt -0.492126 -0.588658
vt 0.119410 -0.119410
vt 0.588658 0.492126
vt 0.883639 1.204270
vt 0.984252 1.968500
vt 0.883639 2.732730
vt 0.588658 3.444880
vt 0.119410 4.056420
vt -0.492126 4.525670
vt -1.204270 4.820650
vt -1.968500 4.921260
vt -2.732730 4.820650
vt -3.444880 4.525670
vt -4.056420 4.056420
vt -4.525670 3.444880
vt -4.820650 2.732730
vt -4.921260 1.968500
vt 0.000000 2.957390
vt 0.000000 2.186560
vt 20.472401 2.186560
vt 20.472401 2.957390
vt 4.525670 0.492126
vt 4.820650 1.204270
vt 4.921260 1.968500
vt 4.820650 2.732730
vt 4.525670 3.444880
vt 4.056420 4.056420
vt 3.444880 4.525670
vt 2.732730 4.820650
vt 1.968500 4.921260
vt 1.204270 4.820650
vt 0.492126 4.525670
vt -0.119410 4.056420
vt -0.588658 3.444880
vt -0.883639 2.732730
vt -0.984252 1.968500
vt -0.883639 1.204270
vt -0.588658 0.492126
vt -0.119410 -0.119410
vt 0.492126 -0.588658
vt 1.204270 -0.883639
vt 1.968500 -0.984252
vt 2.732730 -0.883639
vt 3.444880 -0.588658
vt 4.056420 -0.119410
vt 0.000000 2.594020
vt 0.000000 1.823190
vt 20.472401 1.823190
vt 20.472401 2.594020
vt -0.000000 2.080130
vt -0.000000 1.309310
vt 20.472401 1.309310
vt 20.472401 2.080130
vt -0.000000 1.450760
vt -0.000000 0.679935
vt 20.472401 0.679935
vt 20.472401 1.450760
vt -0.000000 0.748782
vt -0.000000 -0.022042
vt 20.472401 -0.022042
vt 20.472401 0.748782
vt -0.000000 0.022042
vt -0.000000 -0.748782
vt 20.472401 -0.748782
vt 20.472401 0.022042
vt -0.000000 -0.679935
vt -0.000000 -1.450760
vt 20.472401 -1.450760
vt 20.472401 -0.679935
vt 0.000000 -1.309310
vt 0.000000 -2.080130
vt 20.472401 -2.080130
vt 20.472401 -1.309310
vt -0.000000 1.823190
vt -0.000000 2.594020
vt -20.472401 2.594020
vt -20.472401 1.823190
vt 0.000000 2.186560
vt 0.000000 2.957390
vt -20.472401 2.957390
vt -20.472401 2.186560
vt -0.000000 2.374660
vt 0.000000 3.145480
vt -20.472401 3.145480
vt -20.472401 2.374660
vt 0.000000 2.374660
vt 0.000000 3.145480
vt -20.472401 3.145480
vt -20.472401 2.374660
vt 0.000000 2.186560
vt 0.000000 2.957390
vt -20.472401 2.957390
vt -20.472401 2.186560
vt 0.000000 1.823190
vt 0.000000 2.594020
vt -20.472401 2.594020
vt -20.472401 1.823190
vt -0.000000 1.309310
vt -0.000000 2.080130
vt -20.472401 2.080130
vt -20.472401 1.309310
vt -0.000000 0.679935
vt -0.000000 1.450760
vt -20.472401 1.450760
vt -20.472401 0.679935
vt -0.000000 -0.022042
vt -0.000000 0.748782
vt -20.472401 0.748782
vt -20.472401 -0.022042
vt -0.000000 -0.748782
vt 0.000000 0.022042
vt -20.472401 0.022042
vt -20.472401 -0.748782
vt -0.000000 -1.450760
vt -0.000000 -0.679935
vt -20.472401 -0.679935
vt -20.472401 -1.450760
vt -0.000000 -2.080130
vt -0.000000 -1.309310
vt -20.472401 -1.309310
vt -20.472401 -2.080130
vt -0.000000 2.594020
vt -0.000000 1.823190
vt 20.472401 1.823190
vt 20.472401 2.594020
vt 0.000000 2.957390
vt 0.000000 2.186560
vt 20.472401 2.186560
vt 20.472401 2.957390
vt 0.000000 3.145480
vt 0.000000 2.374660
vt 20.472401 2.374660
vt 20.472401 3.145480
vt 0.000000 3.145480
vt 0.000000 2.374660
vt 20.472401 2.374660
vt 20.472401 3.145480
vn 0.0000 1.0000 0.0000
vn 0.9659 0.0000 -0.2588
vn 0.8660 0.0000 -0.5000
vn 0.0000 -1.0000 -0.0000
vn 1.0000 0.0000 -0.0000
vn 0.9659 0.0000 0.2588
vn 0.8660 0.0000 0.5000
vn 0.7071 0.0000 0.7071
vn 0.5000 0.0000 0.8660
vn 0.2589 0.0000 0.9659
vn 0.0000 0.0000 1.0000
vn -0.2589 0.0000 0.9659
vn -0.5000 0.0000 0.8660
vn -0.7071 0.0000 0.7071
vn -0.8660 0.0000 0.5000
vn -0.9659 0.0000 0.2588
vn -1.0000 0.0000 -0.0000
vn -0.9659 0.0000 -0.2588
vn -0.8660 0.0000 -0.5000
vn -0.7071 0.0000 -0.7071
vn -0.5000 0.0000 -0.8660
vn -0.2589 0.0000 -0.9659
vn 0.0000 0.0000 -1.0000
vn 0.2589 0.0000 -0.9659
vn 0.5000 0.0000 -0.8660
vn 0.7071 0.0000 -0.7071
usemtl FrontColor
s 1
f 95/285/61 96/286/61 97/287/61 98/288/61 99/289/61 100/290/61 101/291/61 102/292/61 103/293/61 104/294/61 105/295/61 106/296/61 107/297/61 108/298/61 109/299/61 110/300/61 111/301/61 112/302/61 113/303/61 114/304/61 115/305/61 116/306/61 117/307/61 118/308/61
f 119/309/62 120/310/63 96/311/63 95/312/62
f 120/313/64 119/314/64 121/315/64 122/316/64 123/317/64 124/318/64 125/319/64 126/320/64 127/321/64 128/322/64 129/323/64 130/324/64 131/325/64 132/326/64 133/327/64 134/328/64 135/329/64 136/330/64 137/331/64 138/332/64 139/333/64 140/334/64 141/335/64 142/336/64
f 121/337/65 119/338/62 95/339/62 118/340/65
f 122/341/66 121/342/65 118/343/65 117/344/66
f 123/345/67 122/346/66 117/347/66 116/348/67
f 124/349/68 123/350/67 116/351/67 115/352/68
f 125/353/69 124/354/68 115/355/68 114/356/69
f 126/357/70 125/358/69 114/359/69 113/360/70
f 127/361/71 126/362/70 113/363/70 112/364/71
f 128/365/72 127/366/71 112/367/71 111/368/72
f 129/369/73 128/370/72 111/371/72 110/372/73
f 130/373/74 129/374/73 110/375/73 109/376/74
f 131/377/75 130/378/74 109/379/74 108/380/75
f 132/381/76 131/382/75 108/383/75 107/384/76
f 133/385/77 132/386/76 107/387/76 106/388/77
f 134/389/78 133/390/77 106/391/77 105/392/78
f 135/393/79 134/394/78 105/395/78 104/396/79
f 136/397/80 135/398/79 104/399/79 103/400/80
f 137/401/81 136/402/80 103/403/80 102/404/81
f 138/405/82 137/406/81 102/407/81 101/408/82
f 139/409/83 138/410/82 101/411/82 100/412/83
f 140/413/84 139/414/83 100/415/83 99/416/84
f 141/417/85 140/418/84 99/419/84 98/420/85
f 142/421/86 141/422/85 98/423/85 97/424/86
f 120/425/63 142/426/86 97/427/86 96/428/63
