# Blender v2.79 (sub 0) OBJ File: ''
# www.blender.org
mtllib Haptic_grasper_jaws_up_collision.mtl
o Mesh3_Component_1_1_Model
v -1.977560 8.999304 -17.687498
v -2.015060 7.749305 -17.649998
v 1.570534 10.658572 -33.494072
v 0.000000 10.750690 -33.494072
v -2.056152 8.999307 -23.885729
v 2.135501 9.909273 -33.494072
v 2.056152 8.999306 -22.114267
v 2.165060 8.999307 -25.499998
v 0.012609 8.999308 -25.458965
v -2.005717 7.749308 -24.007101
v -0.017220 7.749308 -25.334925
v 2.005716 7.749307 -21.992895
v 2.165060 8.999308 -33.494072
v 2.135501 9.909272 -25.499998
v 0.000000 10.750689 -25.499998
v 1.570534 10.658571 -25.499998
v 0.000000 10.750697 -43.000000
v 1.080940 10.782518 -42.940643
v 0.000000 7.249317 -43.000000
v 0.000000 7.249308 -25.499998
v 1.114240 7.223752 -42.904797
v 2.084243 10.141609 -41.915756
v 2.083596 7.861565 -41.916409
v 2.067399 7.808865 -25.491341
v 1.258331 7.265870 -25.499998
v 0.000000 7.249308 -33.494072
v 2.067399 7.808864 -33.485413
v 1.258331 7.265870 -33.494072
vt 0.000000 0.000000
vt -4.586860 16.732300
vt 0.000000 0.000000
vt 9.842520 78.740196
vt 9.842520 98.425201
vt -9.842520 78.740196
vt 14.763800 98.425201
vt -14.763800 78.740196
vt 2.521329 3.650722
vt 8.523870 2.947310
vt 8.523870 9.842520
vt -8.523870 16.732300
vt -4.586860 2.947310
vt 8.523870 14.763800
vt 3.589115 16.578804
vt 0.976239 14.913427
vt 14.763800 78.740196
vt 9.842520 17.615999
vt 14.763800 17.727377
vt 0.000000 0.000000
vt 0.000000 0.000000
vt 0.000000 0.000000
vt 0.000000 0.000000
vt 0.000000 0.000000
vt 0.000000 0.000000
vt -8.523870 2.947310
vt 0.000000 9.842520
vt 0.234573 6.295541
vt 0.000000 0.000000
vt 0.000000 0.000000
vt 8.523870 16.732300
vt 14.763800 53.583801
vt 14.763800 55.808998
vn -0.7031 -0.7111 0.0018
vn 0.4481 -0.8462 -0.2882
vn 0.2988 -0.9543 -0.0000
vn -0.7122 0.6211 -0.3271
vn -0.2886 0.5606 0.7761
vn 0.7249 0.6338 0.2696
vn -0.3122 -0.5330 0.7864
vn 0.7110 -0.6359 0.3000
vn 0.0095 0.0158 0.9998
vn 0.0014 0.0234 0.9997
vn -0.8479 0.5252 0.0728
vn 0.0793 -0.0075 -0.9968
vn 0.0608 -0.0018 -0.9981
vn 0.0849 -0.0092 -0.9963
vn -0.7485 -0.6628 0.0204
vn 0.2501 -0.7679 0.5898
vn 0.7937 -0.5978 0.1127
vn -0.6910 -0.6166 -0.3772
vn 0.8724 0.3892 -0.2956
vn 0.8732 -0.3900 -0.2922
vn 0.8620 -0.5070 -0.0008
vn 0.9448 0.3277 0.0033
vn 0.9997 -0.0236 -0.0013
vn -0.7339 -0.6792 -0.0000
vn -0.6874 0.7262 0.0039
vn -0.7293 0.6841 0.0000
vn 0.9990 -0.0436 0.0106
vn 0.9430 0.3328 0.0000
vn 0.4721 0.8815 0.0000
vn -0.7523 -0.6588 0.0000
vn 0.4716 0.8817 0.0106
vn 0.4415 0.8486 -0.2915
vn -0.6944 0.7196 0.0000
vn 0.0136 0.7030 0.7111
vn 0.0167 0.0061 0.9998
vn 0.0548 0.0000 -0.9985
vn 0.0041 -0.3134 0.9496
usemtl FrontColor.001
s 1
f 26/1/1 21/2/2 28/3/3
f 5/4/4 1/5/5 7/6/6
f 5/4/4 2/7/7 1/5/5
f 12/8/8 1/5/5 2/7/7
f 16/9/9 15/10/10 9/11/11
f 19/12/12 18/13/13 21/2/14
f 11/14/15 25/15/16 24/16/17
f 10/17/18 9/18/11 11/19/15
f 21/2/2 22/20/19 23/21/20
f 28/3/3 23/21/20 27/22/21
f 22/20/19 6/23/22 13/24/23
f 19/12/24 4/25/25 17/26/26
f 8/27/27 6/23/28 14/28/28
f 14/28/28 3/29/29 16/9/29
f 27/22/21 8/27/27 24/30/17
f 27/22/21 25/15/16 28/3/3
f 25/15/16 26/1/1 28/3/3
f 20/31/30 11/14/15 26/1/1
f 26/1/1 11/19/15 9/18/11
f 24/30/17 7/6/6 12/8/8
f 11/32/15 24/16/17 12/8/8
f 3/29/31 22/20/19 18/13/32
f 4/25/25 18/13/32 17/26/26
f 16/9/29 4/25/25 15/10/33
f 26/1/1 19/12/24 21/2/2
f 8/27/34 9/18/11 7/6/6
f 9/18/11 5/4/4 7/6/6
f 5/4/4 10/17/18 2/7/7
f 12/8/8 7/6/6 1/5/5
f 8/27/34 14/28/35 9/11/11
f 14/28/35 16/9/9 9/11/11
f 19/12/12 17/26/36 18/13/13
f 11/14/15 20/31/37 25/15/16
f 10/17/18 5/4/4 9/18/11
f 21/2/2 18/13/32 22/20/19
f 28/3/3 21/2/2 23/21/20
f 13/24/23 27/22/21 23/21/20
f 23/21/20 22/20/19 13/24/23
f 19/12/24 26/1/1 4/25/25
f 8/27/27 13/24/23 6/23/28
f 14/28/28 6/23/28 3/29/29
f 27/22/21 13/24/23 8/27/27
f 27/22/21 24/16/17 25/15/16
f 25/15/16 20/31/30 26/1/1
f 9/18/11 15/10/33 4/25/25
f 4/25/25 26/1/1 9/18/11
f 24/30/17 8/27/27 7/6/6
f 2/7/7 10/33/18 12/8/8
f 10/33/18 11/32/15 12/8/8
f 3/29/31 6/23/22 22/20/19
f 4/25/25 3/29/31 18/13/32
f 16/9/29 3/29/29 4/25/25
