# Blender v2.78 (sub 0) OBJ File: ''
# www.blender.org
mtllib floor2b.mtl
o Plane
v 0.000000 2.000000 0.000000
v -75.000000 52.000023 -74.999985
v -75.000000 51.999977 75.000015
v 75.000000 51.999977 75.000015
v 75.000000 52.000023 -74.999985
vt 0.5000 0.5000
vt 0.0001 0.9999
vt 0.0001 0.0001
vt 0.9999 0.0001
vt 0.9999 0.9999
vn 0.7071 0.7071 -0.0000
vn -0.0000 0.7071 -0.7071
vn -0.7071 0.7071 -0.0000
vn 0.5773 0.5774 0.5773
vn 0.5774 0.5773 0.5773
vn 0.5773 0.5774 0.5774
usemtl None
s 1
f 1/1/1 2/2/1 3/3/1
f 1/1/2 3/3/2 4/4/2
f 1/1/3 4/4/3 5/5/3
f 1/1/4 5/5/5 2/2/6
