# Blender v2.79 (sub 0) OBJ File: ''
# www.blender.org
mtllib kidney.mtl
o reims_Default.002
v -0.033762 1.073788 -0.007780
v -0.029121 1.076249 -0.006709
v -0.029146 1.081991 -0.005564
v -0.033812 1.084452 -0.005491
v -0.038451 1.081991 -0.006562
v -0.038426 1.076249 -0.007702
v -0.039194 1.096758 -0.029145
v -0.038016 1.092655 -0.038041
v -0.033325 1.105780 -0.033889
v -0.035708 1.097577 -0.049064
v -0.032172 1.118905 -0.042989
v -0.045322 1.082812 -0.041143
v -0.034427 1.116446 -0.052193
v -0.039400 1.126288 -0.047321
v -0.042605 1.116446 -0.059780
v -0.045938 1.126288 -0.052756
v -0.051937 1.121366 -0.060496
v -0.056139 1.126288 -0.053474
v -0.071060 1.112344 -0.050450
v -0.049757 1.099219 -0.060240
v -0.055167 1.083633 -0.054243
v -0.064651 1.105780 -0.060702
v -0.071522 1.090195 -0.056139
v -0.079365 1.098398 -0.044475
v -0.057166 1.071327 -0.048526
v -0.073265 1.074609 -0.049245
v -0.083261 1.080351 -0.037298
v -0.044604 1.061484 -0.030172
v -0.043707 1.077889 -0.031812
v -0.057679 1.054101 -0.033889
v -0.041246 1.070508 -0.018072
v -0.043682 1.083633 -0.023429
v -0.048577 1.054101 -0.019597
v -0.047271 1.059844 -0.012503
v -0.058754 1.054101 -0.011331
v -0.057370 1.050820 -0.021596
v -0.067061 1.051639 -0.021495
v -0.071366 1.054101 -0.014292
v -0.071931 1.054922 -0.032581
v -0.080544 1.063124 -0.023994
v -0.081211 1.089374 -0.019496
v -0.078032 1.070508 -0.009588
v -0.076957 1.104961 -0.028043
v -0.068855 1.093476 -0.010176
v -0.066753 1.121366 -0.037325
v -0.071366 1.060663 -0.007005
v -0.066137 1.077070 -0.002937
v -0.062651 1.062303 -0.003842
v -0.052116 1.065585 -0.006837
v -0.049167 1.076249 -0.006774
v -0.051757 1.091835 -0.012234
v -0.044398 1.091835 -0.023685
v -0.066035 1.106601 -0.019597
v -0.050423 1.104139 -0.020968
v -0.040681 1.118086 -0.029685
v -0.055627 1.123008 -0.031016
v -0.039272 1.125469 -0.039862
v -0.047603 1.128749 -0.039297
v -0.054602 1.128749 -0.045553
v -0.037426 1.080351 -0.020162
v -0.036964 1.086094 -0.019187
v -0.039990 1.088553 -0.023956
v -0.040681 1.081991 -0.024866
v -0.032351 1.089374 -0.021686
v -0.035839 1.091835 -0.027711
v -0.027865 1.086913 -0.024738
v -0.033531 1.089374 -0.032094
v -0.028327 1.080351 -0.024456
v -0.034196 1.082812 -0.032991
v -0.033121 1.077889 -0.023763
v -0.037223 1.080351 -0.029248
v 0.027659 1.083633 -0.014202
v 0.027172 1.078711 -0.016560
v 0.031532 1.076249 -0.018675
v 0.032504 1.086094 -0.013946
v 0.036861 1.083633 -0.016048
v 0.036349 1.078711 -0.018419
v 0.036735 1.103320 -0.034402
v 0.031120 1.113163 -0.036298
v 0.034505 1.101678 -0.043835
v 0.031632 1.109062 -0.053062
v 0.030120 1.127928 -0.041861
v 0.040837 1.092655 -0.049860
v 0.031429 1.127928 -0.051500
v 0.037479 1.136133 -0.045015
v 0.038913 1.129570 -0.059574
v 0.043527 1.136952 -0.050885
v 0.048500 1.134491 -0.060087
v 0.053577 1.136952 -0.052550
v 0.067727 1.122187 -0.054345
v 0.044757 1.113163 -0.064959
v 0.049577 1.095937 -0.063317
v 0.059984 1.118905 -0.065215
v 0.066137 1.101678 -0.065265
v 0.075468 1.106601 -0.052909
v 0.051167 1.082812 -0.060908
v 0.067265 1.084452 -0.062601
v 0.039503 1.068866 -0.044373
v 0.039656 1.085273 -0.041886
v 0.037861 1.075428 -0.030069
v 0.040734 1.088553 -0.032478
v 0.051654 1.062303 -0.051063
v 0.043835 1.059844 -0.036195
v 0.043527 1.063124 -0.027967
v 0.054705 1.056562 -0.029248
v 0.052166 1.055741 -0.039937
v 0.061830 1.056562 -0.040580
v 0.067009 1.057383 -0.033324
v 0.066035 1.062303 -0.050885
v 0.075879 1.067226 -0.041655
v 0.078698 1.087734 -0.050500
v 0.078800 1.091835 -0.030991
v 0.075111 1.071327 -0.025687
v 0.075006 1.109062 -0.035120
v 0.067624 1.094297 -0.019853
v 0.065216 1.127928 -0.039143
v 0.068034 1.061484 -0.024866
v 0.064342 1.076249 -0.016508
v 0.059781 1.062303 -0.020496
v 0.049243 1.067226 -0.021583
v 0.047090 1.077889 -0.018650
v 0.050320 1.093476 -0.020496
v 0.042015 1.096758 -0.030760
v 0.064907 1.109062 -0.025531
v 0.049090 1.107422 -0.025943
v 0.039734 1.124648 -0.029889
v 0.054808 1.128749 -0.031504
v 0.037939 1.133672 -0.037938
v 0.046500 1.136133 -0.037400
v 0.052910 1.137773 -0.044141
v 0.034581 1.085273 -0.029479
v 0.034606 1.091014 -0.027096
v 0.037376 1.093476 -0.031453
v 0.037529 1.088553 -0.033864
v 0.030017 1.094297 -0.028352
v 0.033172 1.098398 -0.033837
v 0.025122 1.092655 -0.031403
v 0.030301 1.096758 -0.038528
v 0.025148 1.086913 -0.032684
v 0.030454 1.091014 -0.040912
v 0.029814 1.084452 -0.033068
v 0.033581 1.087734 -0.038247
vt 0.580100 -0.404500
vt 0.592800 -0.397000
vt 0.592800 -0.382300
vt 0.580100 -0.375500
vt 0.567400 -0.382800
vt 0.567400 -0.397200
vt 0.303700 -0.097200
vt 0.325700 -0.099200
vt 0.306400 -0.067400
vt 0.341600 -0.082600
vt 0.330300 -0.038100
vt 0.345700 -0.124800
vt 0.349100 -0.047500
vt 0.355000 -0.022700
vt 0.369900 -0.051900
vt 0.375700 -0.027400
vt 0.387700 -0.047100
vt 0.410400 -0.039200
vt 0.436300 -0.071300
vt 0.375500 -0.085200
vt 0.378900 -0.117200
vt 0.408200 -0.078800
vt 0.409400 -0.112100
vt 0.435800 -0.109800
vt 0.375700 -0.143600
vt 0.405300 -0.143200
vt 0.434100 -0.151900
vt 0.347200 -0.179600
vt 0.332000 -0.145000
vt 0.373300 -0.183800
vt 0.314900 -0.184000
vt 0.310800 -0.145800
vt 0.352100 -0.202900
vt 0.337600 -0.213600
vt 0.366500 -0.226100
vt 0.369600 -0.204200
vt 0.387000 -0.206500
vt 0.407000 -0.218500
vt 0.402800 -0.187300
vt 0.433800 -0.195800
vt 0.462900 -0.150100
vt 0.467800 -0.185300
vt 0.467800 -0.117600
vt 0.491000 -0.148900
vt 0.464600 -0.218300
vt 0.476800 -0.080400
vt 0.470900 -0.039500
vt 0.483200 -0.201300
vt 0.503900 -0.219500
vt 0.495100 -0.176600
vt 0.498300 -0.199200
vt 0.529800 -0.208900
vt 0.517600 -0.195700
vt 0.525900 -0.177100
vt 0.548800 -0.184900
vt 0.523900 -0.147700
vt 0.551300 -0.156000
vt 0.545900 -0.136700
vt 0.494600 -0.121500
vt 0.525900 -0.118800
vt 0.556200 -0.117600
vt 0.559600 -0.091400
vt 0.532200 -0.080800
vt 0.549300 -0.054900
vt 0.500500 -0.080400
vt 0.525900 -0.056700
vt 0.524400 -0.039500
vt 0.508800 -0.059500
vt 0.504400 -0.030200
vt 0.491700 -0.052700
vt 0.589400 -0.509800
vt 0.575200 -0.478000
vt 0.577600 -0.511700
vt 0.589400 -0.471400
vt 0.602100 -0.509300
vt 0.585400 -0.446300
vt 0.573700 -0.460400
vt 0.565400 -0.455300
vt 0.571300 -0.423600
vt 0.600600 -0.415300
vt 0.604500 -0.462400
vt 0.614700 -0.510300
vt 0.605000 -0.434300
vt 0.618700 -0.459700
vt 0.627900 -0.511200
vt 0.621100 -0.433300
vt 0.625500 -0.412400
vt 0.631300 -0.465600
vt 0.640600 -0.511200
vt 0.635300 -0.438700
vt 0.654800 -0.413100
vt 0.660200 -0.437700
vt 0.643100 -0.468300
vt 0.653800 -0.510700
vt 0.655300 -0.475600
vt 0.645000 -0.446800
vt 0.655300 -0.456100
vt 0.662100 -0.459200
vt 0.592800 -0.382300
vt 0.592800 -0.397000
vt 0.580100 -0.404500
vt 0.580100 -0.375500
vt 0.567400 -0.382800
vt 0.567400 -0.397200
vt 0.303700 -0.097200
vt 0.306400 -0.067400
vt 0.325700 -0.099200
vt 0.341600 -0.082600
vt 0.330300 -0.038100
vt 0.345700 -0.124800
vt 0.349100 -0.047500
vt 0.355000 -0.022700
vt 0.369900 -0.051900
vt 0.375700 -0.027400
vt 0.387700 -0.047100
vt 0.410400 -0.039200
vt 0.436300 -0.071300
vt 0.375500 -0.085200
vt 0.378900 -0.117200
vt 0.408200 -0.078800
vt 0.409400 -0.112100
vt 0.435800 -0.109800
vt 0.375700 -0.143600
vt 0.405300 -0.143200
vt 0.347200 -0.179600
vt 0.332000 -0.145000
vt 0.314900 -0.184000
vt 0.310800 -0.145800
vt 0.373300 -0.183800
vt 0.352100 -0.202900
vt 0.337600 -0.213600
vt 0.366500 -0.226100
vt 0.369600 -0.204200
vt 0.387000 -0.206500
vt 0.407000 -0.218500
vt 0.402800 -0.187300
vt 0.433800 -0.195800
vt 0.434100 -0.151900
vt 0.462900 -0.150100
vt 0.467800 -0.185300
vt 0.467800 -0.117600
vt 0.491000 -0.148900
vt 0.464600 -0.218300
vt 0.476800 -0.080400
vt 0.470900 -0.039500
vt 0.483200 -0.201300
vt 0.503900 -0.219500
vt 0.495100 -0.176600
vt 0.498300 -0.199200
vt 0.529800 -0.208900
vt 0.517600 -0.195700
vt 0.525900 -0.177100
vt 0.548800 -0.184900
vt 0.523900 -0.147700
vt 0.551300 -0.156000
vt 0.545900 -0.136700
vt 0.494600 -0.121500
vt 0.525900 -0.118800
vt 0.556200 -0.117600
vt 0.559600 -0.091400
vt 0.532200 -0.080800
vt 0.549300 -0.054900
vt 0.500500 -0.080400
vt 0.525900 -0.056700
vt 0.524400 -0.039500
vt 0.508800 -0.059500
vt 0.504400 -0.030200
vt 0.491700 -0.052700
vt 0.589400 -0.509800
vt 0.577600 -0.511700
vt 0.575200 -0.478000
vt 0.589400 -0.471400
vt 0.602100 -0.509300
vt 0.585400 -0.446300
vt 0.573700 -0.460400
vt 0.565400 -0.455300
vt 0.571300 -0.423600
vt 0.600600 -0.415300
vt 0.604500 -0.462400
vt 0.614700 -0.510300
vt 0.605000 -0.434300
vt 0.618700 -0.459700
vt 0.627900 -0.511200
vt 0.621100 -0.433300
vt 0.625500 -0.412400
vt 0.631300 -0.465600
vt 0.640600 -0.511200
vt 0.635300 -0.438700
vt 0.654800 -0.413100
vt 0.660200 -0.437700
vt 0.643100 -0.468300
vt 0.653800 -0.510700
vt 0.655300 -0.475600
vt 0.645000 -0.446800
vt 0.655300 -0.456100
vt 0.662100 -0.459200
vn 0.1005 -0.9349 0.3403
vn 0.9405 -0.3326 0.0697
vn 0.7322 0.4902 0.4729
vn -0.1878 0.7453 0.6397
vn -0.9004 0.2397 0.3632
vn -0.7817 -0.6163 -0.0953
vn 0.7606 0.1585 0.6296
vn 0.9344 -0.2875 -0.2103
vn 0.8904 -0.0514 0.4522
vn 0.7973 -0.3700 -0.4769
vn 0.9731 0.2103 0.0944
vn 0.7223 -0.4446 -0.5298
vn 0.8318 0.1396 -0.5372
vn 0.5501 0.7622 -0.3412
vn 0.5314 0.1019 -0.8410
vn 0.2296 0.8673 -0.4416
vn -0.1953 0.3490 -0.9166
vn -0.5271 0.7501 -0.3994
vn -0.7795 0.5092 -0.3648
vn 0.2112 -0.2434 -0.9466
vn 0.3058 -0.4849 -0.8194
vn -0.4598 0.1193 -0.8800
vn -0.4818 -0.1959 -0.8541
vn -0.9298 0.2304 -0.2870
vn 0.3967 -0.5111 -0.7625
vn -0.3683 -0.5128 -0.7755
vn -0.9425 -0.1573 -0.2948
vn 0.7932 -0.4180 -0.4428
vn 0.9263 -0.3204 -0.1985
vn 0.1449 -0.7785 -0.6107
vn 0.9730 -0.0086 0.2308
vn 0.8934 0.1519 0.4227
vn 0.6731 -0.7388 0.0344
vn 0.6388 -0.4210 0.6440
vn 0.1027 -0.8211 0.5615
vn 0.1314 -0.9913 0.0063
vn -0.1562 -0.9874 -0.0256
vn -0.6314 -0.7181 0.2927
vn -0.5897 -0.6733 -0.4460
vn -0.9493 -0.3080 0.0634
vn -0.9405 0.1867 0.2839
vn -0.7974 -0.0220 0.6031
vn -0.8069 0.5268 0.2671
vn -0.3743 0.4539 0.8086
vn -0.6516 0.7333 0.1943
vn -0.4075 -0.4094 0.8163
vn -0.0893 0.2001 0.9757
vn 0.1470 -0.2933 0.9447
vn 0.4447 -0.2491 0.8604
vn 0.5293 0.1134 0.8408
vn 0.4826 0.4240 0.7664
vn 0.7119 0.2146 0.6686
vn -0.1353 0.6057 0.7841
vn 0.4805 0.2953 0.8258
vn 0.3972 0.4743 0.7857
vn -0.1425 0.7449 0.6518
vn 0.5603 0.7348 0.3824
vn 0.1401 0.9355 0.3243
vn -0.2660 0.9614 0.0700
vn -0.9363 -0.3503 0.0238
vn -0.6716 0.6809 0.2920
vn -0.1227 0.3474 0.9297
vn -0.2928 -0.7381 0.6078
vn 0.2164 0.9316 0.2922
vn 0.3348 0.8778 0.3425
vn 0.9456 0.3091 -0.1014
vn 0.8195 0.4383 -0.3693
vn 0.7543 -0.5990 -0.2686
vn 0.6096 -0.4564 -0.6481
vn -0.1411 -0.9411 -0.3073
vn -0.0637 -0.9969 -0.0454
vn -0.6581 0.4045 0.6350
vn -0.9469 -0.3132 0.0731
vn -0.1089 -0.9894 0.0962
vn 0.2457 0.5692 0.7846
vn 0.9436 0.1027 0.3147
vn 0.7087 -0.6269 -0.3236
vn -0.6922 0.0410 0.7206
vn -0.8455 -0.1176 0.5208
vn -0.9659 -0.1866 -0.1795
vn -0.8563 -0.2068 -0.4733
vn -0.9454 0.2280 0.2330
vn -0.7935 -0.2659 -0.5474
vn -0.8639 0.3056 -0.4005
vn -0.5226 0.8472 -0.0957
vn -0.5986 0.3323 -0.7288
vn -0.2227 0.9571 -0.1856
vn 0.1378 0.5632 -0.8147
vn 0.5382 0.8034 -0.2547
vn 0.7825 0.5441 -0.3027
vn -0.3077 0.0052 -0.9515
vn -0.4110 -0.2561 -0.8749
vn 0.3957 0.3067 -0.8657
vn 0.3891 -0.0041 -0.9212
vn 0.9150 0.2491 -0.3174
vn -0.5047 -0.2844 -0.8151
vn 0.2668 -0.3283 -0.9061
vn -0.8559 -0.2591 -0.4476
vn -0.9620 -0.2136 -0.1704
vn -0.9483 -0.0172 0.3169
vn -0.8467 0.0892 0.5245
vn -0.2546 -0.6002 -0.7582
vn -0.7243 -0.6861 -0.0684
vn -0.6205 -0.5292 0.5787
vn -0.1054 -0.9332 0.3435
vn -0.2263 -0.9493 -0.2181
vn 0.1279 -0.9526 -0.2759
vn 0.5964 -0.8013 0.0470
vn 0.5067 -0.5772 -0.6404
vn 0.9262 -0.3610 -0.1084
vn 0.9012 -0.1263 -0.4147
vn 0.9722 0.0647 0.2250
vn 0.8400 -0.2075 0.5013
vn 0.8628 0.4056 0.3018
vn 0.4683 0.2234 0.8548
vn 0.7194 0.6281 0.2965
vn 0.4662 -0.6194 0.6317
vn 0.1906 -0.0477 0.9805
vn -0.0907 -0.5046 0.8586
vn -0.3965 -0.4196 0.8165
vn -0.4450 -0.0703 0.8928
vn -0.3808 0.2521 0.8896
vn -0.6320 0.0794 0.7709
vn 0.2404 0.3825 0.8921
vn -0.3838 0.1036 0.9176
vn -0.3014 0.2791 0.9118
vn 0.2557 0.5572 0.7900
vn -0.4864 0.6594 0.5732
vn -0.0615 0.8489 0.5250
vn 0.3201 0.9117 0.2577
vn 0.9007 -0.4028 -0.1625
vn 0.7364 0.5633 0.3747
vn 0.2220 0.1061 0.9693
vn 0.2242 -0.9055 0.3603
vn -0.1982 0.8361 0.5115
vn -0.2711 0.7824 0.5606
vn -0.9208 0.3830 0.0742
vn -0.8218 0.5467 -0.1605
vn -0.7924 -0.5084 -0.3372
vn -0.6880 -0.2638 -0.6760
vn 0.0523 -0.8462 -0.5303
vn -0.0032 -0.9666 -0.2561
usemtl Liver_045kidney.002
s 1
f 1/1/1 2/2/2 3/3/3
f 3/3/3 4/4/4 1/1/1
f 1/1/1 4/4/4 5/5/5
f 5/5/5 6/6/6 1/1/1
f 7/7/7 8/8/8 9/9/9
f 9/9/9 8/8/8 10/10/10
f 9/9/9 10/10/10 11/11/11
f 10/10/10 8/8/8 12/12/12
f 11/11/11 10/10/10 13/13/13
f 13/13/13 14/14/14 11/11/11
f 13/13/13 15/15/15 14/14/14
f 10/10/10 15/15/15 13/13/13
f 14/14/14 15/15/15 16/16/16
f 17/17/17 16/16/16 15/15/15
f 18/18/18 16/16/16 17/17/17
f 17/17/17 19/19/19 18/18/18
f 10/10/10 20/20/20 15/15/15
f 20/20/20 17/17/17 15/15/15
f 10/10/10 21/21/21 20/20/20
f 12/12/12 21/21/21 10/10/10
f 20/20/20 22/22/22 17/17/17
f 22/22/22 19/19/19 17/17/17
f 20/20/20 23/23/23 22/22/22
f 21/21/21 23/23/23 20/20/20
f 22/22/22 24/24/24 19/19/19
f 23/23/23 24/24/24 22/22/22
f 12/12/12 25/25/25 21/21/21
f 21/21/21 26/26/26 23/23/23
f 25/25/25 26/26/26 21/21/21
f 23/23/23 27/27/27 24/24/24
f 26/26/26 27/27/27 23/23/23
f 28/28/28 25/25/25 12/12/12
f 29/29/29 28/28/28 12/12/12
f 30/30/30 26/26/26 25/25/25
f 28/28/28 30/30/30 25/25/25
f 31/31/31 29/29/29 32/32/32
f 31/31/31 28/28/28 29/29/29
f 31/31/31 33/33/33 28/28/28
f 28/28/28 33/33/33 30/30/30
f 31/31/31 34/34/34 33/33/33
f 35/35/35 33/33/33 34/34/34
f 36/36/36 33/33/33 35/35/35
f 30/30/30 33/33/33 36/36/36
f 36/36/36 35/35/35 37/37/37
f 30/30/30 36/36/36 37/37/37
f 37/37/37 35/35/35 38/38/38
f 30/30/30 37/37/37 39/39/39
f 39/39/39 37/37/37 38/38/38
f 30/30/30 39/39/39 26/26/26
f 39/39/39 38/38/38 40/40/40
f 39/39/39 27/27/27 26/26/26
f 39/39/39 40/40/40 27/27/27
f 40/40/40 41/41/41 27/27/27
f 27/27/27 41/41/41 24/24/24
f 40/40/40 42/42/42 41/41/41
f 24/24/24 41/41/41 43/43/43
f 24/24/24 43/43/43 19/19/19
f 42/42/42 44/44/44 41/41/41
f 41/41/41 44/44/44 43/43/43
f 42/42/42 40/40/40 38/45/38
f 19/19/19 43/43/43 45/46/45
f 19/19/19 45/46/45 18/47/18
f 42/42/42 38/45/38 46/48/46
f 35/49/35 46/48/46 38/45/38
f 42/42/42 46/48/46 47/50/47
f 42/42/42 47/50/47 44/44/44
f 48/51/48 46/48/46 35/49/35
f 47/50/47 46/48/46 48/51/48
f 48/51/48 35/49/35 34/52/34
f 48/51/48 34/52/34 49/53/49
f 50/54/50 48/51/48 49/53/49
f 50/54/50 49/53/49 34/52/34
f 47/50/47 48/51/48 50/54/50
f 50/54/50 34/52/34 31/55/31
f 51/56/51 47/50/47 50/54/50
f 50/54/50 31/55/31 51/56/51
f 51/56/51 44/44/44 47/50/47
f 51/56/51 31/55/31 32/57/32
f 51/56/51 32/57/32 52/58/52
f 51/56/51 53/59/53 44/44/44
f 43/43/43 44/44/44 53/59/53
f 43/43/43 53/59/53 45/46/45
f 51/56/51 52/58/52 54/60/54
f 54/60/54 53/59/53 51/56/51
f 54/60/54 52/58/52 7/61/7
f 54/60/54 7/61/7 9/62/9
f 54/60/54 9/62/9 55/63/55
f 53/59/53 54/60/54 55/63/55
f 55/63/55 9/62/9 11/64/11
f 45/46/45 53/59/53 56/65/56
f 53/59/53 55/63/55 56/65/56
f 55/63/55 11/64/11 57/66/57
f 14/67/14 57/66/57 11/64/11
f 58/68/58 55/63/55 57/66/57
f 14/67/14 58/68/58 57/66/57
f 56/65/56 55/63/55 58/68/58
f 16/69/16 58/68/58 14/67/14
f 45/46/45 56/65/56 59/70/59
f 59/70/59 56/65/56 58/68/58
f 16/69/16 59/70/59 58/68/58
f 18/47/18 45/46/45 59/70/59
f 59/70/59 16/69/16 18/47/18
f 5/71/5 60/72/60 6/73/6
f 61/74/61 60/72/60 5/71/5
f 4/75/4 61/74/61 5/71/5
f 60/72/60 61/74/61 62/76/62
f 62/76/62 63/77/63 60/72/60
f 63/77/63 62/76/62 32/78/32
f 32/78/32 62/76/62 52/79/52
f 7/80/7 52/79/52 62/76/62
f 64/81/64 61/74/61 4/75/4
f 3/82/3 64/81/64 4/75/4
f 65/83/65 62/76/62 61/74/61
f 61/74/61 64/81/64 65/83/65
f 62/76/62 65/83/65 7/80/7
f 66/84/66 64/81/64 3/82/3
f 66/84/66 65/83/65 64/81/64
f 2/85/2 66/84/66 3/82/3
f 65/83/65 67/86/67 7/80/7
f 67/86/67 65/83/65 66/84/66
f 7/80/7 67/86/67 8/87/8
f 68/88/68 66/84/66 2/85/2
f 1/89/1 68/88/68 2/85/2
f 69/90/69 67/86/67 66/84/66
f 67/86/67 69/90/69 8/87/8
f 69/90/69 66/84/66 68/88/68
f 8/87/8 69/90/69 12/91/12
f 69/90/69 29/92/29 12/91/12
f 70/93/70 68/88/68 1/89/1
f 70/93/70 69/90/69 68/88/68
f 6/94/6 70/93/70 1/89/1
f 60/95/60 70/93/70 6/94/6
f 71/96/71 69/90/69 70/93/70
f 60/95/60 71/96/71 70/93/70
f 69/90/69 71/96/71 29/92/29
f 63/97/63 71/96/71 60/95/60
f 71/96/71 63/97/63 29/92/29
f 29/92/29 63/97/63 32/98/32
f 72/99/72 73/100/73 74/101/74
f 74/101/74 75/102/75 72/99/72
f 76/103/76 75/102/75 74/101/74
f 74/101/74 77/104/77 76/103/76
f 78/105/78 79/106/79 80/107/80
f 79/106/79 81/108/81 80/107/80
f 79/106/79 82/109/82 81/108/81
f 81/108/81 83/110/83 80/107/80
f 82/109/82 84/111/84 81/108/81
f 84/111/84 82/109/82 85/112/85
f 84/111/84 85/112/85 86/113/86
f 81/108/81 84/111/84 86/113/86
f 85/112/85 87/114/87 86/113/86
f 88/115/88 86/113/86 87/114/87
f 89/116/89 88/115/88 87/114/87
f 88/115/88 89/116/89 90/117/90
f 81/108/81 86/113/86 91/118/91
f 91/118/91 86/113/86 88/115/88
f 81/108/81 91/118/91 92/119/92
f 83/110/83 81/108/81 92/119/92
f 91/118/91 88/115/88 93/120/93
f 93/120/93 88/115/88 90/117/90
f 91/118/91 93/120/93 94/121/94
f 92/119/92 91/118/91 94/121/94
f 93/120/93 90/117/90 95/122/95
f 94/121/94 93/120/93 95/122/95
f 83/110/83 92/119/92 96/123/96
f 92/119/92 94/121/94 97/124/97
f 96/123/96 92/119/92 97/124/97
f 98/125/98 83/110/83 96/123/96
f 99/126/99 83/110/83 98/125/98
f 100/127/100 101/128/101 99/126/99
f 100/127/100 99/126/99 98/125/98
f 98/125/98 96/123/96 102/129/102
f 102/129/102 96/123/96 97/124/97
f 100/127/100 98/125/98 103/130/103
f 98/125/98 102/129/102 103/130/103
f 100/127/100 103/130/103 104/131/104
f 105/132/105 104/131/104 103/130/103
f 106/133/106 105/132/105 103/130/103
f 102/129/102 106/133/106 103/130/103
f 106/133/106 107/134/107 105/132/105
f 102/129/102 107/134/107 106/133/106
f 107/134/107 108/135/108 105/132/105
f 102/129/102 109/136/109 107/134/107
f 109/136/109 108/135/108 107/134/107
f 102/129/102 97/124/97 109/136/109
f 109/136/109 110/137/110 108/135/108
f 109/136/109 97/124/97 111/138/111
f 97/124/97 94/121/94 111/138/111
f 109/136/109 111/138/111 110/137/110
f 94/121/94 95/122/95 111/138/111
f 110/137/110 111/138/111 112/139/112
f 111/138/111 95/122/95 112/139/112
f 110/137/110 112/139/112 113/140/113
f 95/122/95 114/141/114 112/139/112
f 95/122/95 90/117/90 114/141/114
f 113/140/113 112/139/112 115/142/115
f 112/139/112 114/141/114 115/142/115
f 113/140/113 108/143/108 110/137/110
f 90/117/90 116/144/116 114/141/114
f 90/117/90 89/145/89 116/144/116
f 113/140/113 117/146/117 108/143/108
f 105/147/105 108/143/108 117/146/117
f 113/140/113 118/148/118 117/146/117
f 113/140/113 115/142/115 118/148/118
f 119/149/119 105/147/105 117/146/117
f 118/148/118 119/149/119 117/146/117
f 119/149/119 104/150/104 105/147/105
f 119/149/119 120/151/120 104/150/104
f 121/152/121 120/151/120 119/149/119
f 121/152/121 104/150/104 120/151/120
f 118/148/118 121/152/121 119/149/119
f 121/152/121 100/153/100 104/150/104
f 122/154/122 121/152/121 118/148/118
f 121/152/121 122/154/122 100/153/100
f 122/154/122 118/148/118 115/142/115
f 122/154/122 101/155/101 100/153/100
f 122/154/122 123/156/123 101/155/101
f 122/154/122 115/142/115 124/157/124
f 114/141/114 124/157/124 115/142/115
f 114/141/114 116/144/116 124/157/124
f 122/154/122 125/158/125 123/156/123
f 125/158/125 122/154/122 124/157/124
f 125/158/125 78/159/78 123/156/123
f 125/158/125 79/160/79 78/159/78
f 125/158/125 126/161/126 79/160/79
f 124/157/124 126/161/126 125/158/125
f 126/161/126 82/162/82 79/160/79
f 116/144/116 127/163/127 124/157/124
f 124/157/124 127/163/127 126/161/126
f 126/161/126 128/164/128 82/162/82
f 85/165/85 82/162/82 128/164/128
f 129/166/129 128/164/128 126/161/126
f 85/165/85 128/164/128 129/166/129
f 127/163/127 129/166/129 126/161/126
f 87/167/87 85/165/85 129/166/129
f 116/144/116 130/168/130 127/163/127
f 130/168/130 129/166/129 127/163/127
f 87/167/87 129/166/129 130/168/130
f 89/145/89 130/168/130 116/144/116
f 130/168/130 89/145/89 87/167/87
f 76/169/76 77/170/77 131/171/131
f 132/172/132 76/169/76 131/171/131
f 75/173/75 76/169/76 132/172/132
f 133/174/133 132/172/132 131/171/131
f 131/171/131 134/175/134 133/174/133
f 134/175/134 101/176/101 133/174/133
f 101/176/101 123/177/123 133/174/133
f 133/174/133 123/177/123 78/178/78
f 135/179/135 75/173/75 132/172/132
f 72/180/72 75/173/75 135/179/135
f 132/172/132 133/174/133 136/181/136
f 136/181/136 135/179/135 132/172/132
f 78/178/78 136/181/136 133/174/133
f 137/182/137 72/180/72 135/179/135
f 137/182/137 135/179/135 136/181/136
f 73/183/73 72/180/72 137/182/137
f 136/181/136 78/178/78 138/184/138
f 138/184/138 137/182/137 136/181/136
f 78/178/78 80/185/80 138/184/138
f 139/186/139 73/183/73 137/182/137
f 74/187/74 73/183/73 139/186/139
f 140/188/140 137/182/137 138/184/138
f 138/184/138 80/185/80 140/188/140
f 140/188/140 139/186/139 137/182/137
f 80/185/80 83/189/83 140/188/140
f 140/188/140 83/189/83 99/190/99
f 141/191/141 74/187/74 139/186/139
f 141/191/141 139/186/139 140/188/140
f 77/192/77 74/187/74 141/191/141
f 131/193/131 77/192/77 141/191/141
f 142/194/142 141/191/141 140/188/140
f 131/193/131 141/191/141 142/194/142
f 140/188/140 99/190/99 142/194/142
f 134/195/134 131/193/131 142/194/142
f 142/194/142 99/190/99 134/195/134
f 99/190/99 101/196/101 134/195/134
