# Blender v2.78 (sub 0) OBJ File: ''
# www.blender.org
mtllib organs_kidney_right_collision.mtl
o Kidney_right_polySurface1.006
v -4.643437 -6.802548 -2.235207
v -4.594792 -5.073133 -1.890830
v -3.759899 -6.168923 -0.925969
v -4.520162 -7.417889 -1.303154
v -5.014313 -8.809735 -1.191626
v -4.217327 -8.458503 -1.400207
v -3.867265 -9.998087 0.434975
v -3.611915 -10.467553 0.407841
v -3.830471 -8.751163 -0.160730
v -4.071966 -9.146343 -0.214684
v -5.271733 -9.042267 -0.714923
v -5.297818 -9.192673 -0.084471
v -4.319044 -9.086006 -0.287329
v -4.379739 -9.141562 -1.161406
v -4.285208 -8.669552 0.194615
v -4.140974 -8.286456 -0.051844
v -5.202978 -7.703589 -0.578832
v -5.983571 -9.554932 0.274470
v -7.126499 -8.824128 -0.136258
v -5.500487 -10.961821 0.286111
v -6.888927 -10.616301 -0.638285
v -4.945166 -7.857123 -1.052860
v -4.481854 -7.406302 -0.262824
v -5.064459 -7.027452 0.514449
v -5.676120 -7.492156 0.081895
v -5.343343 -8.378969 -3.110078
v -4.205134 -9.587561 -1.988854
v -4.702944 -10.601080 -2.481440
v -3.953423 -6.987952 -0.651028
v -7.472162 -7.087029 -2.416153
v -6.341062 -6.340195 -2.924454
v -6.974185 -8.630723 -2.988958
v -7.653224 -6.648315 -0.988059
v -7.831196 -8.144164 -1.764428
v -4.256362 -8.165881 -1.953976
v -4.047731 -5.191993 -1.103595
v -5.019749 -5.409829 0.462716
v -4.898241 -5.287207 0.699540
v -6.005884 -5.228420 0.335843
v -6.098737 -4.963968 -1.991777
v -4.230288 -5.440769 0.067579
v -5.918573 -5.075505 0.645885
v -6.176095 -4.665714 -2.130426
v -5.197964 -4.754066 -2.403775
v -4.357886 -4.905306 -2.060891
v -3.772792 -5.092058 -1.013903
v -3.842973 -4.835813 -0.405581
v -5.414000 -3.282871 0.108222
v -6.902324 -4.893528 -1.238764
v -5.740162 -2.980643 -0.529426
v -5.279423 -3.200069 -1.432641
v -4.684891 -2.900276 -1.124835
v -4.123613 -3.764148 -0.853993
v -4.807201 -2.638488 -0.298851
v -6.220139 -3.978245 0.031620
v -4.998435 -2.454734 -0.558299
v -6.747286 -5.036910 -1.049028
v -4.350486 -9.027855 0.096871
v -5.531903 -8.742123 -0.633398
v -3.505693 -9.902077 0.382220
v -3.518115 -9.900271 0.506333
v -3.456924 -10.587715 0.498330
v -4.814459 -10.048854 0.514811
v -3.867261 -9.725302 -0.091317
v -4.154273 -10.823427 0.140550
v -3.610806 -9.772345 -0.888283
v -4.528567 -8.844577 -0.660717
v -5.546988 -8.383773 0.182073
v -5.796828 -11.554477 -0.551728
v -4.407397 -11.530802 -1.551141
v -5.376868 -11.546310 -1.831104
v -6.693712 -6.959550 0.082722
v -7.750012 -9.033378 -1.208424
v -7.255120 -10.265310 -1.920831
v -6.467108 -10.759451 -2.435950
v -5.858170 -10.475447 -2.869247
v -3.663089 -10.578978 -1.488612
v -4.124712 -6.472270 0.206078
v -5.146622 -6.163106 0.708737
v -6.535233 -5.125768 -0.072354
v -5.708264 -6.129419 -2.838944
v -7.073910 -5.877977 -2.019226
v -6.709158 -4.950028 -0.014275
v -4.355376 -11.523024 -0.366889
v -3.597038 -10.835062 -0.799772
v -3.618729 -10.534401 0.641414
v -3.728810 -10.613129 0.572387
v -6.378713 -11.336530 -1.506636
vt 0.5687 0.2032
vt 0.5510 0.2053
vt 0.5640 0.1964
vt 0.5943 0.3154
vt 0.5839 0.3026
vt 0.5939 0.3064
vt 0.5880 0.2920
vt 0.5925 0.2994
vt 0.5780 0.2859
vt 0.5619 0.3050
vt 0.5583 0.3033
vt 0.5541 0.2897
vt 0.5877 0.3129
vt 0.5397 0.2930
vt 0.5424 0.2845
vt 0.5457 0.2750
vt 0.5565 0.2778
vt 0.6142 0.3065
vt 0.6062 0.3008
vt 0.6203 0.2932
vt 0.5686 0.1926
vt 0.5685 0.2345
vt 0.5640 0.2231
vt 0.5838 0.2314
vt 0.5805 0.1997
vt 0.5849 0.2151
vt 0.5353 0.2623
vt 0.5329 0.2603
vt 0.5411 0.2553
vt 0.5378 0.2531
vt 0.5274 0.2672
vt 0.5151 0.2677
vt 0.5191 0.2638
vt 0.5252 0.2415
vt 0.5022 0.2362
vt 0.4872 0.2525
vt 0.4812 0.2437
vt 0.5017 0.2476
vt 0.5092 0.2444
vt 0.5137 0.2541
vt 0.5022 0.2647
vt 0.5158 0.2404
vt 0.5143 0.2374
vt 0.4842 0.2545
vt 0.4784 0.2443
vt 0.5140 0.2707
vt 0.5665 0.3073
vt 0.5693 0.2916
vt 0.5593 0.3203
vt 0.5602 0.3200
vt 0.5592 0.3267
vt 0.5800 0.2751
vt 0.5946 0.2714
vt 0.5902 0.2803
vt 0.5638 0.3200
vt 0.5710 0.3105
vt 0.5673 0.3263
vt 0.5994 0.2795
vt 0.5938 0.2877
vt 0.5993 0.2920
vt 0.5729 0.3181
vt 0.5758 0.3135
vt 0.5766 0.3141
vt 0.5715 0.3213
vt 0.5765 0.3043
vt 0.5832 0.3136
vt 0.5490 0.2929
vt 0.5911 0.2590
vt 0.5743 0.2622
vt 0.5713 0.1966
vt 0.5574 0.2625
vt 0.5973 0.2363
vt 0.5929 0.2461
vt 0.6243 0.2803
vt 0.6360 0.2870
vt 0.6304 0.2933
vt 0.6081 0.2906
vt 0.5779 0.1960
vt 0.5351 0.2759
vt 0.5411 0.2673
vt 0.5449 0.2467
vt 0.5472 0.2386
vt 0.5613 0.2459
vt 0.5960 0.2249
vt 0.5745 0.2434
vt 0.5614 0.2159
vt 0.5474 0.2234
vt 0.5569 0.2325
vt 0.4938 0.2594
vt 0.4981 0.2670
vt 0.5421 0.2456
vt 0.5452 0.2377
vt 0.5339 0.2421
vt 0.5255 0.2350
vt 0.5800 0.2507
vt 0.5671 0.2804
vt 0.5763 0.2944
vt 0.6053 0.2845
vt 0.5613 0.3262
vt 0.5625 0.3269
vt 0.6118 0.2703
vt 0.6058 0.2750
vt 0.6015 0.2640
vt 0.6154 0.2818
vt 0.6008 0.3096
vt 0.5895 0.2045
vt 0.5955 0.2143
vt 0.5324 0.2841
vt 0.5230 0.2794
vt 0.6021 0.2543
vt 0.6011 0.2461
vt 0.6100 0.2615
vt 0.5103 0.2789
vt 0.6295 0.2790
vn 0.7719 0.0698 -0.6319
vn 0.4677 -0.4337 -0.7702
vn 0.9900 0.0089 -0.1410
vn 0.9285 -0.3540 0.1123
vn 0.8580 0.1215 0.4992
vn 0.8270 0.1050 0.5523
vn 0.3343 0.8774 0.3441
vn 0.6725 0.6771 0.2987
vn 0.4691 0.6149 0.6339
vn -0.1745 0.2631 0.9489
vn 0.5262 0.7534 0.3944
vn 0.5593 -0.3853 0.7340
vn 0.9259 0.0412 0.3755
vn 0.5077 -0.7865 0.3518
vn 0.1505 -0.4843 0.8618
vn 0.2053 -0.3963 0.8949
vn 0.3454 0.0178 -0.9383
vn 0.8419 0.1444 -0.5199
vn 0.4644 -0.3556 -0.8111
vn 0.8757 -0.4818 0.0329
vn -0.7934 0.2245 -0.5659
vn -0.2606 0.3401 -0.9036
vn -0.5058 -0.0992 -0.8569
vn 0.9349 0.1433 -0.3246
vn 0.0970 -0.4103 0.9068
vn 0.2554 -0.3616 0.8967
vn -0.4746 -0.3981 0.7850
vn -0.3556 -0.2758 0.8930
vn 0.7811 0.0375 0.6233
vn 0.8956 -0.3855 -0.2218
vn 0.9190 0.0606 0.3897
vn -0.1881 0.5137 0.8371
vn -0.6833 0.7276 0.0610
vn -0.5631 0.1045 -0.8197
vn -0.9383 -0.1826 -0.2938
vn -0.2529 0.6619 -0.7056
vn 0.5111 0.6838 -0.5208
vn 0.9161 0.3899 -0.0933
vn 0.5979 -0.2616 -0.7577
vn 0.4582 0.7028 0.5441
vn 0.0075 0.9999 0.0155
vn -0.4591 0.0215 -0.8881
vn -0.9844 -0.1616 -0.0695
vn 0.7977 -0.4863 -0.3567
vn -0.7121 -0.5045 0.4882
vn 0.6666 0.1056 0.7379
vn 0.9524 0.0626 -0.2983
vn 0.5878 0.2864 0.7566
vn 0.9914 0.0871 0.0980
vn -0.1599 0.0338 0.9866
vn -0.2278 -0.4847 0.8445
vn 0.1559 0.1440 0.9772
vn -0.8095 -0.1886 0.5560
vn 0.0846 -0.6313 -0.7709
vn -0.0425 -0.4584 -0.8877
vn 0.5409 -0.3515 0.7641
vn 0.7433 0.3151 0.5901
vn 0.9220 0.3855 -0.0361
vn 0.9221 0.2368 -0.3061
vn 0.2481 -0.8632 -0.4396
vn -0.7472 -0.5006 0.4371
vn -0.6575 -0.0958 0.7474
vn -0.5536 0.0173 0.8326
vn -0.4721 -0.6039 -0.6423
vn -0.8375 -0.4588 -0.2968
vn -0.0141 -0.8991 -0.4375
vn -0.0485 -0.4244 -0.9042
vn 0.8765 -0.1785 -0.4471
vn 0.7421 -0.1434 0.6548
vn 0.0629 0.0238 0.9977
vn -0.7843 -0.3116 0.5365
vn -0.9337 0.2530 0.2533
vn -0.9766 -0.0293 -0.2128
vn 0.2256 0.3568 -0.9065
vn -0.7338 0.5179 -0.4397
vn 0.0560 -0.1773 -0.9826
vn -0.8807 -0.1725 0.4411
vn -0.7068 0.4579 0.5392
vn -0.9619 -0.2041 0.1819
vn 0.6740 0.1695 0.7190
vn 0.5434 0.4771 0.6908
vn 0.9196 -0.3755 0.1157
vn -0.4852 0.1091 0.8676
vn -0.5601 0.0586 0.8264
vn 0.4127 -0.8363 -0.3609
vn 0.3618 -0.8548 0.3720
vn -0.3148 -0.8916 0.3255
vn -0.5368 -0.8328 -0.1354
usemtl organ_col
s 1
f 1/1/1 2/2/2 3/3/3
f 4/4/4 5/5/5 6/6/6
f 13/7/7 14/8/8 12/9/9
f 15/10/10 16/11/11 17/12/12
f 4/4/4 22/13/13 5/5/5
f 17/12/12 4/14/4 23/15/14
f 23/15/14 24/16/15 25/17/16
f 26/18/17 27/19/18 28/20/19
f 3/3/3 29/21/20 1/1/1
f 30/22/21 31/23/22 32/24/23
f 1/1/1 35/25/24 26/26/17
f 37/27/25 38/28/26 39/29/27
f 38/28/26 42/30/28 39/29/27
f 41/31/29 46/32/30 47/33/31
f 38/28/26 48/34/32 42/30/28
f 50/35/33 43/36/34 49/37/35
f 51/38/36 43/36/34 50/35/33
f 52/39/37 53/40/38 45/41/39
f 47/33/31 53/40/38 54/42/40
f 52/39/37 51/38/36 56/43/41
f 56/43/41 54/42/40 52/39/37
f 40/44/42 57/45/43 49/37/35
f 41/31/29 36/46/44 46/32/30
f 58/47/45 15/10/10 59/48/46
f 60/49/47 61/50/48 62/51/49
f 18/52/50 20/53/51 63/54/52
f 12/9/9 18/52/50 63/54/52
f 7/55/53 10/56/54 8/57/55
f 17/12/12 59/48/46 15/10/10
f 63/54/52 65/58/56 64/59/57
f 13/7/7 64/59/57 66/60/58
f 61/61/48 9/62/59 16/63/11
f 9/62/59 61/61/48 60/64/47
f 9/62/59 8/57/55 10/56/54
f 10/56/54 7/55/53 58/47/45
f 9/62/59 10/56/54 67/65/60
f 22/13/13 16/66/11 9/62/59
f 16/11/11 22/67/13 17/12/12
f 21/68/61 20/53/51 19/69/62
f 4/70/4 35/25/24 1/1/1
f 25/17/16 72/71/63 18/52/50
f 75/72/64 74/73/65 32/24/23
f 71/74/66 75/75/64 76/76/67
f 77/77/68 28/20/19 27/19/18
f 35/25/24 4/70/4 6/78/6
f 1/1/1 29/21/20 4/70/4
f 24/16/15 78/79/69 79/80/70
f 80/81/71 57/82/43 33/83/72
f 32/24/23 26/26/17 76/84/67
f 32/24/23 34/85/73 30/22/21
f 80/81/71 33/83/72 19/69/62
f 80/81/71 19/69/62 72/71/63
f 81/86/74 2/2/2 1/1/1
f 81/86/74 26/26/17 31/23/22
f 81/86/74 31/23/22 40/87/42
f 31/23/22 82/88/75 40/87/42
f 44/89/76 45/41/39 2/90/2
f 38/28/26 37/27/25 41/31/29
f 80/81/71 83/91/77 49/92/35
f 49/92/35 57/82/43 80/81/71
f 43/36/34 40/44/42 49/37/35
f 36/46/44 2/90/2 45/41/39
f 46/32/30 36/46/44 45/41/39
f 83/91/77 42/30/28 55/93/78
f 54/42/40 38/28/26 47/33/31
f 55/93/78 49/92/35 83/91/77
f 44/89/76 43/36/34 51/38/36
f 44/89/76 51/38/36 52/39/37
f 53/40/38 46/32/30 45/41/39
f 38/28/26 54/42/40 48/34/32
f 50/94/33 49/92/35 55/93/78
f 56/43/41 51/38/36 50/35/33
f 48/34/32 54/42/40 56/43/41
f 50/94/33 48/34/32 56/43/41
f 21/68/61 73/95/79 74/73/65
f 25/17/16 68/96/80 59/48/46
f 5/5/5 67/65/60 11/97/81
f 67/65/60 59/48/46 11/97/81
f 7/55/53 15/10/10 58/47/45
f 15/10/10 7/55/53 61/50/48
f 15/10/10 61/50/48 16/11/11
f 9/62/59 60/64/47 8/57/55
f 67/65/60 10/56/54 59/48/46
f 17/12/12 22/67/13 4/14/4
f 11/97/81 12/9/9 14/8/8
f 85/98/82 64/59/57 65/58/56
f 86/99/83 7/55/53 87/100/84
f 5/5/5 9/62/59 67/65/60
f 70/101/85 84/102/86 69/103/87
f 77/77/68 85/98/82 70/104/85
f 14/8/8 66/60/58 27/19/18
f 66/60/58 14/8/8 13/7/7
f 6/6/6 14/8/8 27/19/18
f 6/6/6 27/19/18 35/105/24
f 33/83/72 73/95/79 19/69/62
f 73/95/79 34/85/73 74/73/65
f 70/104/85 76/76/67 28/20/19
f 70/104/85 28/20/19 77/77/68
f 26/26/17 35/25/24 27/106/18
f 23/15/14 78/79/69 24/16/15
f 79/80/70 78/79/69 41/31/29
f 82/88/75 30/22/21 33/83/72
f 76/84/67 26/26/17 28/107/19
f 30/22/21 34/85/73 33/83/72
f 74/73/65 34/85/73 32/24/23
f 1/1/1 26/26/17 81/86/74
f 33/83/72 57/82/43 82/88/75
f 40/44/42 44/89/76 2/90/2
f 43/36/34 44/89/76 40/44/42
f 38/28/26 41/31/29 47/33/31
f 44/89/76 52/39/37 45/41/39
f 46/32/30 53/40/38 47/33/31
f 40/87/42 82/88/75 57/82/43
f 29/108/20 3/109/3 78/79/69
f 76/76/67 70/104/85 71/74/66
f 88/110/88 74/73/65 75/111/64
f 73/95/79 21/68/61 19/69/62
f 59/48/46 68/96/80 12/9/9
f 69/103/87 84/102/86 20/53/51
f 58/47/45 59/48/46 10/56/54
f 86/99/83 61/50/48 7/55/53
f 9/62/59 5/5/5 22/13/13
f 85/98/82 65/58/56 84/102/86
f 39/29/27 72/71/63 79/80/70
f 63/54/52 64/59/57 13/7/7
f 85/98/82 66/60/58 64/59/57
f 77/77/68 66/60/58 85/98/82
f 5/5/5 14/8/8 6/6/6
f 20/53/51 18/52/50 19/69/62
f 85/98/82 84/102/86 70/104/85
f 69/103/87 71/112/66 70/101/85
f 18/52/50 72/71/63 19/69/62
f 27/19/18 66/60/58 77/77/68
f 23/15/14 29/108/20 78/79/69
f 80/81/71 72/71/63 39/29/27
f 33/83/72 34/85/73 73/95/79
f 36/46/44 3/109/3 2/113/2
f 37/27/25 39/29/27 79/80/70
f 31/23/22 26/26/17 32/24/23
f 82/88/75 31/23/22 30/22/21
f 40/87/42 2/2/2 81/86/74
f 3/109/3 41/31/29 78/79/69
f 41/31/29 37/27/25 79/80/70
f 83/91/77 39/29/27 42/30/28
f 48/34/32 50/94/33 55/93/78
f 53/40/38 52/39/37 54/42/40
f 88/110/88 21/68/61 74/73/65
f 21/68/61 88/110/88 69/103/87
f 88/110/88 71/112/66 69/103/87
f 72/71/63 24/16/15 79/80/70
f 69/103/87 20/53/51 21/68/61
f 63/54/52 20/53/51 65/58/56
f 59/48/46 17/12/12 25/17/16
f 5/5/5 11/97/81 14/8/8
f 11/97/81 59/48/46 12/9/9
f 63/54/52 13/7/7 12/9/9
f 18/52/50 12/9/9 68/96/80
f 29/108/20 23/15/14 4/14/4
f 23/15/14 25/17/16 17/12/12
f 76/84/67 75/72/64 32/24/23
f 3/109/3 36/46/44 41/31/29
f 83/91/77 80/81/71 39/29/27
f 42/30/28 48/34/32 55/93/78
f 88/114/88 75/75/64 71/74/66
f 18/52/50 68/96/80 25/17/16
f 24/16/15 72/71/63 25/17/16
f 65/58/56 20/53/51 84/102/86
