# Blender v2.79 (sub 0) OBJ File: ''
# www.blender.org
mtllib organs_pancreas_collision.mtl
o pancreas_organs_polySurface1.006
v 4.609050 -5.668777 0.634098
v 5.692440 -5.468341 0.056852
v 6.093015 -5.170162 0.331216
v 6.007558 -4.939009 0.387306
v -1.484230 -7.045169 1.643922
v -2.013931 -6.316011 1.454853
v -2.395085 -7.125646 1.818394
v -2.069789 -8.550744 -0.393084
v -1.833218 -7.816588 -0.730429
v -2.535302 -8.701775 0.254670
v -2.603873 -7.937134 -0.469604
v -1.612806 -9.084753 0.179309
v -3.417495 -6.512688 0.896085
v -3.243224 -6.079259 0.655650
v -2.713181 -6.203029 1.154754
v -3.621682 -7.045324 0.804031
v -3.403748 -7.740861 0.370152
v -3.539027 -6.849073 0.360725
v -3.236756 -6.950317 -0.145596
v -2.702178 -6.723458 -0.440354
v -1.904301 -6.240240 -0.495192
v -2.012407 -6.873773 -0.751769
v -3.124817 -6.317054 0.166729
v -2.727717 -5.947558 -0.124988
v -2.093005 -5.760816 -0.347106
v -1.469673 -5.706915 -0.271075
v -0.635085 -5.606808 -0.397726
v -2.562470 -5.501385 0.229121
v -0.924792 -5.440653 -0.117214
v 0.233612 -5.488543 -0.141063
v -1.131142 -5.638337 0.482932
v -0.131378 -5.524853 0.198108
v 2.037733 -6.048552 0.363294
v 2.305223 -6.423908 0.408304
v 2.811860 -6.651273 0.577594
v 3.997038 -5.713532 0.363381
v 5.130730 -5.829009 1.017494
v 4.440812 -6.616011 1.111285
v 5.701050 -5.677719 0.867503
v 5.614588 -5.880820 0.751180
v 6.041444 -5.330043 0.612233
v 5.893885 -5.429249 0.437439
v 5.914918 -5.048993 0.072901
v 5.379164 -4.964392 0.051247
v 5.836876 -5.228195 0.754170
v 5.069935 -5.403528 0.550415
v 4.328318 -5.420410 0.182306
v 2.158307 -5.413188 0.035702
v 2.106514 -5.408187 -0.175633
v 0.507883 -6.223022 -0.675996
v 0.047115 -6.401749 -0.781787
v -1.011531 -6.554457 -0.741412
v -1.238983 -7.015434 -0.848383
v -1.045922 -8.369136 -0.637148
v 0.557137 -7.622352 -0.703703
v 1.692084 -6.906381 -0.691214
v 1.610922 -5.711954 -0.406344
v 2.924137 -6.306690 -0.418163
v 4.028337 -5.240885 -0.091003
v 3.572239 -5.493736 -0.270231
v 1.436725 -7.627225 -0.475858
v 1.336716 -7.953285 -0.260887
v -0.027805 -8.695352 -0.232732
v 0.151113 -8.899061 0.192616
v -0.816346 -9.203583 0.649266
v -0.885369 -8.976357 -0.173735
v -1.688327 -9.035213 1.378693
v -2.403965 -8.805547 1.283607
v -3.023926 -8.332279 1.053385
v -2.875203 -8.034355 1.647556
v -3.505559 -7.552530 1.007442
v -3.362279 -7.341232 1.329866
v -2.421121 -5.579721 0.666708
v -0.533297 -6.276495 0.803401
v -0.538291 -6.672757 1.155330
v 0.770253 -6.770158 0.806134
v 3.047149 -6.967144 1.077234
v 2.168457 -7.364581 1.209333
v 3.729897 -7.051497 1.068307
v 4.461884 -6.703618 0.823525
v 5.275472 -5.960606 0.255034
v 5.662968 -5.769119 0.354043
v 4.684448 -5.866827 -0.094873
v 4.597300 -5.347835 -0.263660
v 3.239767 -6.807126 -0.222949
v 3.729748 -6.947297 0.361620
v 1.816360 -7.852465 0.221411
v 1.660951 -7.860536 0.881420
v 0.147198 -8.933650 0.960457
v -0.765071 -9.034294 1.323190
v 0.182458 -8.547904 1.572350
v -0.747222 -8.651309 1.798262
v -1.604700 -8.566628 1.864606
v -2.432781 -8.246085 1.793956
v -1.741140 -7.906357 2.018643
v -2.721040 -7.324471 1.827515
v -2.818501 -6.688652 1.673334
v -3.240561 -6.772113 1.468211
v -0.979154 -7.571029 1.953657
v 0.250728 -7.509789 1.591612
v 1.358806 -7.623870 1.369153
v -0.662222 -8.068312 1.950353
vt 0.043551 0.955997
vt 0.047210 0.950080
vt 0.049998 0.956858
vt 0.065763 0.973960
vt 0.075685 0.965738
vt 0.077944 0.972458
vt 0.057244 0.973461
vt 0.048937 0.972163
vt 0.054296 0.966724
vt 0.041700 0.971530
vt 0.051960 0.977805
vt 0.042077 0.978777
vt 0.031474 0.969622
vt 0.031842 0.975443
vt 0.016763 0.969006
vt 0.022714 0.969929
vt 0.015132 0.962627
vt 0.096009 0.938644
vt 0.092469 0.922237
vt 0.098479 0.931297
vt 0.090737 0.944270
vt 0.090323 0.928946
vt 0.068350 0.907442
vt 0.062066 0.890759
vt 0.073692 0.907577
vt 0.073235 0.923467
vt 0.062526 0.905633
vt 0.049371 0.889216
vt 0.049203 0.885914
vt 0.050998 0.886181
vt 0.050606 0.884560
vt 0.048066 0.883552
vt 0.050729 0.882687
vt 0.052871 0.880924
vt 0.051853 0.883968
vt 0.052587 0.886517
vt 0.051086 0.888699
vt 0.056129 0.886206
vt 0.054081 0.890257
vt 0.057795 0.889350
vt 0.060552 0.885824
vt 0.078030 0.902081
vt 0.080502 0.900845
vt 0.016554 0.940617
vt 0.017715 0.945538
vt 0.025171 0.958280
vt 0.029489 0.957387
vt 0.034829 0.965666
vt 0.037971 0.958400
vt 0.044618 0.963561
vt 0.037271 0.948911
vt 0.028237 0.936076
vt 0.024770 0.921855
vt 0.095050 0.909830
vt 0.087372 0.902886
vt 0.096446 0.903805
vt 0.062958 0.883451
vt 0.069327 0.883671
vt 0.027167 0.904420
vt 0.031534 0.925307
vt 0.035710 0.926270
vt 0.039489 0.938550
vt 0.043839 0.936225
vt 0.042570 0.945250
vt 0.048922 0.942588
vt 0.056179 0.947936
vt 0.060803 0.966633
vt 0.057828 0.960045
vt 0.064341 0.965642
vt 0.061256 0.970492
vt 0.054340 0.981800
vt 0.086230 0.961330
vt 0.089091 0.963613
vt 0.082749 0.936325
vt 0.077485 0.938595
vt 0.055613 0.906731
vt 0.055266 0.915118
vt 0.050706 0.896820
vt 0.049651 0.902539
vt 0.047515 0.896359
vt 0.045463 0.886838
vt 0.047530 0.886840
vt 0.042782 0.883981
vt 0.053961 0.878651
vt 0.027694 0.895080
vt 0.034688 0.903652
vt 0.041578 0.920360
vt 0.050080 0.920768
vt 0.050635 0.934936
vt 0.054640 0.941330
vt 0.057319 0.933706
vt 0.059651 0.941236
vt 0.061414 0.947732
vt 0.057285 0.954074
vt 0.062908 0.953749
vt 0.063029 0.959001
vt 0.066795 0.949220
vt 0.067887 0.959589
vt 0.071303 0.957132
vt 0.071972 0.962084
vt 0.068810 0.966739
vt 0.078958 0.955045
vt 0.069028 0.942693
vt 0.064863 0.930788
vt 0.041761 0.900388
vt 0.057279 0.923229
vt 0.064150 0.939893
vt 0.074439 0.946623
vt 0.038529 0.982262
vt 0.086721 0.893797
vn -0.3063 -0.6193 -0.7229
vn -0.2182 -0.9240 -0.3138
vn -0.5601 -0.7788 -0.2822
vn -0.8225 0.5078 0.2561
vn -0.3328 0.6903 0.6424
vn -0.7981 0.5895 0.1242
vn -0.9229 0.2146 -0.3195
vn -0.7128 0.0983 -0.6945
vn -0.8557 -0.4047 -0.3222
vn -0.4630 0.2152 -0.8598
vn -0.7713 0.4127 -0.4845
vn -0.5765 0.4618 -0.6741
vn -0.1590 0.3626 -0.9182
vn -0.2010 0.5340 -0.8212
vn -0.0566 0.9767 -0.2068
vn 0.0002 0.4071 -0.9134
vn -0.0881 0.5679 -0.8183
vn 0.0036 0.9695 -0.2449
vn 0.1435 0.8141 0.5627
vn 0.0610 0.8583 0.5095
vn 0.0223 0.3964 0.9178
vn -0.2341 0.6112 0.7560
vn 0.0478 0.3357 0.9407
vn 0.1084 0.5874 0.8020
vn -0.1503 0.6584 0.7375
vn 0.6704 -0.7163 0.1933
vn 0.7491 -0.6076 -0.2638
vn 0.9173 -0.1902 0.3498
vn 0.9723 -0.0961 -0.2129
vn 0.5190 -0.4059 -0.7522
vn 0.5409 0.3754 -0.7526
vn -0.1115 0.9590 -0.2603
vn 0.4891 0.8516 0.1886
vn 0.1976 0.5407 0.8177
vn 0.5721 -0.2379 0.7849
vn -0.3039 0.7462 0.5922
vn -0.0170 0.3119 0.9499
vn -0.3201 0.6841 0.6553
vn -0.2190 0.7227 0.6554
vn -0.0480 0.8470 0.5294
vn -0.0452 0.9037 -0.4257
vn 0.0518 0.3437 -0.9376
vn -0.0527 0.3644 -0.9297
vn -0.0251 0.3189 -0.9474
vn -0.0080 0.0599 -0.9982
vn -0.2462 0.1670 -0.9547
vn -0.1674 -0.1981 -0.9658
vn -0.5256 -0.3215 -0.7876
vn -0.0027 -0.4373 -0.8993
vn 0.1391 -0.2859 -0.9481
vn 0.2220 -0.1084 -0.9690
vn 0.0320 0.4679 -0.8832
vn -0.1111 0.9880 -0.1075
vn -0.0160 0.4087 -0.9125
vn 0.1577 -0.0406 -0.9866
vn 0.3491 -0.5317 -0.7716
vn 0.4467 -0.6946 -0.5638
vn 0.2757 -0.6752 -0.6842
vn 0.3883 -0.8759 -0.2863
vn 0.0120 -0.8086 -0.5882
vn 0.0758 -0.9970 -0.0139
vn -0.1985 -0.8955 0.3983
vn -0.9191 -0.3070 0.2469
vn -0.7377 -0.6467 0.1938
vn -0.7864 -0.0936 0.6105
vn -0.9926 0.0551 0.1078
vn -0.1763 0.8636 0.4724
vn -0.4050 0.8990 -0.1668
vn 0.2190 0.6000 0.7694
vn 0.2545 0.5940 0.7631
vn -0.1790 0.6700 0.7205
vn 0.2248 -0.4127 0.8827
vn 0.3241 -0.4266 0.8443
vn 0.3541 -0.7841 0.5097
vn 0.5221 -0.8526 -0.0226
vn 0.4635 -0.7211 -0.5150
vn 0.6633 -0.6753 -0.3226
vn 0.3130 -0.3821 -0.8695
vn 0.0952 0.2690 -0.9584
vn 0.3468 -0.5182 -0.7818
vn 0.4786 -0.8516 -0.2134
vn 0.4673 -0.8064 0.3623
vn 0.4067 -0.8855 0.2247
vn 0.1310 -0.8890 0.4387
vn 0.3898 -0.5567 0.7335
vn 0.1381 -0.5467 0.8258
vn -0.1115 -0.4971 0.8604
vn -0.4688 -0.8184 0.3322
vn -0.3958 -0.3738 0.8388
vn -0.5756 -0.3946 0.7162
vn -0.0849 -0.0334 0.9958
vn -0.3507 0.0313 0.9360
vn -0.0021 0.2909 0.9567
vn -0.2668 0.4687 0.8421
vn -0.6649 0.3461 0.6618
vn 0.0884 0.5902 0.8024
vn 0.1432 0.3379 0.9302
vn 0.1836 0.4565 0.8706
vn 0.4345 -0.8306 -0.3482
vn 0.3621 -0.3143 0.8775
vn 0.1874 -0.0761 0.9793
vn 0.1726 0.5081 0.8438
usemtl Organs
s 1
f 8/1/1 12/2/2 10/3/3
f 13/4/4 15/5/5 14/6/6
f 18/7/7 19/8/8 17/9/9
f 20/10/10 23/11/11 24/12/12
f 24/12/12 21/13/13 20/10/10
f 25/14/14 29/15/15 26/16/16
f 29/15/15 27/17/17 26/16/16
f 29/18/15 30/19/18 27/20/17
f 29/18/15 31/21/19 32/22/20
f 32/22/20 30/19/18 29/18/15
f 34/23/21 36/24/22 33/25/23
f 34/23/21 76/26/24 35/27/25
f 35/27/25 36/24/22 34/23/21
f 40/28/26 42/29/27 41/30/28
f 42/29/27 3/31/29 41/30/28
f 42/29/27 2/32/30 3/31/29
f 2/32/30 43/33/31 3/31/29
f 43/33/31 44/34/32 4/35/33
f 4/35/33 44/34/32 45/36/34
f 45/36/34 39/37/35 41/30/28
f 41/30/28 4/35/33 45/36/34
f 45/36/34 46/38/36 37/39/37
f 36/24/22 1/40/38 47/41/39
f 35/27/25 1/40/38 36/24/22
f 48/42/40 33/25/23 47/41/39
f 49/43/41 30/19/18 48/42/40
f 50/44/42 51/45/43 52/46/44
f 52/46/44 21/13/13 50/44/42
f 50/44/42 26/16/16 27/17/17
f 53/47/45 22/48/46 52/46/44
f 22/48/46 53/47/45 9/49/47
f 9/49/47 11/50/48 22/48/46
f 11/50/48 9/49/47 8/1/1
f 54/51/49 8/1/1 9/49/47
f 53/47/45 55/52/50 54/51/49
f 52/46/44 55/52/50 53/47/45
f 51/45/43 56/53/51 55/52/50
f 27/54/17 57/55/52 50/56/42
f 48/42/40 59/57/53 49/43/41
f 44/34/32 47/41/39 46/38/36
f 60/58/54 57/55/52 49/43/41
f 58/59/55 56/53/51 50/44/42
f 56/53/51 61/60/56 55/52/50
f 55/52/50 62/61/57 63/62/58
f 64/63/59 66/64/60 63/62/58
f 63/62/58 54/51/49 55/52/50
f 65/65/61 12/2/2 66/64/60
f 12/2/2 54/51/49 66/64/60
f 12/2/2 65/65/61 67/66/62
f 67/66/62 10/3/3 12/2/2
f 17/9/9 11/50/48 10/3/3
f 71/67/63 17/9/9 69/68/64
f 72/69/65 16/70/66 71/67/63
f 13/4/4 23/11/11 18/7/7
f 23/11/11 13/4/4 14/71/6
f 14/71/6 24/12/12 23/11/11
f 14/6/6 73/72/67 28/73/68
f 73/72/67 29/18/15 28/73/68
f 74/74/69 33/25/23 32/22/20
f 74/74/69 75/75/70 76/26/24
f 76/26/24 34/23/21 74/74/69
f 76/26/24 77/76/71 35/27/25
f 77/76/71 78/77/72 38/78/73
f 37/39/37 77/76/71 38/78/73
f 79/79/74 80/80/75 38/78/73
f 40/28/26 38/78/73 80/80/75
f 80/80/75 81/81/76 40/28/26
f 82/82/77 42/29/27 40/28/26
f 81/81/76 2/32/30 82/82/77
f 82/82/77 2/32/30 42/29/27
f 81/81/76 83/83/78 2/32/30
f 2/32/30 84/84/79 43/33/31
f 58/59/55 60/85/54 84/84/79
f 84/84/79 85/86/80 58/59/55
f 61/60/56 58/59/55 85/86/80
f 87/87/81 62/61/57 61/60/56
f 87/87/81 63/62/58 62/61/57
f 87/87/81 88/88/82 89/89/83
f 89/89/83 65/65/61 64/63/59
f 90/90/84 91/91/85 92/92/86
f 92/92/86 67/66/62 90/90/84
f 90/90/84 67/66/62 65/65/61
f 93/93/87 68/94/88 67/66/62
f 94/95/89 69/68/64 68/94/88
f 70/96/90 95/97/91 96/98/92
f 96/98/92 72/69/65 70/96/90
f 96/98/92 7/99/93 97/100/94
f 97/100/94 98/101/95 96/98/92
f 98/101/95 16/70/66 72/69/65
f 98/101/95 97/100/94 15/5/5
f 15/5/5 13/4/4 98/101/95
f 6/102/96 74/74/69 31/21/19
f 76/26/24 75/75/70 99/103/97
f 99/103/97 100/104/98 76/26/24
f 77/76/71 76/26/24 100/104/98
f 100/104/98 78/77/72 77/76/71
f 79/79/74 38/78/73 78/77/72
f 79/79/74 86/105/99 80/80/75
f 86/105/99 81/81/76 80/80/75
f 85/86/80 81/81/76 86/105/99
f 86/105/99 79/79/74 87/87/81
f 88/88/82 78/77/72 101/106/100
f 101/106/100 91/91/85 88/88/82
f 102/107/101 92/92/86 91/91/85
f 102/107/101 93/93/87 92/92/86
f 95/97/91 94/95/89 93/93/87
f 7/99/93 5/108/102 6/102/96
f 7/99/93 96/98/92 95/97/91
f 99/103/97 102/107/101 100/104/98
f 101/106/100 100/104/98 102/107/101
f 75/75/70 5/108/102 99/103/97
f 73/72/67 14/6/6 15/5/5
f 4/35/33 3/31/29 43/33/31
f 8/1/1 10/3/3 11/50/48
f 16/70/66 17/9/9 71/67/63
f 16/70/66 18/7/7 17/9/9
f 17/9/9 19/8/8 11/50/48
f 19/8/8 20/10/10 11/50/48
f 20/10/10 21/13/13 22/48/46
f 20/10/10 19/8/8 23/11/11
f 24/12/12 25/14/14 21/13/13
f 25/14/14 26/16/16 21/13/13
f 25/14/14 28/109/68 29/15/15
f 32/22/20 48/42/40 30/19/18
f 32/22/20 33/25/23 48/42/40
f 37/39/37 1/40/38 77/76/71
f 37/39/37 38/78/73 39/37/35
f 39/37/35 45/36/34 37/39/37
f 39/37/35 40/28/26 41/30/28
f 46/38/36 1/40/38 37/39/37
f 1/40/38 46/38/36 47/41/39
f 33/25/23 36/24/22 47/41/39
f 30/19/18 49/43/41 57/55/52
f 57/55/52 27/20/17 30/19/18
f 50/44/42 21/13/13 26/16/16
f 52/46/44 22/48/46 21/13/13
f 22/48/46 11/50/48 20/10/10
f 9/49/47 53/47/45 54/51/49
f 52/46/44 51/45/43 55/52/50
f 51/45/43 50/44/42 56/53/51
f 49/43/41 59/57/53 60/58/54
f 59/57/53 48/42/40 47/41/39
f 44/34/32 59/57/53 47/41/39
f 46/38/36 45/36/34 44/34/32
f 44/34/32 43/33/31 84/84/79
f 44/34/32 84/84/79 59/57/53
f 84/84/79 60/58/54 59/57/53
f 60/58/54 58/110/55 57/55/52
f 58/110/55 50/56/42 57/55/52
f 55/52/50 61/60/56 62/61/57
f 64/63/59 65/65/61 66/64/60
f 63/62/58 66/64/60 54/51/49
f 12/2/2 8/1/1 54/51/49
f 67/66/62 68/94/88 10/3/3
f 10/3/3 68/94/88 69/68/64
f 10/3/3 69/68/64 17/9/9
f 69/68/64 70/96/90 71/67/63
f 16/70/66 13/4/4 18/7/7
f 18/7/7 23/11/11 19/8/8
f 14/71/6 28/109/68 24/12/12
f 28/109/68 25/14/14 24/12/12
f 73/72/67 31/21/19 29/18/15
f 32/22/20 31/21/19 74/74/69
f 74/74/69 34/23/21 33/25/23
f 40/28/26 39/37/35 38/78/73
f 40/28/26 81/81/76 82/82/77
f 2/32/30 83/83/78 84/84/79
f 84/84/79 83/83/78 85/86/80
f 85/86/80 86/105/99 61/60/56
f 61/60/56 56/53/51 58/59/55
f 87/87/81 64/63/59 63/62/58
f 87/87/81 89/89/83 64/63/59
f 89/89/83 90/90/84 65/65/61
f 90/90/84 89/89/83 91/91/85
f 92/92/86 93/93/87 67/66/62
f 93/93/87 94/95/89 68/94/88
f 94/95/89 70/96/90 69/68/64
f 70/96/90 94/95/89 95/97/91
f 70/96/90 72/69/65 71/67/63
f 96/98/92 98/101/95 72/69/65
f 98/101/95 13/4/4 16/70/66
f 6/102/96 73/72/67 15/5/5
f 15/5/5 97/100/94 6/102/96
f 6/102/96 97/100/94 7/99/93
f 6/102/96 75/75/70 74/74/69
f 75/75/70 6/102/96 5/108/102
f 100/104/98 101/106/100 78/77/72
f 79/79/74 78/77/72 88/88/82
f 81/81/76 85/86/80 83/83/78
f 86/105/99 87/87/81 61/60/56
f 87/87/81 79/79/74 88/88/82
f 88/88/82 91/91/85 89/89/83
f 91/91/85 101/106/100 102/107/101
f 102/107/101 95/97/91 93/93/87
f 95/97/91 102/107/101 99/103/97
f 99/103/97 7/99/93 95/97/91
f 7/99/93 99/103/97 5/108/102
f 6/102/96 31/21/19 73/72/67
f 41/30/28 3/31/29 4/35/33
f 1/40/38 35/27/25 77/76/71
