# Blender v2.79 (sub 0) OBJ File: ''
# www.blender.org
mtllib organs_kidney_right_collision.mtl
o kidney_right_organs_polySurface1.005
v -4.998769 -0.967303 -2.334659
v -6.659410 -5.484198 -1.660701
v -7.341699 -4.538504 -2.173207
v -5.811962 -4.995656 -1.238523
v -4.553231 -9.403206 -1.657182
v -5.011828 -1.178677 -2.012195
v -5.135067 -5.470014 -1.354782
v -3.917609 -8.335085 -2.104368
v -4.481150 -8.445714 -1.517172
v -6.318631 -8.113959 -1.645974
v -5.473566 -8.895321 -1.371812
v -5.779124 -7.921802 -1.682261
v -4.154095 -5.371388 -2.207539
v -4.123001 -4.869424 -1.950084
v -4.219619 -4.553138 -3.359720
v -5.366442 -4.102581 -4.319968
v -4.849526 -10.076960 -3.301062
v -4.275298 -9.784860 -2.285775
v -5.989279 -5.863877 -1.752041
v -5.712600 -6.407331 -2.343242
v -5.517314 -6.214396 -2.368176
v -5.704665 -6.673344 -1.808681
v -4.826977 -5.973332 -3.077083
v -5.060151 -6.164391 -2.988290
v -4.694552 -5.745007 -3.298570
v -5.249847 -7.540879 -2.663596
v -4.715791 -7.542188 -3.007794
v -5.173344 -7.332089 -3.056524
v -5.207139 -6.135057 -2.626891
v -5.153542 -6.624437 -3.008665
v -3.588818 -10.981606 -1.720454
v -3.590518 -11.022112 -1.431536
v -3.769534 -9.129884 -1.209438
v -3.908195 -9.194036 -1.508378
v -4.013732 -8.750556 -1.323899
v -3.941826 -7.847515 -1.900676
v -4.296388 -7.829884 -1.806461
v -4.280848 -7.183215 -2.323466
v -4.617524 -6.488203 -2.123557
v -4.408394 -6.906360 -1.715665
v -5.475613 -7.490023 -2.542754
v -5.785121 -7.170441 -2.471872
v -4.490757 -7.694857 -3.131743
v -4.256129 -7.786484 -2.083955
v -4.555069 -7.497714 -2.348660
v -5.015535 -7.821092 -1.622741
v -4.029635 -7.870747 -2.728562
v -3.882435 -9.142088 -2.193379
v -3.713876 -8.679309 -2.731523
v -3.901768 -8.468164 -3.285509
v -4.032622 -7.722825 -1.419711
v -3.934600 -7.374270 -1.714342
v -3.683934 -8.360456 -1.397611
v -3.766572 -9.001132 -1.554667
v -3.860551 -11.019197 -1.548063
v -4.347941 -7.673643 -1.581095
v -4.835464 -7.328770 -1.959988
v -4.644135 -7.410429 -2.206793
v -5.072354 -7.301046 -2.761163
v -5.520597 -7.637887 -2.020825
v -5.903899 -6.818669 -1.557290
v -6.470628 -6.802355 -1.525669
v -7.440027 -6.902550 -2.029015
v -7.164774 -8.754496 -2.342677
v -6.505139 -9.787479 -2.643340
v -7.364471 -9.011681 -3.295599
v -5.700034 -10.144450 -2.657581
v -5.966142 -9.474542 -1.723932
v -5.002326 -9.989425 -2.083519
v -4.632503 -9.687394 -3.797387
v -4.003639 -9.587721 -2.911373
v -3.969636 -9.183378 -3.428845
v -4.391607 -7.995629 -3.814608
v -4.501808 -6.830565 -4.010835
v -4.390862 -6.658778 -3.343490
v -4.822556 -5.277527 -4.034018
v -4.236955 -5.464591 -2.857643
v -4.753413 -5.918852 -2.087089
v -8.005676 -6.447544 -3.007021
v -7.878533 -7.640482 -2.999621
v -7.894221 -7.226624 -3.848525
v -7.240788 -8.048550 -4.506548
v -7.248356 -8.829030 -3.992280
v -6.519560 -9.039001 -4.493079
v -6.416954 -9.823149 -3.575208
v -5.819652 -9.740350 -4.053911
v -5.789667 -8.895289 -4.689612
v -5.149355 -8.352060 -4.605478
v -4.914433 -3.922035 -1.440658
v -5.405878 -4.478499 -1.181275
v -7.744496 -4.764954 -2.775834
v -7.659513 -4.727891 -3.577894
v -7.933449 -5.819225 -3.742527
v -7.175742 -5.371412 -4.661327
v -6.524992 -7.032712 -5.069352
v -7.493027 -6.700226 -4.568511
v -6.513947 -8.182811 -4.864549
v -5.542609 -6.260231 -4.852529
v -4.977018 -3.482202 -3.810477
v -3.988679 -4.449146 -2.525897
v -4.443404 -4.660400 -1.490163
v -6.033623 -3.711496 -1.442065
v -6.882993 -3.507740 -3.087745
v -7.073979 -4.394437 -4.174367
v -6.293852 -4.722624 -4.786150
v -5.988329 -3.384372 -3.911994
v -4.265302 -3.659812 -2.957328
v -6.660979 -3.610008 -1.964143
v -6.859763 -3.482474 -2.418743
v -5.659520 -3.266120 -4.173301
v -5.374103 -3.742816 -1.132568
v -7.093784 -3.292097 -2.437868
v -7.015294 -3.413450 -3.158479
v -6.627229 -3.432405 -3.676790
v -4.732390 -3.443477 -4.000474
v -4.004056 -3.592717 -2.866116
v -4.031486 -3.548564 -2.376854
v -4.275146 -3.864254 -1.972511
v -5.863328 -3.523935 -1.121116
v -6.891333 -3.446841 -1.793695
v -6.366525 -2.929402 -3.837516
v -5.241820 -3.044683 -4.206570
v -4.043599 -3.327216 -3.155131
v -4.015985 -3.355015 -2.247514
v -4.873755 -3.739202 -1.229136
v -6.330987 -3.496356 -1.315940
v -6.972065 -3.147891 -3.155370
v -5.984695 -3.096555 -4.125491
v -5.136809 -2.639727 -3.924419
v -4.301031 -3.029663 -3.549258
v -4.151758 -2.671720 -2.671458
v -4.245358 -2.687363 -2.250687
v -4.363772 -3.126513 -1.930004
v -5.702480 -2.865777 -1.259973
v -6.260352 -2.939774 -1.400584
v -6.373631 -2.459724 -1.773877
v -6.769862 -2.711133 -2.526831
v -5.840069 -2.289226 -3.634844
v -4.684010 -2.278369 -3.483314
v -4.284083 -2.231831 -2.682532
v -4.564369 -2.088880 -2.371024
v -4.868530 -2.310364 -1.796306
v -6.486852 -2.307557 -2.144048
v -6.495841 -2.307820 -2.803801
v -5.856611 -1.350195 -2.398823
v -5.532634 -1.782974 -3.355363
v -4.628272 -1.668947 -2.874895
v -5.187872 -1.758587 -1.788510
v -5.800664 -1.716383 -1.876280
v -5.307533 -0.964730 -2.410508
v -4.979805 -1.172542 -2.795393
v -5.058912 -9.221136 -1.431288
vt 0.547168 0.267750
vt 0.540241 0.256518
vt 0.556659 0.265455
vt 0.581014 0.273242
vt 0.590558 0.275734
vt 0.579924 0.280211
vt 0.585324 0.285675
vt 0.569020 0.202822
vt 0.556676 0.211094
vt 0.560627 0.198010
vt 0.556186 0.275898
vt 0.561335 0.286944
vt 0.556559 0.287975
vt 0.550455 0.291639
vt 0.547350 0.292490
vt 0.543989 0.292430
vt 0.589666 0.299995
vt 0.584665 0.301800
vt 0.579754 0.297329
vt 0.567747 0.312276
vt 0.570533 0.315328
vt 0.567981 0.326901
vt 0.575509 0.309469
vt 0.575084 0.314572
vt 0.577909 0.286950
vt 0.587810 0.293724
vt 0.595183 0.299437
vt 0.592257 0.283455
vt 0.591291 0.290798
vt 0.599355 0.277855
vt 0.601987 0.283543
vt 0.596730 0.288033
vt 0.596328 0.294430
vt 0.565174 0.310734
vt 0.560472 0.304068
vt 0.570562 0.325135
vt 0.561140 0.327726
vt 0.563990 0.323727
vt 0.571895 0.305526
vt 0.580563 0.302424
vt 0.586261 0.308758
vt 0.587339 0.313767
vt 0.580664 0.313361
vt 0.575119 0.293842
vt 0.570526 0.290811
vt 0.567251 0.278724
vt 0.568477 0.272363
vt 0.571560 0.261013
vt 0.594848 0.268750
vt 0.587853 0.260327
vt 0.605343 0.263984
vt 0.611428 0.269418
vt 0.604392 0.271660
vt 0.608634 0.283079
vt 0.609414 0.289208
vt 0.602392 0.289248
vt 0.604313 0.293563
vt 0.606210 0.300375
vt 0.596221 0.308570
vt 0.591662 0.314607
vt 0.533919 0.294035
vt 0.543701 0.284560
vt 0.581020 0.251028
vt 0.571394 0.249350
vt 0.592944 0.251469
vt 0.580984 0.242787
vt 0.596194 0.244235
vt 0.591157 0.236370
vt 0.598090 0.236050
vt 0.635871 0.289676
vt 0.628722 0.294959
vt 0.627214 0.284280
vt 0.620963 0.300012
vt 0.612962 0.306009
vt 0.577380 0.196210
vt 0.581937 0.201670
vt 0.568700 0.192768
vt 0.530634 0.287887
vt 0.534198 0.282676
vt 0.534388 0.272234
vt 0.545331 0.275550
vt 0.533607 0.264521
vt 0.540601 0.265931
vt 0.559783 0.237921
vt 0.568305 0.228628
vt 0.569145 0.240794
vt 0.579092 0.234007
vt 0.579373 0.213891
vt 0.593831 0.213537
vt 0.598075 0.223894
vt 0.595387 0.229115
vt 0.583994 0.224468
vt 0.558622 0.244417
vt 0.554051 0.250174
vt 0.549609 0.205784
vt 0.498086 0.266745
vt 0.514242 0.270992
vt 0.517434 0.281513
vt 0.531649 0.277248
vt 0.524018 0.276727
vt 0.545990 0.243316
vt 0.544369 0.248324
vt 0.547268 0.236149
vt 0.558447 0.229197
vt 0.563233 0.220316
vt 0.547658 0.218508
vt 0.524417 0.268022
vt 0.534810 0.259640
vt 0.546825 0.228827
vt 0.510913 0.265935
vt 0.514851 0.268271
vt 0.530878 0.261971
vt 0.539114 0.251282
vt 0.542069 0.245939
vt 0.544305 0.241290
vt 0.546585 0.236760
vt 0.486046 0.257736
vt 0.482179 0.250371
vt 0.489100 0.255444
vt 0.491139 0.259238
vt 0.500428 0.264884
vt 0.536596 0.254812
vt 0.544458 0.235306
vt 0.496120 0.259549
vt 0.519564 0.266588
vt 0.519842 0.264057
vt 0.522872 0.260104
vt 0.483528 0.242899
vt 0.480366 0.243661
vt 0.499231 0.256724
vt 0.506758 0.263898
vt 0.522514 0.250830
vt 0.532154 0.250705
vt 0.533757 0.243204
vt 0.535630 0.248270
vt 0.533911 0.238571
vt 0.539344 0.236797
vt 0.487701 0.239163
vt 0.492679 0.239479
vt 0.495513 0.248917
vt 0.487947 0.250707
vt 0.505266 0.255073
vt 0.512699 0.253773
vt 0.513805 0.258782
vt 0.515820 0.251100
vt 0.517397 0.257749
vt 0.521864 0.245276
vt 0.526252 0.240378
vt 0.500885 0.236237
vt 0.501194 0.246159
vt 0.510853 0.248926
vt 0.524120 0.234829
vt 0.534152 0.233358
vt 0.510379 0.242600
vt 0.516877 0.240999
vt 0.514157 0.238456
vt 0.516970 0.235840
vt 0.508841 0.238012
vt 0.616891 0.286128
vt 0.616871 0.279317
vt 0.631130 0.280061
vt 0.604639 0.252964
vt 0.565106 0.282488
vt 0.595063 0.276311
vt 0.568703 0.303103
vt 0.561538 0.313496
vt 0.559533 0.320079
vt 0.558899 0.310387
vt 0.589395 0.313416
vt 0.557290 0.346600
vt 0.558669 0.346737
vt 0.561914 0.347071
vt 0.565380 0.328570
vt 0.556439 0.299171
vt 0.565585 0.347453
vt 0.598819 0.260111
vt 0.606901 0.277304
vt 0.602125 0.309369
vt 0.596975 0.316247
vt 0.640920 0.286452
vt 0.571703 0.196672
vt 0.638330 0.295380
vt 0.478170 0.243937
vt 0.621731 0.275790
vn -0.2284 -0.1627 0.9599
vn -0.4145 -0.4241 0.8052
vn -0.3649 -0.0232 0.9307
vn -0.2892 -0.0736 0.9544
vn -0.1476 -0.0650 0.9869
vn 0.1177 0.2452 0.9623
vn 0.0882 0.6211 0.7787
vn 0.7856 0.0508 -0.6166
vn 0.3898 0.3541 -0.8501
vn 0.8665 0.0272 -0.4984
vn 0.2253 -0.3121 0.9229
vn 0.5398 0.0126 0.8417
vn 0.2185 -0.2567 0.9414
vn 0.9272 -0.3391 0.1590
vn 0.6939 -0.3507 0.6289
vn 0.8043 -0.3495 0.4805
vn 0.4002 0.7079 0.5820
vn 0.7203 0.2282 0.6550
vn 0.4836 0.6697 0.5636
vn -0.6607 -0.6453 -0.3835
vn 0.5467 -0.2089 -0.8108
vn 0.0606 0.0468 -0.9970
vn 0.7077 -0.0221 -0.7062
vn 0.8783 0.4463 0.1713
vn 0.5085 0.7352 0.4482
vn 0.2592 0.9536 0.1533
vn 0.8030 0.5909 0.0773
vn 0.4447 0.1493 0.8831
vn 0.6045 0.6435 0.4693
vn 0.4315 -0.4487 0.7826
vn 0.8626 -0.2765 0.4235
vn 0.8549 0.2400 0.4600
vn 0.7717 0.6316 -0.0741
vn -0.6934 -0.1969 0.6931
vn 0.1671 0.5412 0.8241
vn 0.9144 0.1765 0.3642
vn 0.2191 -0.0327 0.9751
vn -0.8559 -0.1132 0.5045
vn -0.0428 -0.9183 -0.3935
vn 0.6967 -0.5710 -0.4341
vn 0.8874 0.0727 0.4551
vn 0.5465 0.8218 0.1614
vn 0.5016 0.1995 0.8417
vn 0.6601 0.0541 0.7492
vn 0.4279 0.0703 0.9011
vn -0.1874 0.0034 0.9823
vn -0.6940 -0.0693 0.7166
vn -0.3811 -0.5414 0.7494
vn -0.7321 -0.3857 0.5614
vn -0.1789 -0.9723 0.1505
vn 0.2599 -0.9340 -0.2449
vn 0.1063 -0.8746 0.4730
vn 0.7901 -0.6024 -0.1136
vn 0.8255 -0.2625 -0.4996
vn 0.9988 0.0441 -0.0220
vn 0.8846 0.2121 -0.4153
vn 0.8515 0.1320 -0.5074
vn 0.9379 0.1406 0.3171
vn 0.9715 -0.2331 -0.0418
vn 0.4798 -0.8005 0.3591
vn -0.9499 -0.2368 0.2037
vn -0.9759 0.0063 0.2181
vn -0.8342 -0.5513 -0.0118
vn -0.9361 -0.1565 -0.3149
vn -0.7425 -0.5010 -0.4446
vn -0.6589 -0.2718 -0.7014
vn -0.3701 -0.5538 -0.7458
vn 0.1203 -0.3953 -0.9106
vn -0.0619 -0.7910 -0.6087
vn 0.4882 -0.1307 -0.8629
vn 0.8620 0.0868 -0.4994
vn 0.8346 -0.5095 -0.2092
vn 0.8469 -0.4626 0.2621
vn 0.6352 -0.0252 0.7719
vn 0.2340 -0.4940 0.8373
vn 0.3829 -0.3072 0.8712
vn 0.0530 0.1002 0.9935
vn -0.8597 0.4194 -0.2915
vn -0.5618 0.2388 -0.7920
vn -0.9428 0.1489 -0.2982
vn -0.6925 -0.0168 -0.7212
vn 0.4185 0.0812 -0.9046
vn -0.2307 -0.2522 -0.9398
vn -0.1331 -0.0459 -0.9900
vn -0.9249 0.3097 0.2205
vn -0.7367 0.2438 0.6308
vn 0.4005 -0.5430 -0.7380
vn 0.7918 -0.3516 -0.4993
vn 0.8859 -0.0653 0.4592
vn 0.9964 0.0823 0.0209
vn -0.9470 -0.2499 0.2016
vn -0.7649 -0.3339 0.5508
vn -0.9685 -0.1750 -0.1772
vn -0.5984 0.5165 -0.6125
vn -0.0678 0.3568 -0.9317
vn -0.2255 -0.0989 -0.9692
vn 0.8664 0.0222 0.4989
vn -0.0036 -0.4475 0.8943
vn -0.6802 0.3028 -0.6675
vn 0.9022 -0.1689 -0.3968
vn 0.8347 -0.4924 -0.2463
vn 0.4517 -0.2522 0.8558
vn -0.5409 -0.3215 0.7772
vn -0.8303 -0.3033 0.4676
vn -0.9825 -0.1155 0.1463
vn -0.8646 -0.3948 -0.3107
vn -0.3411 0.0446 -0.9390
vn -0.1228 -0.4941 -0.8607
vn 0.4383 -0.5797 -0.6869
vn -0.2223 -0.2101 0.9521
vn -0.8704 0.3493 -0.3469
vn 0.1654 0.1961 -0.9665
vn 0.9496 -0.2904 0.1178
vn 0.9363 0.0754 0.3428
vn 0.7067 0.2056 0.6770
vn 0.2284 0.5073 -0.8309
vn 0.7740 0.2079 -0.5980
vn 0.5866 0.3487 0.7309
vn -0.0183 0.3427 0.9392
vn -0.6508 0.4533 0.6091
vn -0.5526 0.3132 0.7723
vn -0.8292 0.4850 0.2777
vn -0.8629 0.4958 0.0977
vn -0.7606 0.6009 -0.2458
vn -0.3720 0.6094 -0.7001
vn -0.6058 0.3920 -0.6923
vn 0.5537 0.4894 -0.6737
vn 0.9058 0.4087 0.1114
vn 0.9700 0.2370 0.0544
vn 0.7854 0.4333 0.4421
vn 0.8401 0.3580 0.4074
vn 0.3073 0.3363 0.8902
vn -0.4149 0.5585 0.7183
vn -0.6613 0.7496 0.0265
vn -0.2307 0.6655 -0.7099
vn 0.8159 0.5539 -0.1654
vn 0.4275 0.7538 -0.4990
vn 0.3816 0.5752 0.7235
vn 0.4835 0.8656 0.1297
vn -0.3123 0.9499 0.0022
vn 0.4724 -0.5992 -0.6464
vn -0.4344 -0.8538 -0.2869
vn 0.9275 0.1485 0.3430
vn 0.0910 -0.3565 0.9298
vn -0.0273 -0.9033 -0.4280
vn 0.1148 0.2842 0.9518
vn 0.4349 -0.4645 -0.7714
vn 0.4775 -0.6286 0.6138
vn -0.7797 -0.6261 0.0067
vn -0.6623 0.0479 -0.7476
vn -0.5677 -0.7757 0.2754
vn 0.5736 -0.7572 0.3124
usemtl Organs
s 1
f 4/1/1 102/2/2 2/3/3
f 10/4/4 11/5/5 12/6/6
f 12/6/6 11/5/5 46/7/7
f 76/8/8 16/9/9 15/10/10
f 19/11/11 20/12/12 21/13/13
f 29/14/14 24/15/15 23/16/16
f 27/17/17 28/18/18 26/19/19
f 37/20/20 36/21/21 54/22/22
f 38/23/23 52/24/24 36/21/21
f 26/19/19 60/25/25 27/17/17
f 27/17/17 45/26/26 43/27/27
f 60/25/25 45/26/26 27/17/17
f 60/25/25 46/7/7 45/26/26
f 46/7/7 9/28/28 44/29/29
f 5/30/30 48/31/31 9/28/28
f 8/32/32 47/33/33 44/29/29
f 20/12/12 56/34/34 40/35/35
f 53/36/36 36/21/21 52/24/24
f 33/37/37 56/34/34 35/38/38
f 56/34/34 37/20/20 35/38/38
f 58/39/39 36/21/21 37/20/20
f 38/23/23 58/39/39 59/40/40
f 30/41/41 29/42/14 39/43/42
f 60/25/25 41/44/43 42/45/44
f 61/46/45 10/4/4 12/6/6
f 62/47/46 63/48/47 10/4/4
f 68/49/48 10/4/4 63/48/47
f 63/48/47 64/50/49 68/49/48
f 67/51/50 17/52/51 69/53/52
f 71/54/53 72/55/54 49/56/55
f 49/56/55 48/31/31 71/54/53
f 72/55/54 50/57/56 49/56/55
f 50/57/56 73/58/57 47/33/33
f 43/27/27 47/33/33 73/58/57
f 73/58/57 75/59/58 43/27/27
f 23/60/16 43/27/27 75/59/58
f 25/61/59 78/62/60 23/16/16
f 23/16/16 78/62/60 29/14/14
f 63/48/47 62/47/46 2/3/3
f 80/63/61 63/48/47 79/64/62
f 66/65/63 80/63/61 81/66/64
f 81/66/64 83/67/65 66/65/63
f 81/66/64 82/68/66 83/67/65
f 82/68/66 84/69/67 83/67/65
f 84/70/67 87/71/68 86/72/69
f 72/55/54 73/58/57 50/57/56
f 73/58/57 88/73/70 74/74/71
f 76/8/8 75/75/58 74/76/71
f 15/10/10 77/77/72 76/8/8
f 77/78/72 13/79/73 78/62/60
f 13/79/73 101/80/74 7/81/75
f 89/82/76 90/83/77 101/80/74
f 4/1/1 7/81/75 90/83/77
f 4/1/1 19/11/11 7/81/75
f 90/83/77 102/2/2 4/1/1
f 92/84/78 94/85/79 93/86/80
f 96/87/81 93/86/80 94/85/79
f 98/88/82 74/76/71 88/89/70
f 87/90/68 97/91/83 95/92/84
f 97/91/83 82/68/66 95/92/84
f 93/86/80 96/87/81 81/66/64
f 81/66/64 79/64/62 93/86/80
f 91/93/85 93/86/80 79/64/62
f 91/93/85 63/48/47 3/94/86
f 79/64/62 63/48/47 91/93/85
f 82/68/66 81/66/64 96/87/81
f 74/76/71 98/88/82 76/8/8
f 16/9/9 76/8/8 98/88/82
f 99/95/87 15/10/10 16/9/9
f 99/96/87 107/97/88 15/98/10
f 101/80/74 14/99/89 100/100/90
f 102/2/2 90/83/77 89/82/76
f 109/101/91 3/94/86 108/102/92
f 91/93/85 3/94/86 109/101/91
f 103/103/93 104/104/94 92/84/78
f 95/92/84 94/85/79 105/105/95
f 105/105/95 98/88/82 95/92/84
f 16/9/9 98/88/82 105/105/95
f 106/106/96 16/9/9 105/105/95
f 16/9/9 106/106/96 99/95/87
f 100/100/90 118/107/97 101/80/74
f 89/82/76 111/108/98 102/2/2
f 104/104/94 103/103/93 114/109/99
f 123/110/100 116/111/101 107/97/88
f 118/107/97 107/97/88 116/111/101
f 118/107/97 125/112/102 89/82/76
f 125/112/102 111/108/98 89/82/76
f 111/108/98 126/113/103 102/2/2
f 120/114/104 108/102/92 126/113/103
f 112/115/105 108/102/92 120/114/104
f 113/116/106 109/101/91 112/115/105
f 106/117/96 114/118/99 128/119/107
f 110/120/108 115/121/109 99/96/87
f 126/113/103 111/108/98 119/122/110
f 112/115/105 127/123/111 113/116/106
f 115/121/109 110/120/108 122/124/112
f 117/125/113 124/126/114 118/107/97
f 133/127/115 118/107/97 124/126/114
f 127/128/111 114/118/99 113/129/106
f 128/119/107 129/130/116 122/124/112
f 129/130/116 130/131/117 122/124/112
f 130/131/117 123/110/100 115/121/109
f 124/126/114 117/125/113 123/110/100
f 133/127/115 142/132/118 125/112/102
f 134/133/119 126/113/103 119/122/110
f 136/134/120 126/113/103 135/135/121
f 136/134/120 143/136/122 137/137/123
f 137/137/123 120/114/104 136/134/120
f 137/138/123 144/139/124 127/128/111
f 138/140/125 128/119/107 121/141/126
f 138/140/125 129/130/116 128/119/107
f 139/142/127 130/131/117 129/130/116
f 130/131/117 140/143/128 131/144/129
f 131/144/129 141/145/130 132/146/131
f 132/146/131 142/132/118 133/127/115
f 142/132/118 148/147/132 134/133/119
f 142/132/118 134/133/119 125/112/102
f 136/134/120 134/133/119 149/148/133
f 145/149/134 146/150/135 144/139/124
f 146/150/135 129/130/116 138/140/125
f 146/150/135 139/142/127 129/130/116
f 140/143/128 139/142/127 147/151/136
f 148/147/132 142/132/118 141/145/130
f 145/152/134 144/153/124 143/136/122
f 151/154/137 141/145/130 147/151/136
f 6/155/138 148/147/132 141/145/130
f 1/156/139 150/157/140 6/155/138
f 149/148/133 6/155/138 150/157/140
f 150/158/140 1/156/139 151/154/137
f 100/100/90 77/78/72 15/98/10
f 14/99/89 13/79/73 100/100/90
f 70/159/141 17/160/51 86/72/69
f 17/160/51 85/161/142 86/72/69
f 85/162/142 66/65/63 83/67/65
f 66/65/63 64/50/49 80/63/61
f 62/47/46 61/46/45 19/11/11
f 19/11/11 2/3/3 62/47/46
f 19/11/11 22/163/143 20/12/12
f 22/163/143 42/45/44 20/12/12
f 22/163/143 12/6/6 60/25/25
f 69/53/52 68/49/48 67/51/50
f 11/5/5 10/4/4 68/49/48
f 152/164/144 69/53/52 5/30/30
f 9/28/28 46/7/7 11/5/5
f 11/5/5 152/164/144 9/28/28
f 30/41/41 59/40/40 28/18/18
f 59/40/40 41/44/43 26/19/19
f 58/39/39 57/165/145 41/44/43
f 57/165/145 42/45/44 41/44/43
f 57/165/145 56/34/34 42/45/44
f 51/166/146 53/167/36 52/168/24
f 51/166/146 33/37/37 53/167/36
f 2/3/3 102/2/2 3/94/86
f 21/13/13 78/62/60 19/11/11
f 24/169/15 29/42/14 30/41/41
f 31/170/147 53/167/36 32/171/148
f 35/38/38 55/172/149 33/37/37
f 34/173/150 35/38/38 54/22/22
f 39/43/42 52/24/24 38/23/23
f 40/35/35 39/174/42 21/13/13
f 20/12/12 40/35/35 21/13/13
f 45/26/26 46/7/7 44/29/29
f 8/32/32 44/29/29 9/28/28
f 9/28/28 48/31/31 8/32/32
f 48/31/31 49/56/55 8/32/32
f 8/32/32 49/56/55 47/33/33
f 49/56/55 50/57/56 47/33/33
f 45/26/26 44/29/29 47/33/33
f 47/33/33 43/27/27 45/26/26
f 26/19/19 28/18/18 59/40/40
f 20/12/12 42/45/44 56/34/34
f 40/35/35 51/166/146 52/168/24
f 52/168/24 39/174/42 40/35/35
f 32/171/148 33/37/37 55/172/149
f 54/22/22 53/36/36 31/175/147
f 33/37/37 32/171/148 53/167/36
f 33/37/37 51/166/146 56/34/34
f 37/20/20 54/22/22 35/38/38
f 37/20/20 57/165/145 58/39/39
f 58/39/39 38/23/23 36/21/21
f 38/23/23 59/40/40 30/41/41
f 38/23/23 30/41/41 39/43/42
f 29/14/14 21/13/13 39/174/42
f 60/25/25 26/19/19 41/44/43
f 60/25/25 12/6/6 46/7/7
f 61/46/45 62/47/46 10/4/4
f 65/176/151 68/49/48 64/50/49
f 64/50/49 66/65/63 65/176/151
f 67/51/50 68/49/48 65/176/151
f 65/176/151 85/162/142 67/51/50
f 70/159/141 71/54/53 17/160/51
f 71/54/53 70/159/141 72/55/54
f 48/31/31 18/177/152 71/54/53
f 73/58/57 74/178/71 75/59/58
f 23/60/16 27/17/17 43/27/27
f 23/60/16 75/59/58 25/179/59
f 23/60/16 24/169/15 28/18/18
f 28/18/18 27/17/17 23/60/16
f 25/61/59 77/78/72 78/62/60
f 78/62/60 21/13/13 29/14/14
f 7/81/75 19/11/11 78/62/60
f 84/70/67 85/161/142 83/180/65
f 87/71/68 70/159/141 86/72/69
f 70/159/141 87/71/68 88/73/70
f 88/73/70 72/55/54 70/159/141
f 72/55/54 88/73/70 73/58/57
f 76/8/8 25/181/59 75/75/58
f 76/8/8 77/77/72 25/181/59
f 78/62/60 13/79/73 7/81/75
f 13/79/73 14/99/89 101/80/74
f 101/80/74 90/83/77 7/81/75
f 4/1/1 2/3/3 19/11/11
f 92/84/78 93/86/80 91/93/85
f 92/84/78 104/104/94 94/85/79
f 96/87/81 94/85/79 95/92/84
f 95/92/84 98/88/82 88/89/70
f 88/89/70 87/90/68 95/92/84
f 95/92/84 82/68/66 96/87/81
f 81/66/64 80/63/61 79/64/62
f 3/94/86 63/48/47 2/3/3
f 97/91/83 84/69/67 82/68/66
f 87/71/68 84/70/67 97/182/83
f 107/97/88 100/100/90 15/98/10
f 108/102/92 3/94/86 102/2/2
f 91/93/85 109/101/91 103/103/93
f 103/103/93 92/84/78 91/93/85
f 104/104/94 105/105/95 94/85/79
f 118/107/97 100/100/90 107/97/88
f 101/80/74 118/107/97 89/82/76
f 114/109/99 106/106/96 104/104/94
f 104/104/94 106/106/96 105/105/95
f 99/96/87 106/117/96 110/120/108
f 99/96/87 123/110/100 107/97/88
f 126/113/103 108/102/92 102/2/2
f 112/115/105 109/101/91 108/102/92
f 113/116/106 103/103/93 109/101/91
f 106/117/96 128/119/107 110/120/108
f 115/121/109 123/110/100 99/96/87
f 116/111/101 117/125/113 118/107/97
f 111/108/98 125/112/102 119/122/110
f 128/119/107 114/118/99 121/141/126
f 110/120/108 128/119/107 122/124/112
f 116/111/101 123/110/100 117/125/113
f 133/127/115 125/112/102 118/107/97
f 127/128/111 121/141/126 114/118/99
f 121/141/126 127/128/111 144/139/124
f 122/124/112 130/131/117 115/121/109
f 130/131/117 131/144/129 123/110/100
f 123/110/100 131/144/129 132/146/131
f 123/110/100 132/146/131 124/126/114
f 124/126/114 132/146/131 133/127/115
f 134/133/119 119/122/110 125/112/102
f 134/133/119 135/135/121 126/113/103
f 135/135/121 134/133/119 136/134/120
f 136/134/120 120/114/104 126/113/103
f 137/137/123 112/115/105 120/114/104
f 137/137/123 127/123/111 112/115/105
f 144/139/124 138/140/125 121/141/126
f 130/131/117 139/142/127 140/143/128
f 131/144/129 140/143/128 141/145/130
f 132/146/131 141/145/130 142/132/118
f 134/133/119 148/147/132 149/148/133
f 136/134/120 149/148/133 143/136/122
f 144/153/124 137/137/123 143/136/122
f 144/139/124 146/150/135 138/140/125
f 146/150/135 151/154/137 139/142/127
f 139/142/127 151/154/137 147/151/136
f 147/151/136 141/145/130 140/143/128
f 149/148/133 145/152/134 143/136/122
f 145/149/134 150/158/140 146/150/135
f 150/158/140 151/154/137 146/150/135
f 151/154/137 1/156/139 141/145/130
f 1/156/139 6/155/138 141/145/130
f 150/157/140 145/152/134 149/148/133
f 6/155/138 149/148/133 148/147/132
f 114/118/99 103/183/93 113/129/106
f 100/100/90 13/79/73 77/78/72
f 17/160/51 67/184/50 85/161/142
f 85/161/142 84/70/67 86/72/69
f 85/162/142 65/176/151 66/65/63
f 64/50/49 63/48/47 80/63/61
f 22/163/143 60/25/25 42/45/44
f 22/163/143 19/11/11 61/46/45
f 22/163/143 61/46/45 12/6/6
f 18/177/152 69/53/52 17/52/51
f 69/53/52 152/164/144 68/49/48
f 11/5/5 68/49/48 152/164/144
f 5/30/30 9/28/28 152/164/144
f 69/53/52 18/177/152 5/30/30
f 71/54/53 18/177/152 17/160/51
f 30/41/41 28/18/18 24/169/15
f 59/40/40 58/39/39 41/44/43
f 53/36/36 54/22/22 36/21/21
f 34/173/150 31/175/147 55/172/149
f 55/172/149 35/38/38 34/173/150
f 31/175/147 32/171/148 55/172/149
f 34/173/150 54/22/22 31/175/147
f 51/166/146 40/35/35 56/34/34
f 57/165/145 37/20/20 56/34/34
f 48/31/31 5/30/30 18/177/152
