# Blender v2.78 (sub 0) OBJ File: ''
# www.blender.org
mtllib organs_kidney_right_collision.mtl
o Kidney_right_polySurface1.006
v -6.353158 -5.896227 0.265791
v -7.061795 -5.946181 -0.333119
v -6.693712 -6.959550 0.082723
v -5.957426 -9.638105 0.217872
v -5.412545 -9.334400 0.040029
v -4.816138 -9.724240 0.378001
v -4.888282 -6.712021 -2.476598
v -4.549269 -5.543072 -2.006960
v -3.987636 -6.335712 -1.380382
v -4.667437 -7.522062 -1.208855
v -4.978331 -8.525056 -1.226419
v -4.323311 -8.742721 -1.283911
v -3.888623 -9.939558 0.437647
v -3.940637 -9.756658 0.227231
v -3.715761 -10.477479 0.408224
v -3.908358 -9.247064 -0.146785
v -3.655828 -9.245751 0.048228
v -4.087333 -8.508407 -0.401736
v -4.362147 -8.109736 -0.241216
v -5.173513 -8.832556 -0.513916
v -5.616626 -8.524869 -0.565899
v -5.423833 -9.018139 -0.630957
v -4.224683 -9.107122 -0.645279
v -4.572732 -9.107467 -1.082167
v -4.579166 -9.165839 -0.080837
v -5.007561 -8.937961 -1.082930
v -4.285208 -8.669552 0.194616
v -4.708906 -8.048123 -0.226939
v -5.353215 -7.841566 -0.528476
v -3.563506 -10.463346 0.288403
v -3.479538 -10.505966 0.366402
v -3.643803 -10.553925 0.306074
v -3.618729 -10.534401 0.641416
v -3.728810 -10.613129 0.572389
v -5.302268 -9.155951 -0.226837
v -6.242630 -8.478393 0.313329
v -7.044029 -8.439474 -0.058300
v -5.851602 -10.698436 0.210861
v -7.176267 -9.227087 -0.324493
v -7.026655 -10.499743 -0.806853
v -6.464387 -10.846524 -0.373816
v -4.182072 -9.506762 -1.833795
v -4.330595 -9.504186 -2.184603
v -4.206243 -8.202708 -1.514353
v -4.861046 -7.798504 -1.172684
v -4.490023 -7.267164 -1.502777
v -4.540413 -6.928781 -1.987833
v -5.113571 -7.689845 -0.674348
v -4.481854 -7.406302 -0.262823
v -4.855448 -7.252981 0.227119
v -5.531629 -7.603600 -0.155788
v -7.629787 -8.728230 -0.844726
v -4.736227 -10.839015 -2.356933
v -4.866407 -8.309711 -2.743256
v -4.889786 -9.874509 -2.706456
v -4.256362 -8.165881 -1.953975
v -4.160604 -7.181058 -0.924567
v -7.629290 -6.559867 -1.156293
v -7.261398 -7.322305 -2.666071
v -6.239311 -6.827214 -3.052000
v -6.743184 -8.348467 -3.084617
v -5.817752 -8.525868 -3.193695
v -6.047944 -9.949405 -3.003412
v -7.595394 -7.086136 -0.770784
v -7.815619 -7.844512 -1.446542
v -7.675350 -9.273865 -1.455764
v -5.547640 -10.803317 -2.636971
v -5.587701 -6.994805 -2.975420
v -4.786172 -5.032721 -1.951368
v -4.782091 -6.054692 0.577416
v -5.019749 -5.409829 0.462717
v -5.151120 -6.174975 0.665996
v -7.182869 -5.692398 -1.187029
v -6.721684 -5.048767 -1.020730
v -7.073910 -5.877978 -2.019225
v -5.669984 -5.712112 -2.626819
v -6.485404 -6.085595 -2.694785
v -5.694513 -4.942699 -2.085933
v -3.793580 -6.084689 -0.692642
v -4.217066 -5.113054 -1.396466
v -4.021932 -5.307321 -0.819551
v -4.175645 -5.454829 -0.141157
v -4.475606 -5.451313 0.218785
v -5.949136 -5.238132 0.332292
v -6.372086 -5.022639 -1.775203
v -4.634878 -4.975887 -2.168511
v -4.160366 -5.304207 0.120595
v -4.946364 -5.346711 0.645837
v -5.918573 -5.075505 0.645886
v -6.912185 -4.871960 -0.865564
v -6.041552 -4.701527 -2.196150
v -5.297299 -4.807651 -2.355680
v -4.885924 -5.025257 0.663838
v -6.709158 -4.950028 -0.014274
v -6.746016 -4.908442 -1.490485
v -5.124557 -4.533130 -2.322605
v -4.203451 -4.780725 -1.895181
v -3.806267 -5.177547 -0.894193
v -3.876949 -4.734032 -1.272301
v -5.441367 -3.944814 0.376415
v -6.080802 -4.167150 0.256556
v -6.273839 -4.529469 -1.923738
v -4.050466 -4.470800 -0.313930
v -6.298603 -3.920269 -0.257815
v -5.665089 -3.603434 -1.566914
v -4.508066 -3.804592 -1.611273
v -4.062722 -3.860132 -0.900642
v -4.396235 -3.453705 -0.576363
v -4.686181 -3.738064 0.000825
v -6.206357 -3.736891 -0.877008
v -5.116360 -3.425664 -1.605569
v -4.727832 -2.819110 -1.034540
v -5.619082 -2.883058 -0.488312
v -5.110735 -2.663101 -0.836581
v -4.721292 -2.668328 -0.384760
v -4.847200 -2.745394 -0.164703
v -4.959176 -2.473825 -0.487259
v -5.518431 -8.260300 0.075810
v -5.240611 -10.316924 0.452437
v -5.090214 -9.057181 -0.771491
v -4.528567 -8.844577 -0.660716
v -4.615911 -8.819800 -0.036872
v -3.505693 -9.902077 0.382222
v -3.518115 -9.900271 0.506335
v -3.456924 -10.587715 0.498332
v -4.124551 -9.364249 0.247614
v -5.662786 -6.315489 0.586552
v -5.134062 -6.815153 0.592415
v -4.025151 -9.510567 -0.107940
v -3.835682 -10.014414 -0.066282
v -3.903136 -6.823562 -0.546830
v -4.952119 -7.834856 -0.967933
v -4.211670 -9.035433 -0.318837
v -3.849748 -8.779323 0.135078
v -4.566487 -10.316360 0.423240
v -3.917779 -10.625678 -0.014438
v -3.646426 -10.739079 -0.542431
v -3.687825 -9.689562 -1.038007
v -3.628523 -9.935755 -0.588537
v -4.455823 -9.005488 -0.199215
v -5.730652 -8.418447 0.279244
v -6.107298 -11.384064 -0.685281
v -5.749294 -11.325944 -0.212370
v -5.321127 -11.633125 -1.510320
v -4.774230 -11.416160 -1.889302
v -4.469243 -11.599426 -1.094517
v -3.945047 -10.638959 -1.822135
v -3.685839 -10.927000 -1.058802
v -3.587513 -10.308211 -1.253037
v -4.292435 -9.241128 -1.283102
v -5.991332 -7.292342 0.174868
v -7.292045 -9.708389 -2.304103
v -7.101987 -10.338778 -2.023216
v -7.130951 -10.537686 -1.408680
v -6.595347 -10.408256 -2.577543
v -7.159528 -9.040724 -2.738077
v -6.266743 -11.026006 -2.243890
v -5.547623 -11.345740 -2.107544
v -4.180905 -6.729350 0.131320
v -4.345965 -6.374119 0.353964
v -7.569270 -6.839931 -2.020303
v -7.676452 -8.301893 -2.112234
v -6.544789 -5.105374 -0.236861
v -3.818501 -4.887253 -0.502536
v -5.462432 -3.042980 -0.128305
v -4.085802 -11.335130 -0.465261
v -4.750718 -11.531747 -0.272465
v -5.132093 -11.113734 0.219378
v -4.463160 -10.961991 0.199799
v -6.627283 -11.117435 -1.487913
v -6.088795 -11.452866 -1.512984
v -5.457776 -11.665025 -0.841377
v -4.092295 -11.251061 -1.522002
v -4.006617 -6.053374 -0.034769
vt 0.5680 0.2063
vt 0.5565 0.2037
vt 0.5640 0.1964
vt 0.5920 0.3147
vt 0.5858 0.3056
vt 0.5912 0.3038
vt 0.5641 0.3197
vt 0.5664 0.3173
vt 0.5650 0.3257
vt 0.5727 0.3162
vt 0.5708 0.3132
vt 0.5781 0.3115
vt 0.5746 0.2922
vt 0.5773 0.2877
vt 0.5781 0.2967
vt 0.5905 0.2946
vt 0.5890 0.2990
vt 0.5857 0.2896
vt 0.5829 0.3009
vt 0.5619 0.3050
vt 0.5585 0.2970
vt 0.5574 0.2888
vt 0.5693 0.2732
vt 0.5706 0.2634
vt 0.5809 0.2753
vt 0.5915 0.2698
vt 0.5784 0.2608
vt 0.5905 0.2573
vt 0.5926 0.2630
vt 0.5962 0.3087
vt 0.5972 0.3162
vt 0.5890 0.3128
vt 0.5522 0.2903
vt 0.5432 0.2925
vt 0.5424 0.2845
vt 0.5459 0.2789
vt 0.5568 0.2818
vt 0.6142 0.3065
vt 0.6094 0.3022
vt 0.6208 0.3005
vt 0.5686 0.1926
vt 0.5693 0.2007
vt 0.5713 0.2320
vt 0.5685 0.2216
vt 0.5820 0.2284
vt 0.5637 0.2509
vt 0.5604 0.2441
vt 0.5716 0.2462
vt 0.5805 0.1997
vt 0.5844 0.2090
vt 0.5241 0.2776
vt 0.5099 0.2706
vt 0.5177 0.2707
vt 0.5353 0.2623
vt 0.5334 0.2609
vt 0.5409 0.2553
vt 0.5608 0.2242
vt 0.5470 0.2280
vt 0.5478 0.2179
vt 0.5264 0.2658
vt 0.5305 0.2659
vt 0.5257 0.2687
vt 0.5378 0.2531
vt 0.4873 0.2539
vt 0.4873 0.2587
vt 0.4815 0.2510
vt 0.4928 0.2598
vt 0.4962 0.2583
vt 0.4993 0.2647
vt 0.5162 0.2684
vt 0.5190 0.2647
vt 0.5310 0.2583
vt 0.5289 0.2472
vt 0.4816 0.2455
vt 0.4870 0.2500
vt 0.4938 0.2384
vt 0.4980 0.2459
vt 0.5052 0.2551
vt 0.5134 0.2554
vt 0.5046 0.2647
vt 0.5197 0.2596
vt 0.5151 0.2489
vt 0.5222 0.2501
vt 0.5351 0.2335
vt 0.5342 0.2391
vt 0.5239 0.2352
vt 0.5097 0.2432
vt 0.5024 0.2480
vt 0.5089 0.2387
vt 0.5152 0.2372
vt 0.5147 0.2404
vt 0.4784 0.2443
vt 0.5671 0.3030
vt 0.5716 0.2959
vt 0.5593 0.3203
vt 0.5602 0.3200
vt 0.5592 0.3267
vt 0.5897 0.2764
vt 0.5790 0.2829
vt 0.5872 0.2825
vt 0.5666 0.3267
vt 0.5777 0.3134
vt 0.5751 0.3150
vt 0.5681 0.2894
vt 0.5918 0.2890
vt 0.5931 0.2802
vt 0.5997 0.2819
vt 0.5960 0.2863
vt 0.5997 0.2933
vt 0.5985 0.2895
vt 0.5955 0.2997
vt 0.5572 0.3002
vt 0.5595 0.3090
vt 0.5729 0.3181
vt 0.5715 0.3213
vt 0.5679 0.3262
vt 0.5692 0.3269
vt 0.5718 0.3086
vt 0.5658 0.3124
vt 0.5765 0.3043
vt 0.5871 0.3130
vt 0.5832 0.3136
vt 0.5496 0.2929
vt 0.5681 0.2783
vt 0.6000 0.2616
vt 0.5985 0.2668
vt 0.6196 0.2832
vt 0.6139 0.2773
vt 0.6227 0.2778
vt 0.5713 0.1966
vt 0.5456 0.2729
vt 0.5562 0.2725
vt 0.5574 0.2625
vt 0.5827 0.2487
vt 0.5949 0.2451
vt 0.5932 0.2515
vt 0.5973 0.2363
vt 0.5904 0.2408
vt 0.5864 0.2356
vt 0.6262 0.2832
vt 0.6332 0.2845
vt 0.6281 0.2903
vt 0.6119 0.2907
vt 0.6201 0.2908
vt 0.6041 0.2999
vt 0.6051 0.2905
vt 0.6008 0.3096
vt 0.5779 0.1960
vt 0.5367 0.2780
vt 0.5361 0.2737
vt 0.5376 0.2685
vt 0.5415 0.2676
vt 0.5525 0.2504
vt 0.5534 0.2398
vt 0.5955 0.2143
vt 0.5854 0.2202
vt 0.5960 0.2249
vt 0.5772 0.2408
vt 0.5705 0.2153
vt 0.5567 0.2162
vt 0.5496 0.2057
vt 0.5204 0.2836
vt 0.5449 0.2467
vt 0.5478 0.2571
vt 0.5471 0.2386
vt 0.5507 0.1995
vt 0.5569 0.2325
vt 0.4981 0.2670
vt 0.5421 0.2456
vt 0.5452 0.2377
vt 0.4808 0.2414
vt 0.5113 0.2656
vt 0.5336 0.2453
vt 0.5235 0.2389
vt 0.5035 0.2359
vt 0.5173 0.2404
vt 0.6027 0.2486
vt 0.5994 0.2436
vt 0.5663 0.2819
vt 0.5992 0.2772
vt 0.6048 0.2718
vt 0.6067 0.2776
vt 0.5698 0.3057
vt 0.5457 0.2653
vt 0.5341 0.2878
vt 0.5315 0.2823
vt 0.5478 0.2929
vt 0.6034 0.2839
vt 0.5613 0.3262
vt 0.5625 0.3269
vt 0.5994 0.2532
vt 0.6047 0.2553
vt 0.6118 0.2703
vt 0.6056 0.2640
vt 0.6129 0.2836
vt 0.6073 0.2851
vt 0.5763 0.2536
vt 0.5895 0.2045
vt 0.5299 0.2739
vt 0.5652 0.2374
vt 0.5974 0.2729
vt 0.6100 0.2615
vt 0.5353 0.2937
vt 0.6390 0.2895
vt 0.6331 0.2968
vt 0.5103 0.2789
vt 0.6295 0.2790
vn 0.6575 0.1236 -0.7432
vn 0.6534 0.2223 -0.7236
vn 0.8989 -0.0889 -0.4291
vn 0.7498 -0.4931 0.4413
vn 0.8958 0.0657 0.4396
vn 0.5858 0.1173 0.8020
vn -0.7505 -0.0899 0.6547
vn -0.8514 -0.4060 -0.3321
vn -0.8837 -0.3529 -0.3074
vn 0.9223 0.1583 -0.3525
vn 0.3430 -0.3572 -0.8688
vn 0.8115 0.2903 -0.5071
vn 0.6796 0.5482 0.4875
vn 0.5595 0.7688 0.3097
vn 0.5020 0.3171 0.8046
vn 0.4355 0.8979 0.0645
vn 0.3099 0.8158 0.4883
vn 0.1866 0.8357 0.5166
vn 0.9030 0.1984 0.3812
vn -0.1577 0.3143 0.9361
vn -0.0387 0.6551 0.7545
vn 0.3935 -0.0603 0.9173
vn -0.1886 -0.0336 0.9815
vn -0.6150 -0.0495 0.7870
vn -0.1542 0.0351 0.9874
vn -0.4121 -0.3284 0.8499
vn -0.7189 -0.2139 0.6613
vn -0.7909 -0.4754 0.3854
vn -0.6419 -0.5092 0.5733
vn 0.9393 0.1617 0.3026
vn 0.9752 -0.2064 -0.0797
vn 0.6760 -0.2351 0.6984
vn 0.7346 -0.2152 0.6434
vn 0.5172 -0.7946 0.3181
vn 0.2786 -0.6751 0.6832
vn 0.5828 -0.4729 0.6608
vn 0.6137 0.0555 -0.7876
vn 0.8080 0.0395 -0.5879
vn 0.4778 -0.1352 -0.8680
vn 0.7737 -0.6147 -0.1538
vn 0.8852 -0.0339 -0.4639
vn -0.6737 0.1709 -0.7190
vn -0.1353 0.2310 -0.9635
vn -0.3747 -0.0197 -0.9269
vn -0.8788 0.0953 0.4676
vn -0.9454 0.3122 0.0937
vn -0.9995 0.0288 0.0159
vn 0.9283 0.1369 -0.3457
vn 0.9972 0.0707 0.0243
vn 0.7474 -0.3799 -0.5450
vn 0.8975 -0.4076 -0.1686
vn 0.0243 -0.4762 0.8790
vn 0.1419 -0.5858 0.7979
vn -0.4770 -0.3957 0.7848
vn -0.3882 0.4556 -0.8011
vn -0.6752 0.1308 -0.7260
vn -0.2000 -0.1439 -0.9692
vn 0.7420 -0.2876 0.6056
vn 0.5890 -0.2360 0.7729
vn 0.9031 -0.1482 0.4030
vn -0.3775 -0.3017 0.8755
vn -0.4205 -0.0443 -0.9062
vn -0.0497 -0.3961 -0.9169
vn 0.1312 0.3204 -0.9382
vn 0.3237 -0.5626 -0.7607
vn 0.8507 -0.4963 -0.1731
vn 0.9599 0.0428 0.2769
vn 0.3378 0.1178 0.9338
vn -0.0240 0.3850 0.9226
vn -0.8714 -0.2241 -0.4364
vn -0.6681 0.4217 -0.6131
vn -0.7851 0.5867 -0.1984
vn -0.4597 0.6279 -0.6281
vn 0.5826 0.4656 -0.6662
vn 0.9066 0.4189 -0.0501
vn 0.7315 -0.1057 -0.6736
vn 0.7879 0.3080 0.5333
vn 0.8491 0.4114 0.3312
vn 0.5934 0.3008 0.7466
vn -0.7969 0.5195 0.3084
vn -0.6663 0.7407 0.0866
vn 0.5007 0.7056 -0.5014
vn 0.0074 0.6102 -0.7922
vn -0.2798 0.8247 -0.4915
vn 0.0386 0.9932 0.1098
vn 0.7656 0.5876 0.2619
vn -0.9897 -0.1298 -0.0600
vn -0.6855 -0.2238 0.6928
vn -0.3826 -0.7366 0.5577
vn 0.9869 0.1335 -0.0910
vn 0.6024 0.2733 0.7500
vn 0.9914 0.0871 0.0980
vn -0.1186 -0.0651 0.9908
vn 0.2700 0.4274 0.8628
vn 0.1392 0.3766 0.9159
vn -0.5161 -0.4000 -0.7574
vn 0.5412 0.7944 0.2758
vn 0.7026 0.5425 0.4605
vn 0.7242 0.0198 0.6893
vn 0.6414 0.5205 0.5636
vn 0.2938 -0.0355 0.9552
vn 0.6973 -0.2491 0.6721
vn 0.7567 0.1520 0.6358
vn 0.8658 0.4791 -0.1442
vn 0.9481 0.2424 0.2058
vn 0.8390 0.5338 0.1058
vn 0.4176 -0.2051 -0.8852
vn 0.7373 -0.0666 -0.6723
vn -0.4890 -0.8542 -0.1768
vn -0.8918 -0.3501 0.2865
vn 0.4160 -0.7157 -0.5610
vn 0.9465 0.3135 0.0761
vn 0.3772 0.0563 0.9244
vn -0.5116 -0.8117 0.2818
vn -0.3505 -0.7469 0.5651
vn 0.2856 -0.7885 -0.5447
vn 0.3488 -0.9341 -0.0756
vn -0.0399 -0.9699 -0.2402
vn 0.0879 -0.3612 0.9283
vn -0.0137 -0.1927 0.9812
vn -0.4831 0.0096 0.8755
vn -0.9656 -0.2600 0.0093
vn -0.7799 -0.5100 -0.3629
vn -0.8429 -0.5380 -0.0080
vn -0.4879 -0.4868 -0.7245
vn -0.8098 -0.3319 -0.4839
vn -0.6506 -0.1772 -0.7385
vn -0.0798 -0.8168 -0.5713
vn -0.4140 -0.7083 -0.5718
vn 0.0510 -0.5129 -0.8569
vn 0.7604 -0.2001 -0.6178
vn 0.4250 -0.4241 -0.7997
vn 0.9249 0.2134 -0.3145
vn 0.9561 0.0227 -0.2920
vn 0.7202 -0.3338 0.6082
vn 0.5783 -0.0619 0.8135
vn 0.3613 0.1032 0.9267
vn 0.0327 0.0539 0.9980
vn -0.7831 0.3047 0.5421
vn -0.8492 0.5281 0.0003
vn 0.1488 -0.0241 -0.9886
vn -0.0905 -0.2874 -0.9535
vn -0.9188 -0.0499 -0.3915
vn 0.3378 0.1740 -0.9250
vn 0.1279 0.4351 -0.8913
vn 0.3191 -0.4889 -0.8119
vn -0.8407 -0.3260 0.4323
vn -0.5293 0.1492 0.8352
vn -0.7202 0.5202 -0.4590
vn -0.8481 -0.2578 0.4628
vn -0.9926 -0.1204 -0.0136
vn 0.9403 0.0964 -0.3263
vn -0.5403 0.4054 0.7373
vn -0.4183 0.5829 0.6966
vn 0.3210 0.5466 0.7734
vn 0.8997 0.1495 0.4101
vn 0.3423 -0.4767 0.8097
vn 0.1443 -0.8826 0.4475
vn 0.5935 -0.7406 0.3149
vn -0.4422 -0.8900 -0.1113
vn -0.2705 -0.0450 0.9617
vn 0.9251 -0.3612 0.1174
vn 0.9195 -0.2894 0.2660
vn -0.4658 0.0902 0.8803
vn -0.5495 0.0366 0.8347
vn -0.6561 -0.7485 -0.0963
vn -0.3943 -0.9013 -0.1794
vn -0.1536 -0.9776 0.1439
vn 0.6337 -0.6634 -0.3979
vn 0.8767 -0.4627 -0.1316
vn -0.9069 -0.1202 0.4039
vn 0.8639 0.1072 0.4921
vn -0.8834 0.2807 -0.3752
vn -0.0666 -0.5637 0.8233
usemtl organ_col
s 1
f 7/1/1 8/2/2 9/3/3
f 10/4/4 11/5/5 12/6/6
f 13/7/7 14/8/8 15/9/9
f 17/10/10 16/11/11 18/12/12
f 22/13/13 35/14/14 120/15/15
f 23/16/16 24/17/17 35/14/14
f 23/16/16 35/14/14 25/18/18
f 11/5/5 26/19/19 12/6/6
f 27/20/20 28/21/21 29/22/22
f 36/23/23 37/24/24 4/25/25
f 38/26/26 37/24/24 39/27/27
f 39/27/27 40/28/28 41/29/29
f 44/30/30 10/4/4 12/6/6
f 10/4/4 44/30/30 46/31/31
f 10/4/4 45/32/32 11/5/5
f 48/33/33 10/34/4 49/35/34
f 49/35/34 50/36/35 51/37/36
f 54/38/37 43/39/38 55/40/39
f 9/3/3 57/41/40 47/42/41
f 59/43/42 60/44/43 61/45/44
f 64/46/45 58/47/46 65/48/47
f 7/1/1 56/49/48 54/50/37
f 79/51/49 80/52/50 81/53/51
f 71/54/52 88/55/53 84/56/54
f 77/57/55 85/58/56 78/59/57
f 87/60/58 83/61/59 82/62/60
f 88/55/53 89/63/61 84/56/54
f 91/64/62 78/65/57 85/66/56
f 92/67/63 96/68/64 86/69/65
f 87/60/58 98/70/66 164/71/67
f 93/72/68 100/73/69 89/63/61
f 91/64/62 95/74/70 102/75/71
f 110/76/72 102/75/71 95/74/70
f 105/77/73 102/75/71 110/76/72
f 106/78/74 107/79/75 97/80/76
f 103/81/77 108/82/78 109/83/79
f 110/84/72 104/85/80 113/86/81
f 112/87/82 111/88/83 114/89/84
f 117/90/85 115/91/86 112/87/82
f 85/66/56 74/92/87 95/74/70
f 82/62/60 81/53/51 98/70/66
f 122/93/88 27/20/20 20/94/89
f 123/95/90 124/96/91 125/97/92
f 4/25/25 38/26/26 119/98/93
f 5/99/94 4/25/25 6/100/95
f 14/8/8 32/101/96 15/9/9
f 14/8/8 16/11/11 32/101/96
f 18/12/12 19/102/97 134/103/98
f 29/22/22 21/104/99 27/20/20
f 21/104/99 20/94/89 27/20/20
f 25/18/18 129/105/100 23/16/16
f 6/100/95 135/106/101 129/105/100
f 135/106/101 136/107/102 130/108/103
f 23/16/16 129/105/100 138/109/104
f 129/105/100 130/108/103 139/110/105
f 12/6/6 24/17/17 150/111/106
f 19/112/97 27/20/20 134/113/98
f 124/114/91 17/10/10 134/103/98
f 134/103/98 17/10/10 18/12/12
f 17/10/10 124/114/91 123/115/90
f 17/10/10 30/116/107 16/11/11
f 30/116/107 17/10/10 31/117/108
f 133/118/109 14/8/8 126/119/110
f 14/8/8 133/118/109 16/11/11
f 18/12/12 16/11/11 121/120/111
f 11/5/5 121/120/111 26/19/19
f 132/121/112 19/122/97 18/12/12
f 19/112/97 132/123/112 48/33/33
f 48/33/33 29/22/22 28/21/21
f 141/124/113 36/23/23 4/25/25
f 41/29/29 38/26/26 39/27/27
f 41/29/29 142/125/114 143/126/115
f 145/127/116 146/128/117 144/129/118
f 46/130/31 56/49/48 47/42/41
f 50/36/35 128/131/119 151/132/120
f 151/132/120 3/133/121 36/23/23
f 66/134/122 153/135/123 154/136/124
f 155/137/125 152/138/126 156/139/127
f 158/140/128 157/141/129 67/142/130
f 55/40/39 147/143/131 53/144/132
f 147/143/131 55/40/39 43/39/38
f 42/145/133 149/146/134 147/143/131
f 42/145/133 43/39/38 56/147/48
f 56/49/48 46/130/31 44/148/30
f 47/42/41 57/41/40 46/130/31
f 50/36/35 159/149/135 128/131/119
f 128/131/119 160/150/136 70/151/137
f 70/151/137 72/152/138 128/131/119
f 2/153/139 73/154/140 58/47/46
f 55/155/39 62/156/141 54/50/37
f 61/45/44 62/156/141 63/157/142
f 156/139/127 162/158/143 59/43/42
f 2/153/139 64/46/45 37/24/24
f 64/46/45 2/153/139 58/47/46
f 2/153/139 37/24/24 3/133/121
f 54/50/37 62/156/141 68/159/144
f 68/159/144 8/2/2 7/1/1
f 76/160/145 69/161/146 8/2/2
f 79/51/49 9/162/3 80/52/50
f 70/151/137 71/54/52 72/152/138
f 163/163/147 2/153/139 84/56/54
f 1/164/148 84/56/54 2/153/139
f 2/153/139 163/163/147 74/165/87
f 60/44/43 59/43/42 77/57/55
f 68/159/144 62/156/141 60/44/43
f 60/44/43 77/57/55 76/160/145
f 76/160/145 77/57/55 78/59/57
f 69/161/146 80/166/50 8/2/2
f 73/154/140 74/165/87 75/167/149
f 77/57/55 75/167/149 85/58/56
f 92/67/63 86/69/65 69/168/146
f 98/70/66 81/53/51 80/52/50
f 83/61/59 87/60/58 88/55/53
f 88/55/53 71/54/52 83/61/59
f 163/163/147 94/169/150 90/170/151
f 90/170/151 74/165/87 163/163/147
f 74/92/87 90/171/151 95/74/70
f 91/64/62 85/66/56 95/74/70
f 80/52/50 69/168/146 86/69/65
f 98/70/66 80/52/50 97/80/76
f 164/71/67 98/70/66 99/172/152
f 93/72/68 88/55/53 87/60/58
f 94/169/150 89/63/61 101/173/153
f 109/83/79 93/72/68 103/81/77
f 94/169/150 101/173/153 104/85/80
f 104/85/80 90/170/151 94/169/150
f 102/75/71 105/77/73 91/64/62
f 96/68/64 91/64/62 105/77/73
f 96/68/64 111/88/83 106/78/74
f 107/79/75 99/172/152 97/80/76
f 93/72/68 109/83/79 100/73/69
f 101/173/153 165/174/154 104/85/80
f 110/84/72 90/170/151 104/85/80
f 112/87/82 107/79/75 106/78/74
f 114/89/84 105/77/73 113/175/81
f 111/88/83 112/87/82 106/78/74
f 116/176/155 109/83/79 108/82/78
f 117/90/85 116/176/155 115/91/86
f 165/174/154 116/176/155 117/90/85
f 113/86/81 165/174/154 117/90/85
f 117/90/85 114/89/84 113/175/81
f 116/176/155 165/174/154 100/73/69
f 82/62/60 98/70/66 87/60/58
f 157/177/129 153/135/123 155/178/125
f 40/28/28 66/134/122 154/136/124
f 151/132/120 118/179/156 51/37/36
f 51/37/36 118/179/156 21/104/99
f 35/14/14 118/179/156 5/99/94
f 118/179/156 151/132/120 141/124/113
f 169/180/157 167/181/158 166/182/159
f 26/19/19 121/120/111 120/15/15
f 121/120/111 20/94/89 120/15/15
f 122/93/88 126/119/110 27/20/20
f 13/7/7 27/20/20 126/119/110
f 27/20/20 13/7/7 124/96/91
f 27/20/20 124/96/91 134/113/98
f 17/10/10 123/115/90 31/117/108
f 121/120/111 140/183/160 20/94/89
f 84/56/54 1/164/148 127/184/161
f 49/35/34 57/185/40 131/186/162
f 9/3/3 47/42/41 7/1/1
f 48/33/33 45/187/32 10/34/4
f 45/32/32 132/121/112 11/5/5
f 28/21/21 19/112/97 48/33/33
f 20/94/89 21/104/99 120/15/15
f 120/15/15 35/14/14 24/17/17
f 130/108/103 129/105/100 135/106/101
f 137/188/163 130/108/103 136/107/102
f 138/109/104 129/105/100 139/110/105
f 33/189/164 13/7/7 34/190/165
f 11/5/5 18/12/12 121/120/111
f 41/29/29 40/28/28 142/125/114
f 170/191/166 171/192/167 142/125/114
f 146/193/117 167/181/158 172/194/168
f 146/128/117 145/127/116 173/195/169
f 147/143/131 148/196/170 173/195/169
f 148/196/170 147/143/131 149/146/134
f 150/111/106 138/109/104 42/145/133
f 138/109/104 150/111/106 23/16/16
f 44/30/30 150/111/106 42/145/133
f 150/111/106 44/30/30 12/6/6
f 44/30/30 42/145/133 56/147/48
f 51/37/36 50/36/35 151/132/120
f 64/46/45 52/197/171 37/24/24
f 66/134/122 52/197/171 65/48/47
f 66/134/122 162/158/143 152/138/126
f 66/134/122 152/138/126 153/135/123
f 145/127/116 67/142/130 53/144/132
f 173/195/169 53/144/132 147/143/131
f 147/143/131 43/39/38 42/145/133
f 54/50/37 56/49/48 43/198/38
f 49/35/34 159/149/135 50/36/35
f 128/131/119 159/149/135 160/150/136
f 159/149/135 174/199/172 160/150/136
f 70/151/137 160/150/136 83/61/59
f 84/56/54 127/184/161 72/152/138
f 75/167/149 161/200/173 58/47/46
f 63/157/142 62/156/141 55/155/39
f 161/200/173 65/48/47 58/47/46
f 152/138/126 162/158/143 156/139/127
f 55/40/39 53/144/132 67/142/130
f 7/1/1 54/50/37 68/159/144
f 60/44/43 76/160/145 68/159/144
f 2/153/139 74/165/87 73/154/140
f 58/47/46 73/154/140 75/167/149
f 78/65/57 92/67/63 69/168/146
f 91/64/62 92/67/63 78/65/57
f 86/69/65 97/80/76 80/52/50
f 99/172/152 98/70/66 97/80/76
f 164/71/67 103/81/77 87/60/58
f 93/72/68 87/60/58 103/81/77
f 92/67/63 91/64/62 96/68/64
f 96/68/64 106/78/74 97/80/76
f 99/172/152 107/79/75 164/71/67
f 108/82/78 103/81/77 107/79/75
f 108/82/78 107/79/75 112/87/82
f 111/88/83 105/77/73 114/89/84
f 108/82/78 115/91/86 116/176/155
f 85/58/56 75/167/149 74/165/87
f 79/51/49 131/186/162 9/162/3
f 174/199/172 159/149/135 79/51/49
f 131/186/162 79/51/49 159/149/135
f 53/144/132 173/195/169 145/127/116
f 145/127/116 144/129/118 158/140/128
f 67/142/130 145/127/116 158/140/128
f 170/191/166 153/135/123 157/177/129
f 52/197/171 40/28/28 39/27/27
f 21/104/99 118/179/156 35/14/14
f 137/188/163 166/182/159 148/196/170
f 166/182/159 167/181/158 146/193/117
f 143/126/115 167/181/158 168/201/174
f 167/181/158 143/126/115 172/194/168
f 168/201/174 38/26/26 143/126/115
f 168/201/174 119/98/93 38/26/26
f 119/98/93 168/201/174 135/106/101
f 6/100/95 119/98/93 135/106/101
f 45/187/32 48/33/33 132/123/112
f 122/93/88 20/94/89 140/183/160
f 33/189/164 124/96/91 13/7/7
f 121/120/111 133/118/109 140/183/160
f 18/12/12 11/5/5 132/121/112
f 137/188/163 136/107/102 166/182/159
f 1/164/148 3/133/121 127/184/161
f 4/25/25 119/98/93 6/100/95
f 120/15/15 21/104/99 22/13/13
f 6/100/95 129/105/100 25/18/18
f 136/107/102 135/106/101 169/180/157
f 137/188/163 139/110/105 130/108/103
f 149/146/134 139/110/105 137/188/163
f 26/19/19 24/17/17 12/6/6
f 126/119/110 14/8/8 13/7/7
f 133/118/109 126/119/110 140/183/160
f 25/18/18 35/14/14 5/99/94
f 38/26/26 4/25/25 37/24/24
f 172/194/168 142/125/114 171/192/167
f 172/194/168 143/126/115 142/125/114
f 148/196/170 166/182/159 173/195/169
f 172/194/168 144/202/118 146/193/117
f 57/185/40 10/34/4 46/203/31
f 36/23/23 3/133/121 37/24/24
f 37/24/24 52/197/171 39/27/27
f 155/178/125 153/135/123 152/138/126
f 67/142/130 155/204/125 63/205/142
f 42/145/133 138/109/104 149/146/134
f 7/1/1 47/42/41 56/49/48
f 9/162/3 131/186/162 57/185/40
f 49/35/34 131/186/162 159/149/135
f 59/43/42 162/158/143 161/200/173
f 63/157/142 156/139/127 61/45/44
f 161/200/173 162/158/143 65/48/47
f 59/43/42 61/45/44 156/139/127
f 2/153/139 3/133/121 1/164/148
f 64/46/45 65/48/47 52/197/171
f 65/48/47 162/158/143 66/134/122
f 55/40/39 67/142/130 63/205/142
f 68/159/144 76/160/145 8/2/2
f 80/52/50 9/162/3 8/206/2
f 71/54/52 84/56/54 72/152/138
f 60/44/43 62/156/141 61/45/44
f 75/167/149 77/57/55 59/43/42
f 59/43/42 161/200/173 75/167/149
f 78/59/57 69/161/146 76/160/145
f 79/51/49 82/62/60 174/199/172
f 174/199/172 82/62/60 83/61/59
f 83/61/59 71/54/52 70/151/137
f 94/169/150 84/56/54 89/63/61
f 89/63/61 88/55/53 93/72/68
f 96/68/64 97/80/76 86/69/65
f 105/77/73 111/88/83 96/68/64
f 107/79/75 103/81/77 164/71/67
f 113/175/81 105/77/73 110/76/72
f 100/73/69 165/174/154 101/173/153
f 165/174/154 113/86/81 104/85/80
f 108/82/78 112/87/82 115/91/86
f 117/90/85 112/87/82 114/89/84
f 154/136/124 153/135/123 170/191/166
f 170/191/166 40/28/28 154/136/124
f 66/134/122 40/28/28 52/197/171
f 40/28/28 170/191/166 142/125/114
f 171/192/167 144/202/118 172/194/168
f 3/133/121 128/131/119 127/184/161
f 143/126/115 38/26/26 41/29/29
f 135/106/101 168/201/174 169/180/157
f 136/107/102 169/180/157 166/182/159
f 146/128/117 173/195/169 166/182/159
f 126/119/110 122/93/88 140/183/160
f 48/33/33 51/37/36 29/22/22
f 21/104/99 29/22/22 51/37/36
f 26/19/19 120/15/15 24/17/17
f 149/146/134 138/109/104 139/110/105
f 23/16/16 150/111/106 24/17/17
f 28/21/21 27/20/20 19/112/97
f 30/116/107 32/101/96 16/11/11
f 121/120/111 16/11/11 133/118/109
f 22/13/13 21/104/99 35/14/14
f 6/100/95 25/18/18 5/99/94
f 4/25/25 5/99/94 141/124/113
f 137/188/163 148/196/170 149/146/134
f 57/185/40 49/35/34 10/34/4
f 49/35/34 51/37/36 48/33/33
f 67/142/130 157/141/129 155/204/125
f 127/184/161 128/131/119 72/152/138
f 63/157/142 155/137/125 156/139/127
f 83/61/59 160/150/136 174/199/172
f 79/51/49 81/53/51 82/62/60
f 94/169/150 163/163/147 84/56/54
f 89/63/61 100/73/69 101/173/153
f 110/76/72 95/74/70 90/171/151
f 100/73/69 109/83/79 116/176/155
f 171/207/167 158/140/128 144/129/118
f 171/207/167 157/141/129 158/140/128
f 170/191/166 157/177/129 171/192/167
f 36/23/23 141/124/113 151/132/120
f 5/99/94 118/179/156 141/124/113
f 128/131/119 3/133/121 151/132/120
f 169/180/157 168/201/174 167/181/158
