# Blender v2.79 (sub 0) OBJ File: ''
# www.blender.org
mtllib stomac_col.mtl
o stomac_Default.005
v 0.039589 1.092548 -0.026277
v 0.033254 1.082070 -0.005972
v 0.033920 1.101699 -0.023581
v 0.025944 1.119107 -0.003316
v 0.020729 1.105295 0.014335
v 0.024924 1.085846 0.004423
v 0.029084 1.115747 -0.013960
v 0.029824 1.133199 0.002076
v 0.044105 1.145862 -0.002641
v 0.036567 1.129624 -0.019093
v 0.009103 1.120661 0.027161
v 0.019716 1.123972 0.020563
v 0.005039 1.095268 0.015447
v -0.005890 1.116297 0.027272
v 0.007656 1.081265 0.005768
v 0.024108 1.136749 0.033201
v 0.003800 1.128106 0.040811
v 0.036977 1.145150 0.040004
v 0.057875 1.151941 0.014510
v -0.034988 1.100849 0.013582
v -0.021742 1.106825 0.017932
v -0.027335 1.081340 0.006439
v -0.044832 1.084619 0.011050
v -0.043214 1.097679 0.014264
v -0.052129 1.090646 0.021136
v -0.057762 1.084956 0.022559
v -0.029922 1.114266 0.025452
v -0.047158 1.106968 0.022283
v -0.038637 1.117138 0.037476
v -0.059094 1.085301 0.040130
v -0.052697 1.105482 0.034880
v -0.058230 1.083198 0.054933
v -0.054722 1.099636 0.049815
v 0.002800 1.130212 0.051219
v -0.037351 1.117697 0.048725
v -0.047179 1.109779 0.054542
v -0.047805 1.102292 0.063141
v -0.047291 1.077689 0.069014
v -0.038015 1.094807 0.074377
v 0.000177 1.122364 0.069884
v -0.029956 1.110115 0.070045
v -0.016243 1.106412 0.080187
v -0.017961 1.098135 0.083445
v -0.032195 1.073231 0.079358
v 0.005723 1.097180 0.089359
v -0.005433 1.070135 0.083927
v 0.025961 1.123140 0.079693
v 0.029859 1.137218 0.060774
v 0.011478 1.091882 0.089970
v 0.046191 1.078564 0.084075
v 0.041617 1.116629 0.083353
v 0.039779 1.100324 0.088646
v 0.047945 1.138578 0.064659
v 0.045294 1.146784 0.044016
v 0.058242 1.100306 0.083243
v 0.082935 1.089305 0.067330
v 0.077701 1.106197 0.071464
v 0.062196 1.111885 0.080209
v 0.055630 1.130844 0.071605
v 0.074480 1.119828 0.070719
v 0.067313 1.139168 0.058298
v 0.060245 1.146214 0.048159
v 0.076606 1.148634 0.016522
v 0.065192 1.151270 -0.002024
v 0.080957 1.141426 0.039555
v 0.054883 1.148442 -0.010143
v 0.089529 1.135478 0.001704
v 0.077620 1.147087 0.004870
v 0.078995 1.140270 -0.012194
v 0.081399 1.131934 0.054473
v 0.094717 1.124651 0.039921
v 0.092347 1.133080 0.020719
v 0.090208 1.112274 0.057061
v 0.046828 1.137086 -0.021315
v 0.041054 1.120411 -0.029066
v 0.096447 1.109932 0.043728
v 0.096221 1.092825 0.040339
v 0.100351 1.111659 0.025025
v 0.099436 1.116978 0.006539
v 0.099703 1.092902 0.022660
v 0.098034 1.101974 0.001949
v 0.089859 1.091588 -0.015107
v 0.087513 1.076895 -0.012638
v 0.095274 1.086421 0.003366
v 0.088327 1.123980 -0.017505
v 0.091573 1.107235 -0.017624
v 0.075914 1.138650 -0.019528
v 0.084364 1.109132 -0.026895
v 0.073675 1.123082 -0.029866
v 0.068727 1.137151 -0.024993
v 0.062270 1.119858 -0.033711
v 0.057783 1.131956 -0.029573
v 0.083888 1.086595 -0.020339
v 0.073190 1.095230 -0.031983
v 0.072622 1.086835 -0.027409
v 0.073409 1.078566 -0.018846
v 0.049472 1.105524 -0.033879
v 0.043398 1.093397 -0.029275
v 0.055458 1.085739 -0.027844
v 0.072065 1.106842 -0.033545
v 0.046677 1.080345 -0.020543
v 0.064135 1.145221 -0.016796
vt 0.447345 0.394635
vt 0.429541 0.432858
vt 0.419826 0.410088
vt 0.460585 0.467640
vt 0.488518 0.441893
vt 0.791634 0.629138
vt 0.785108 0.594467
vt 0.823364 0.596539
vt 0.422199 0.488253
vt 0.451535 0.494132
vt 0.517045 0.477541
vt 0.491731 0.481769
vt 0.519469 0.426911
vt 0.749105 0.711985
vt 0.768429 0.665986
vt 0.764956 0.692924
vt 0.746277 0.667090
vt 0.721308 0.647226
vt 0.583900 0.447513
vt 0.564550 0.456278
vt 0.567233 0.405455
vt 0.602184 0.415792
vt 0.600255 0.442064
vt 0.583666 0.469708
vt 0.613538 0.462469
vt 0.621684 0.434899
vt 0.646837 0.435146
vt 0.634084 0.460815
vt 0.803765 0.815431
vt 0.792135 0.786611
vt 0.820962 0.795673
vt 0.804016 0.762594
vt 0.769367 0.796683
vt 0.769136 0.820002
vt 0.434361 0.586025
vt 0.420843 0.571833
vt 0.416439 0.556702
vt 0.431798 0.541809
vt 0.450680 0.580501
vt 0.700289 0.733807
vt 0.726515 0.724916
vt 0.478541 0.614322
vt 0.471080 0.607805
vt 0.535701 0.632439
vt 0.438498 0.594283
vt 0.499468 0.611021
vt 0.526801 0.536628
vt 0.550385 0.599606
vt 0.464046 0.540234
vt 0.588065 0.639412
vt 0.689852 0.680691
vt 0.499908 0.592009
vt 0.570389 0.585657
vt 0.644711 0.556805
vt 0.626967 0.634157
vt 0.675229 0.659954
vt 0.698653 0.635888
vt 0.741477 0.585365
vt 0.668503 0.596292
vt 0.629473 0.605660
vt 0.708075 0.564629
vt 0.698425 0.601448
vt 0.670643 0.622280
vt 0.648230 0.648930
vt 0.687987 0.626316
vt 0.626769 0.655348
vt 0.661548 0.649410
vt 0.633456 0.655588
vt 0.723399 0.556259
vt 0.764389 0.555277
vt 0.681916 0.612099
vt 0.678683 0.568204
vt 0.737548 0.519367
vt 0.743491 0.540184
vt 0.772587 0.524224
vt 0.658398 0.578291
vt 0.659669 0.600956
vt 0.065698 0.017986
vt 0.032906 0.031070
vt 0.047968 0.003798
vt 0.704890 0.530256
vt 0.026070 0.006021
vt 0.708739 0.601310
vt 0.687958 0.633226
vt 0.789729 0.567326
vt 0.820675 0.550863
vt 0.817594 0.574550
vt 0.401341 0.500488
vt 0.408481 0.467096
vt 0.051130 0.049836
vt 0.029186 0.061964
vt 0.028359 0.093399
vt 0.047922 0.082108
vt 0.707482 0.473001
vt 0.701192 0.452020
vt 0.734052 0.459211
vt 0.749233 0.500313
vt 0.764552 0.470355
vt 0.782702 0.504197
vt 0.775431 0.440952
vt 0.735943 0.420249
vt 0.772112 0.408386
vt 0.808511 0.418958
vt 0.814722 0.451570
vt 0.819233 0.480016
vt 0.835702 0.506419
vt 0.853750 0.476365
vt 0.836782 0.452168
vt 0.352431 0.466987
vt 0.376879 0.486151
vt 0.360256 0.494296
vt 0.824686 0.407102
vt 0.850005 0.422648
vt 0.388188 0.393942
vt 0.389305 0.437981
vt 0.358337 0.409279
vt 0.361910 0.390747
vt 0.415783 0.373804
vt 0.405065 0.411454
vt 0.475345 0.401360
vt 0.437746 0.460576
vt 0.462214 0.501355
vt 0.544053 0.472420
vt 0.508275 0.390442
vt 0.779639 0.721187
vt 0.635621 0.420361
vt 0.810526 0.745515
vt 0.637616 0.608520
vt 0.646679 0.600844
vt 0.646679 0.632967
vt 0.263102 0.869399
vt 0.292369 0.846595
vt 0.302750 0.866361
vt 0.259598 0.840556
vt 0.311030 0.839186
vt 0.279189 0.825996
vt 0.251512 0.802038
vt 0.588188 0.649200
vt 0.794109 0.544903
vt 0.067265 0.104611
vt 0.703635 0.420999
vt 0.806642 0.387488
vt 0.818756 0.512408
vt 0.790508 0.523446
vt 0.860241 0.443855
vt 0.805364 0.531438
vt 0.864271 0.466905
vt 0.367118 0.460036
vt 0.849629 0.501820
vt 0.847006 0.402823
vt 0.481116 0.377129
vt 0.830014 0.385190
vt 0.352496 0.431978
vn -0.5716 -0.8153 -0.0929
vn -0.8099 -0.1229 -0.5735
vn -0.6371 -0.3999 -0.6589
vn -0.9369 0.1340 -0.3229
vn -0.6985 0.2023 -0.6864
vn -0.7918 0.5421 -0.2813
vn -0.5098 0.8283 -0.2324
vn -0.7144 0.4771 -0.5119
vn -0.4025 0.5754 -0.7120
vn -0.7736 0.4192 -0.4752
vn -0.0853 0.5054 -0.8586
vn -0.3392 0.8636 -0.3730
vn -0.5555 0.7914 -0.2550
vn -0.3628 0.9296 0.0655
vn -0.1154 0.4978 -0.8596
vn 0.0485 0.5805 -0.8128
vn -0.1482 -0.5297 -0.8351
vn -0.4858 -0.4620 -0.7420
vn -0.4450 0.3562 -0.8217
vn -0.1518 0.8075 -0.5700
vn -0.5845 0.6123 -0.5324
vn -0.7762 0.3831 -0.5007
vn -0.8883 -0.4410 -0.1283
vn -0.8355 0.5321 -0.1373
vn -0.4327 0.8858 -0.1679
vn -0.4405 0.8806 0.1749
vn -0.6554 0.6961 0.2932
vn -0.6972 0.4210 0.5802
vn -0.9039 0.3864 0.1837
vn -0.8760 -0.4257 0.2266
vn -0.6551 -0.5984 0.4612
vn -0.5374 0.2460 0.8067
vn -0.2959 0.8088 0.5082
vn -0.3401 0.9363 0.0875
vn -0.4127 0.6716 0.6153
vn -0.3036 0.5381 0.7863
vn -0.0575 -0.8065 0.5884
vn -0.1495 0.1843 0.9714
vn -0.3930 -0.6796 0.6194
vn -0.1229 0.6299 0.7669
vn -0.2479 0.8792 0.4069
vn -0.3215 0.2225 0.9204
vn -0.0273 -0.0959 0.9950
vn 0.2914 -0.7511 0.5924
vn 0.0993 0.4302 0.8973
vn -0.0098 0.8270 0.5622
vn -0.1529 0.9609 0.2309
vn -0.0856 0.9960 0.0269
vn 0.3910 -0.0284 0.9200
vn 0.1350 0.0800 0.9876
vn 0.6295 -0.6184 0.4705
vn 0.6226 0.0843 0.7780
vn 0.3732 0.2689 0.8879
vn 0.2089 0.6214 0.7551
vn 0.5380 0.3943 0.7450
vn 0.3432 0.7600 0.5520
vn 0.1363 0.9365 0.3231
vn 0.4489 0.8913 0.0642
vn 0.1559 0.9664 -0.2042
vn 0.5599 0.7818 0.2745
vn 0.7883 0.5845 -0.1920
vn 0.5420 0.8276 -0.1462
vn 0.6201 0.6890 -0.3751
vn 0.6318 0.5744 0.5205
vn 0.8689 0.4113 0.2756
vn 0.8237 0.5652 0.0458
vn 0.8274 0.1644 0.5371
vn -0.2320 0.8931 -0.3855
vn -0.0965 0.5013 -0.8599
vn -0.4042 0.6713 -0.6213
vn -0.5326 0.2440 -0.8104
vn 0.9438 0.0451 0.3275
vn 0.7261 -0.6592 0.1954
vn 0.9895 0.1193 0.0817
vn 0.9653 0.2095 -0.1561
vn 0.9658 -0.1007 -0.2388
vn 0.7714 -0.6296 0.0925
vn 0.6687 -0.7424 0.0407
vn 0.8471 -0.1983 -0.4931
vn 0.8707 -0.0135 -0.4917
vn 0.7754 0.3573 -0.5206
vn 0.5236 0.6460 -0.5555
vn 0.4091 0.3155 -0.8562
vn 0.6533 0.0372 -0.7562
vn 0.2377 0.5938 -0.7687
vn 0.5783 -0.3760 -0.7240
vn 0.2958 -0.2869 -0.9112
vn -0.0767 -0.5789 -0.8118
vn -0.2466 -0.0682 -0.9667
vn 0.2448 -0.5772 -0.7790
vn -0.2827 -0.8687 -0.4067
vn -0.3801 -0.3309 -0.8637
vn -0.3611 -0.6451 -0.6734
vn -0.9169 0.0793 -0.3912
vn -0.0368 0.6636 -0.7472
vn 0.0530 -0.4812 -0.8750
vn -0.8736 -0.3589 -0.3286
vn 0.0964 0.8325 -0.5456
vn 0.3921 -0.9160 -0.0847
vn 0.2626 0.0017 -0.9649
vn 0.0392 0.2126 -0.9764
vn 0.1151 -0.9528 -0.2809
usemtl Liver_045kidney
s 1
f 2/1/1 3/2/2 1/3/3
f 4/4/4 2/1/1 5/5/5
f 8/6/6 9/7/7 10/8/8
f 10/9/8 4/4/4 8/10/6
f 11/11/9 12/12/10 5/5/5
f 5/5/5 13/13/11 11/11/9
f 17/14/12 12/15/10 11/16/9
f 16/17/13 18/18/14 9/7/7
f 13/13/11 20/19/15 21/20/16
f 22/21/17 23/22/18 24/23/19
f 27/24/20 20/19/15 28/25/21
f 25/26/22 30/27/23 31/28/24
f 31/28/24 28/25/21 25/26/22
f 31/29/24 29/30/25 28/31/21
f 29/30/25 17/14/12 27/32/20
f 35/33/26 31/29/24 36/34/27
f 37/35/28 33/36/29 32/37/30
f 38/38/31 39/39/32 37/35/28
f 40/40/33 34/41/34 35/33/26
f 35/42/26 41/43/35 40/44/33
f 41/43/35 36/45/27 37/35/28
f 41/43/35 39/39/32 42/46/36
f 46/47/37 45/48/38 44/49/39
f 40/44/33 42/46/36 47/50/40
f 48/51/41 18/18/14 34/41/34
f 34/41/34 40/40/33 48/51/41
f 45/48/38 42/46/36 43/52/42
f 49/53/43 46/47/37 50/54/44
f 45/48/38 51/55/45 47/50/40
f 53/56/46 54/57/47 48/51/41
f 18/18/14 54/57/47 19/58/48
f 55/59/49 52/60/50 50/54/44
f 56/61/51 57/62/52 55/59/49
f 58/63/53 59/64/54 51/55/45
f 58/63/53 57/62/52 60/65/55
f 53/66/46 61/67/56 62/68/57
f 59/64/54 61/67/56 53/66/46
f 59/64/54 60/65/55 61/67/56
f 19/58/48 63/69/58 64/70/59
f 63/69/58 19/58/48 62/71/57
f 62/71/57 65/72/60 63/69/58
f 63/69/58 67/73/61 68/74/62
f 68/74/62 67/73/61 69/75/63
f 69/75/63 64/70/59 68/74/62
f 70/76/64 65/72/60 61/77/56
f 70/78/64 71/79/65 65/80/60
f 72/81/66 63/69/58 65/72/60
f 65/80/60 71/79/65 72/82/66
f 73/83/67 70/84/64 60/65/55
f 60/65/55 57/62/52 73/83/67
f 66/85/68 92/86/69 74/87/70
f 74/88/70 75/89/71 10/9/8
f 73/90/67 76/91/72 71/79/65
f 77/92/73 76/91/72 73/93/67
f 71/94/65 76/95/72 78/96/74
f 72/97/66 79/98/75 67/99/61
f 81/100/76 79/98/75 80/101/77
f 81/100/76 84/102/78 82/103/79
f 86/104/80 85/105/81 79/98/75
f 79/98/75 81/100/76 86/104/80
f 85/105/81 87/106/82 67/99/61
f 89/107/83 85/105/81 88/108/84
f 89/109/83 92/110/69 90/111/85
f 88/108/84 93/112/86 94/113/87
f 99/114/88 97/115/89 94/116/87
f 94/116/87 95/117/90 99/114/88
f 99/114/88 101/118/91 98/119/92
f 97/115/89 3/2/2 75/89/71
f 1/3/3 101/118/91 2/1/1
f 4/4/4 3/2/2 2/1/1
f 5/5/5 2/1/1 6/120/93
f 5/5/5 12/12/10 4/4/4
f 7/121/94 3/2/2 4/4/4
f 4/4/4 12/12/10 8/122/6
f 10/9/8 7/121/94 4/4/4
f 5/5/5 6/120/93 13/13/11
f 11/11/9 13/13/11 14/123/95
f 13/13/11 6/120/93 15/124/96
f 16/17/13 8/6/6 12/15/10
f 16/17/13 9/7/7 8/6/6
f 17/14/12 16/17/13 12/15/10
f 11/16/9 14/125/95 17/14/12
f 17/14/12 18/18/14 16/17/13
f 9/7/7 18/18/14 19/58/48
f 13/13/11 15/124/96 20/19/15
f 21/20/16 14/123/95 13/13/11
f 20/19/15 15/124/96 22/21/17
f 22/21/17 24/23/19 20/19/15
f 24/23/19 23/22/18 25/26/22
f 25/26/22 28/25/21 24/23/19
f 25/26/22 23/22/18 26/126/97
f 27/32/20 14/125/95 21/127/16
f 27/24/20 21/20/16 20/19/15
f 27/32/20 28/31/21 29/30/25
f 28/25/21 20/19/15 24/23/19
f 25/128/22 26/129/97 30/130/23
f 30/131/23 33/132/29 31/133/24
f 30/131/23 32/134/30 33/132/29
f 27/32/20 17/14/12 14/125/95
f 29/30/25 34/41/34 17/14/12
f 34/41/34 18/18/14 17/14/12
f 35/33/26 29/30/25 31/29/24
f 36/135/27 31/133/24 33/132/29
f 35/33/26 34/41/34 29/30/25
f 36/45/27 33/36/29 37/35/28
f 37/136/28 32/134/30 38/137/31
f 38/38/31 44/49/39 39/39/32
f 35/42/26 36/45/27 41/43/35
f 41/43/35 42/46/36 40/44/33
f 41/43/35 37/35/28 39/39/32
f 43/52/42 39/39/32 44/49/39
f 44/49/39 45/48/38 43/52/42
f 42/46/36 39/39/32 43/52/42
f 46/47/37 49/53/43 45/48/38
f 40/44/33 47/50/40 48/138/41
f 49/53/43 52/60/50 45/48/38
f 50/54/44 52/60/50 49/53/43
f 47/50/40 42/46/36 45/48/38
f 45/48/38 52/60/50 51/55/45
f 48/51/41 54/57/47 18/18/14
f 48/138/41 47/50/40 53/66/46
f 55/59/49 50/54/44 56/61/51
f 58/63/53 60/65/55 59/64/54
f 51/55/45 59/64/54 47/50/40
f 51/55/45 52/60/50 58/63/53
f 58/63/53 52/60/50 55/59/49
f 58/63/53 55/59/49 57/62/52
f 62/71/57 54/57/47 53/56/46
f 53/66/46 47/50/40 59/64/54
f 61/77/56 65/72/60 62/71/57
f 19/58/48 54/57/47 62/71/57
f 64/70/59 102/139/98 66/85/68
f 64/70/59 66/85/68 19/58/48
f 9/7/7 19/58/48 66/85/68
f 69/75/63 102/139/98 64/70/59
f 68/74/62 64/70/59 63/69/58
f 61/67/56 60/65/55 70/84/64
f 72/81/66 67/73/61 63/69/58
f 73/90/67 71/79/65 70/78/64
f 92/110/69 75/89/71 74/88/70
f 74/87/70 9/7/7 66/85/68
f 66/85/68 102/139/98 92/86/69
f 10/9/8 75/89/71 7/121/94
f 10/8/8 9/7/7 74/87/70
f 73/83/67 57/62/52 56/61/51
f 73/93/67 56/140/51 77/92/73
f 78/96/74 79/98/75 71/94/65
f 72/97/66 71/94/65 79/98/75
f 80/101/77 79/98/75 78/96/74
f 78/96/74 76/95/72 77/141/73
f 78/96/74 77/141/73 80/101/77
f 82/103/79 84/102/78 83/142/99
f 81/100/76 80/101/77 84/102/78
f 86/104/80 81/100/76 82/103/79
f 67/99/61 87/106/82 69/143/63
f 67/99/61 79/98/75 85/105/81
f 87/144/82 102/139/98 69/75/63
f 88/108/84 85/105/81 86/104/80
f 86/104/80 82/103/79 88/108/84
f 88/108/84 100/145/100 89/107/83
f 89/107/83 87/106/82 85/105/81
f 90/146/85 102/139/98 87/144/82
f 89/107/83 100/145/100 91/147/101
f 89/109/83 91/148/101 92/110/69
f 90/149/85 87/106/82 89/107/83
f 92/86/69 102/139/98 90/146/85
f 91/148/101 75/89/71 92/110/69
f 82/103/79 83/142/99 93/112/86
f 94/113/87 93/112/86 95/150/90
f 94/113/87 100/145/100 88/108/84
f 88/108/84 82/103/79 93/112/86
f 96/151/102 93/112/86 83/142/99
f 96/152/102 95/150/90 93/112/86
f 99/114/88 95/117/90 96/151/102
f 97/115/89 75/89/71 91/148/101
f 91/148/101 100/153/100 97/115/89
f 99/114/88 98/119/92 97/115/89
f 94/116/87 97/115/89 100/153/100
f 97/115/89 98/119/92 3/2/2
f 3/2/2 7/121/94 75/89/71
f 98/119/92 101/118/91 1/3/3
f 3/2/2 98/119/92 1/3/3
f 2/1/1 101/118/91 96/151/102
f 96/151/102 83/142/99 84/102/78
f 84/102/78 80/101/77 6/120/93
f 96/151/102 84/102/78 2/1/1
f 80/101/77 77/92/73 6/120/93
f 6/120/93 77/92/73 56/61/51
f 56/61/51 50/54/44 6/120/93
f 50/54/44 46/47/37 15/124/96
f 6/120/93 50/54/44 15/124/96
f 46/47/37 44/49/39 22/21/17
f 44/49/39 38/137/31 22/21/17
f 38/137/31 32/134/30 30/131/23
f 22/21/17 38/137/31 30/131/23
f 30/131/23 26/126/97 23/22/18
f 23/22/18 22/21/17 30/131/23
f 22/21/17 15/124/96 46/47/37
f 84/102/78 6/120/93 2/1/1
f 101/118/91 99/114/88 96/151/102
