# Blender v2.92.0 OBJ File: ''
# www.blender.org
mtllib floor2b_collision.mtl
o Plane.001
v 0.000000 -2.800000 0.000000
v -82.500000 52.200043 -82.499977
v -82.500000 52.199963 82.500023
v 82.500000 52.199963 82.500023
v 82.500000 52.200043 -82.499977
v 0.000000 2.000000 0.000000
v -75.000000 52.000034 -74.999977
v -75.000000 51.999966 75.000023
v 75.000000 51.999966 75.000023
v 75.000000 52.000034 -74.999977
vt 0.500000 0.500000
vt 0.000100 0.000100
vt 0.000100 0.999900
vt 0.999900 0.000100
vt 0.999900 0.999900
vt 0.500000 0.500000
vt 0.000100 0.999900
vt 0.000100 0.000100
vt 0.999900 0.000100
vt 0.999900 0.999900
vn -0.3807 -0.9247 0.0000
vn -0.6483 -0.7463 -0.1508
vn -0.6483 -0.7463 0.1508
vn 0.0000 -0.9247 0.3807
vn -0.1508 -0.7463 0.6483
vn 0.1508 -0.7463 0.6483
vn 0.3807 -0.9247 0.0000
vn 0.6483 -0.7463 0.1508
vn 0.6483 -0.7463 -0.1508
vn -0.5773 -0.7550 -0.3110
vn 0.4923 -0.8555 -0.1601
vn 0.2462 -0.3631 -0.8986
vn 0.7071 0.7071 -0.0000
vn -0.0000 0.7071 -0.7071
vn -0.7071 0.7071 -0.0000
vn 0.5773 0.5774 0.5773
vn 0.5774 0.5773 0.5773
vn 0.5773 0.5774 0.5774
vn 0.5772 0.8118 -0.0887
vn 0.5381 0.7920 0.2884
vn 0.4136 0.9078 0.0693
vn -0.5096 0.7916 0.3371
vn -0.0521 0.9776 -0.2041
vn -0.1735 0.9800 0.0979
vn 0.2041 0.9776 -0.0521
vn -0.0979 0.9800 -0.1735
usemtl None
s 1
f 1/1/1 3/2/2 2/3/3
f 1/1/4 4/4/5 3/2/6
f 1/1/7 5/5/8 4/4/9
f 1/1/10 2/3/11 5/5/12
f 6/6/13 7/7/13 8/8/13
f 6/6/14 8/8/14 9/9/14
f 6/6/15 9/9/15 10/10/15
f 6/6/16 10/10/17 7/7/18
f 5/5/19 2/3/20 7/7/21 10/10/22
f 5/5/19 10/10/22 9/9/23 4/4/24
f 4/4/24 9/9/23 8/8/25 3/2/26
f 3/2/26 8/8/25 7/7/21 2/3/20
