# Blender 4.4.3
# www.blender.org
mtllib beam.mtl
o Circle
v -92.387947 -38.268345 -161.882309
v -83.146957 -55.557026 -161.882309
v -70.710678 -70.710678 -161.882309
v -55.557026 -83.146957 -161.882309
v -38.268345 -92.387947 -161.882309
v -19.509033 -98.078522 -161.882309
v 0.000000 -100.000000 -161.882309
v 19.509033 -98.078522 -161.882309
v 38.268345 -92.387947 -161.882309
v 55.557026 -83.146957 -161.882309
v 70.710678 -70.710678 -161.882309
v 83.146957 -55.557026 -161.882309
v 92.387947 -38.268345 -161.882309
v 0.000000 -50.000000 -161.882309
v 0.000000 -75.000000 -161.882309
v 0.000000 -25.000000 -161.882309
v 35.355339 -35.355339 -161.882309
v -35.355339 -35.355339 -161.882309
v 53.033005 -53.033005 -161.882309
v -17.677670 -17.677670 -161.882309
v 17.677670 -17.677670 -161.882309
v -53.033005 -53.033005 -161.882309
v 46.193974 -19.134172 -161.882309
v -19.134172 -46.193974 -161.882309
v -46.193974 -19.134172 -161.882309
v 19.134172 -46.193974 -161.882309
v 69.290962 -28.701258 -161.882309
v -9.567086 -23.096987 -161.882309
v -23.096987 -9.567086 -161.882309
v 28.701258 -69.290962 -161.882309
v 23.096987 -9.567086 -161.882309
v -28.701258 -69.290962 -161.882309
v -69.290962 -28.701258 -161.882309
v 9.567086 -23.096987 -161.882309
v -8.838835 -8.838835 -161.882309
v -4.783543 -11.548493 -161.882309
v 0.000000 -12.500000 -161.882309
v 4.783543 -11.548493 -161.882309
v 8.838835 -8.838835 -161.882309
v 11.548493 -4.783543 -161.882309
v -11.548493 -4.783543 -161.882309
v -20.387327 -13.622377 -161.882309
v -13.622377 -20.387327 -161.882309
v -4.783543 -24.048494 -161.882309
v 4.783543 -24.048494 -161.882309
v 13.622377 -20.387327 -161.882309
v 20.387327 -13.622377 -161.882309
v 40.774654 -27.244755 -161.882309
v 27.244755 -40.774654 -161.882309
v 9.567086 -48.096989 -161.882309
v -9.567086 -48.096989 -161.882309
v -27.244755 -40.774654 -161.882309
v -40.774654 -27.244755 -161.882309
v 0.000000 -37.500000 -161.882309
v 0.000000 -62.500000 -161.882309
v 0.000000 -87.500000 -161.882309
v -4.783543 -36.548496 -161.882309
v -14.350629 -34.645481 -161.882309
v -18.405920 -31.935823 -161.882309
v -26.516502 -26.516502 -161.882309
v -31.935823 -18.405920 -161.882309
v -34.645481 -14.350629 -161.882309
v 34.645481 -14.350629 -161.882309
v 29.226164 -22.461212 -161.882309
v 26.516502 -26.516502 -161.882309
v 18.405920 -31.935823 -161.882309
v 9.567086 -35.596989 -161.882309
v 14.350629 -34.645481 -161.882309
v 61.161983 -40.867130 -161.882309
v 40.867130 -61.161983 -161.882309
v 14.350629 -72.145477 -161.882309
v -14.350629 -72.145477 -161.882309
v -40.867130 -61.161983 -161.882309
v -61.161983 -40.867130 -161.882309
v -57.742466 -23.917715 -161.882309
v -32.028301 -52.323151 -161.882309
v -44.194176 -44.194176 -161.882309
v -49.613491 -36.083591 -161.882309
v -14.350629 -59.645481 -161.882309
v -23.917715 -57.742466 -161.882309
v 52.323151 -32.028301 -161.882309
v 44.194176 -44.194176 -161.882309
v 32.028301 -52.323151 -161.882309
v 14.350629 -59.645481 -161.882309
v 23.917715 -57.742466 -161.882309
v 57.742466 -23.917715 -161.882309
v 87.767456 -46.912685 -161.882309
v 76.928818 -63.133846 -161.882309
v 63.133846 -76.928818 -161.882309
v 46.912685 -87.767456 -161.882309
v 28.888691 -95.233238 -161.882309
v 9.754517 -99.039261 -161.882309
v 80.839455 -33.484802 -161.882309
v 76.218964 -42.129143 -161.882309
v 68.089989 -54.295013 -161.882309
v 61.871838 -61.871838 -161.882309
v 54.295013 -68.089989 -161.882309
v 42.129143 -76.218964 -161.882309
v 33.484802 -80.839455 -161.882309
v 24.105145 -83.684746 -161.882309
v 9.754517 -86.539261 -161.882309
v -9.754517 -99.039261 -161.882309
v -28.888691 -95.233238 -161.882309
v -46.912685 -87.767456 -161.882309
v -63.133846 -76.928818 -161.882309
v -76.928818 -63.133846 -161.882309
v -87.767456 -46.912685 -161.882309
v -76.218964 -42.129143 -161.882309
v -80.839455 -33.484802 -161.882309
v -54.295013 -68.089989 -161.882309
v -61.871838 -61.871838 -161.882309
v -68.089989 -54.295013 -161.882309
v -24.105145 -83.684746 -161.882309
v -33.484802 -80.839455 -161.882309
v -42.129143 -76.218964 -161.882309
v -9.754517 -86.539261 -161.882309
vn -0.0000 -0.0000 -1.0000
vt 0.000000 0.000000
s 0
f 16/1/1 44/1/1 37/1/1
f 20/1/1 42/1/1 35/1/1
f 21/1/1 46/1/1 39/1/1
f 31/1/1 47/1/1 40/1/1
f 34/1/1 45/1/1 38/1/1
f 28/1/1 43/1/1 36/1/1
f 20/1/1 43/1/1 59/1/1
f 28/1/1 44/1/1 57/1/1
f 14/1/1 51/1/1 57/1/1
f 24/1/1 52/1/1 59/1/1
f 18/1/1 53/1/1 60/1/1
f 20/1/1 61/1/1 42/1/1
f 26/1/1 68/1/1 66/1/1
f 23/1/1 48/1/1 63/1/1
f 17/1/1 49/1/1 65/1/1
f 31/1/1 64/1/1 47/1/1
f 26/1/1 50/1/1 67/1/1
f 26/1/1 67/1/1 68/1/1
f 18/1/1 52/1/1 76/1/1
f 32/1/1 73/1/1 76/1/1
f 22/1/1 74/1/1 78/1/1
f 14/1/1 55/1/1 79/1/1
f 24/1/1 51/1/1 80/1/1
f 22/1/1 78/1/1 77/1/1
f 17/1/1 48/1/1 81/1/1
f 27/1/1 69/1/1 81/1/1
f 19/1/1 70/1/1 82/1/1
f 30/1/1 71/1/1 84/1/1
f 30/1/1 84/1/1 85/1/1
f 30/1/1 85/1/1 83/1/1
f 19/1/1 69/1/1 95/1/1
f 13/1/1 87/1/1 93/1/1
f 12/1/1 88/1/1 95/1/1
f 11/1/1 89/1/1 96/1/1
f 10/1/1 90/1/1 98/1/1
f 19/1/1 97/1/1 70/1/1
f 9/1/1 91/1/1 99/1/1
f 8/1/1 92/1/1 101/1/1
f 30/1/1 100/1/1 71/1/1
f 2/1/1 108/1/1 112/1/1
f 2/1/1 107/1/1 108/1/1
f 4/1/1 105/1/1 110/1/1
f 3/1/1 106/1/1 111/1/1
f 6/1/1 103/1/1 113/1/1
f 5/1/1 104/1/1 114/1/1
f 15/1/1 56/1/1 116/1/1
f 32/1/1 72/1/1 113/1/1
f 22/1/1 73/1/1 110/1/1
f 110/1/1 115/1/1 4/1/1
f 110/1/1 73/1/1 115/1/1
f 73/1/1 32/1/1 115/1/1
f 113/1/1 116/1/1 6/1/1
f 113/1/1 72/1/1 116/1/1
f 72/1/1 15/1/1 116/1/1
f 116/1/1 102/1/1 6/1/1
f 116/1/1 56/1/1 102/1/1
f 56/1/1 7/1/1 102/1/1
f 114/1/1 115/1/1 32/1/1
f 114/1/1 104/1/1 115/1/1
f 104/1/1 4/1/1 115/1/1
f 113/1/1 114/1/1 32/1/1
f 113/1/1 103/1/1 114/1/1
f 103/1/1 5/1/1 114/1/1
f 111/1/1 112/1/1 22/1/1
f 111/1/1 106/1/1 112/1/1
f 106/1/1 2/1/1 112/1/1
f 110/1/1 111/1/1 22/1/1
f 110/1/1 105/1/1 111/1/1
f 105/1/1 3/1/1 111/1/1
f 108/1/1 109/1/1 33/1/1
f 108/1/1 107/1/1 109/1/1
f 107/1/1 1/1/1 109/1/1
f 112/1/1 74/1/1 22/1/1
f 112/1/1 108/1/1 74/1/1
f 108/1/1 33/1/1 74/1/1
f 71/1/1 101/1/1 15/1/1
f 71/1/1 100/1/1 101/1/1
f 100/1/1 8/1/1 101/1/1
f 101/1/1 56/1/1 15/1/1
f 101/1/1 92/1/1 56/1/1
f 92/1/1 7/1/1 56/1/1
f 99/1/1 100/1/1 30/1/1
f 99/1/1 91/1/1 100/1/1
f 91/1/1 8/1/1 100/1/1
f 70/1/1 98/1/1 30/1/1
f 70/1/1 97/1/1 98/1/1
f 97/1/1 10/1/1 98/1/1
f 98/1/1 99/1/1 30/1/1
f 98/1/1 90/1/1 99/1/1
f 90/1/1 9/1/1 99/1/1
f 96/1/1 97/1/1 19/1/1
f 96/1/1 89/1/1 97/1/1
f 89/1/1 10/1/1 97/1/1
f 95/1/1 96/1/1 19/1/1
f 95/1/1 88/1/1 96/1/1
f 88/1/1 11/1/1 96/1/1
f 93/1/1 94/1/1 27/1/1
f 93/1/1 87/1/1 94/1/1
f 87/1/1 12/1/1 94/1/1
f 95/1/1 94/1/1 12/1/1
f 95/1/1 69/1/1 94/1/1
f 69/1/1 27/1/1 94/1/1
f 83/1/1 49/1/1 17/1/1
f 83/1/1 85/1/1 49/1/1
f 85/1/1 26/1/1 49/1/1
f 85/1/1 50/1/1 26/1/1
f 85/1/1 84/1/1 50/1/1
f 84/1/1 14/1/1 50/1/1
f 84/1/1 55/1/1 14/1/1
f 84/1/1 71/1/1 55/1/1
f 71/1/1 15/1/1 55/1/1
f 82/1/1 83/1/1 17/1/1
f 82/1/1 70/1/1 83/1/1
f 70/1/1 30/1/1 83/1/1
f 81/1/1 82/1/1 17/1/1
f 81/1/1 69/1/1 82/1/1
f 69/1/1 19/1/1 82/1/1
f 81/1/1 86/1/1 27/1/1
f 81/1/1 48/1/1 86/1/1
f 48/1/1 23/1/1 86/1/1
f 77/1/1 53/1/1 18/1/1
f 77/1/1 78/1/1 53/1/1
f 78/1/1 25/1/1 53/1/1
f 80/1/1 79/1/1 32/1/1
f 80/1/1 51/1/1 79/1/1
f 51/1/1 14/1/1 79/1/1
f 79/1/1 72/1/1 32/1/1
f 79/1/1 55/1/1 72/1/1
f 55/1/1 15/1/1 72/1/1
f 78/1/1 75/1/1 25/1/1
f 78/1/1 74/1/1 75/1/1
f 74/1/1 33/1/1 75/1/1
f 76/1/1 77/1/1 18/1/1
f 76/1/1 73/1/1 77/1/1
f 73/1/1 22/1/1 77/1/1
f 76/1/1 80/1/1 32/1/1
f 76/1/1 52/1/1 80/1/1
f 52/1/1 24/1/1 80/1/1
f 68/1/1 45/1/1 34/1/1
f 68/1/1 67/1/1 45/1/1
f 67/1/1 16/1/1 45/1/1
f 67/1/1 54/1/1 16/1/1
f 67/1/1 50/1/1 54/1/1
f 50/1/1 14/1/1 54/1/1
f 47/1/1 65/1/1 21/1/1
f 47/1/1 64/1/1 65/1/1
f 64/1/1 17/1/1 65/1/1
f 65/1/1 66/1/1 21/1/1
f 65/1/1 49/1/1 66/1/1
f 49/1/1 26/1/1 66/1/1
f 63/1/1 64/1/1 31/1/1
f 63/1/1 48/1/1 64/1/1
f 48/1/1 17/1/1 64/1/1
f 66/1/1 46/1/1 21/1/1
f 66/1/1 68/1/1 46/1/1
f 68/1/1 34/1/1 46/1/1
f 42/1/1 62/1/1 29/1/1
f 42/1/1 61/1/1 62/1/1
f 61/1/1 25/1/1 62/1/1
f 60/1/1 61/1/1 20/1/1
f 60/1/1 53/1/1 61/1/1
f 53/1/1 25/1/1 61/1/1
f 59/1/1 60/1/1 20/1/1
f 59/1/1 52/1/1 60/1/1
f 52/1/1 18/1/1 60/1/1
f 57/1/1 58/1/1 28/1/1
f 57/1/1 51/1/1 58/1/1
f 51/1/1 24/1/1 58/1/1
f 57/1/1 54/1/1 14/1/1
f 57/1/1 44/1/1 54/1/1
f 44/1/1 16/1/1 54/1/1
f 59/1/1 58/1/1 24/1/1
f 59/1/1 43/1/1 58/1/1
f 43/1/1 28/1/1 58/1/1
f 36/1/1 43/1/1 35/1/1
f 43/1/1 20/1/1 35/1/1
f 38/1/1 45/1/1 37/1/1
f 45/1/1 16/1/1 37/1/1
f 40/1/1 47/1/1 39/1/1
f 47/1/1 21/1/1 39/1/1
f 39/1/1 46/1/1 38/1/1
f 46/1/1 34/1/1 38/1/1
f 35/1/1 42/1/1 41/1/1
f 42/1/1 29/1/1 41/1/1
f 37/1/1 44/1/1 36/1/1
f 44/1/1 28/1/1 36/1/1
